<svg xmlns="http://www.w3.org/2000/svg" xmlns:xlink="http://www.w3.org/1999/xlink" xml:space="preserve" style="enable-background:new 0 0 1820 1214" viewBox="0 0 1820 1214" id="group-of-young-businessmen-and-women-as-a-teamwork-meeting-around-a-table-in-conference-room">
  <g id="Background">
    <rect width="1820" height="1214" style="fill:#fff"></rect>
    <rect width="1820" height="319.004" y="898.987" style="fill:#6986c3"></rect>
    <path d="M851.494 1059.551H670.448c-10.959 0-19.842-8.884-19.842-19.843l0 0c0-10.959 8.884-19.842 19.842-19.842h181.046c10.959 0 19.842 8.884 19.842 19.842l0 0C871.336 1050.668 862.452 1059.551 851.494 1059.551zM1236.379 1057.454H968.465c-10.959 0-19.842-8.884-19.842-19.843v0c0-10.959 8.884-19.842 19.842-19.842h267.913c10.959 0 19.843 8.884 19.843 19.842v0C1256.221 1048.571 1247.338 1057.454 1236.379 1057.454zM536.224 1097.965H201.987c-14.174 0-25.664-11.49-25.664-25.664v0c0-14.174 11.49-25.664 25.664-25.664h334.237c14.174 0 25.664 11.49 25.664 25.664v0C561.888 1086.475 550.397 1097.965 536.224 1097.965zM1569.618 1081.141h-294.209c-11.741 0-21.26-9.518-21.26-21.26v0c0-11.741 9.518-21.26 21.26-21.26h294.209c11.742 0 21.26 9.518 21.26 21.26v0C1590.878 1071.623 1581.36 1081.141 1569.618 1081.141z" style="fill:#5877ba"></path>
    <g>
      <rect width="540.853" height="473.551" x="1178.426" y="100.66" style="fill:#b0b2b8"></rect>
      <rect width="519.473" height="459.947" x="1189.114" y="107.464" style="fill:#93cde5"></rect>
      <linearGradient id="SVGID_1_" x1="1189.114" x2="1451.494" y1="230.418" y2="230.418" gradientUnits="userSpaceOnUse">
        <stop offset="0" style="stop-color:#93cde5"></stop>
        <stop offset=".894" style="stop-color:#fff"></stop>
      </linearGradient>
      <polygon points="1451.494 127.162 1451.494 173.619 1189.114 333.675 1189.114 287.728" style="fill:url(#SVGID_1_)"></polygon>
      <linearGradient id="SVGID_2_" x1="1448.904" x2="1711.331" y1="258.998" y2="258.998" gradientUnits="userSpaceOnUse">
        <stop offset="0" style="stop-color:#93cde5"></stop>
        <stop offset=".915" style="stop-color:#fff"></stop>
      </linearGradient>
      <polygon points="1455.566 314.851 1711.331 152.847 1711.331 199.305 1448.904 365.15" style="fill:url(#SVGID_2_)"></polygon>
      <linearGradient id="SVGID_3_" x1="1442.196" x2="1711.331" y1="201.63" y2="201.63" gradientUnits="userSpaceOnUse">
        <stop offset="0" style="stop-color:#93cde5"></stop>
        <stop offset=".91" style="stop-color:#fff"></stop>
      </linearGradient>
      <polygon points="1442.196 278.067 1711.331 107.594 1711.331 129.822 1448.904 295.667" style="fill:url(#SVGID_3_)"></polygon>
      <linearGradient id="SVGID_4_" x1="1189.114" x2="1451.494" y1="362.257" y2="362.257" gradientUnits="userSpaceOnUse">
        <stop offset="0" style="stop-color:#93cde5"></stop>
        <stop offset=".87" style="stop-color:#fff"></stop>
      </linearGradient>
      <polygon points="1451.494 271.111 1451.494 293.337 1189.114 453.403 1189.114 431.688" style="fill:url(#SVGID_4_)"></polygon>
      <rect width="9.074" height="467.825" x="1446.958" y="105.221" style="fill:#b0b2b8"></rect>
    </g>
    <g>
      <path d="M975.084,483.778H312.316c-6.526,0-11.816-5.29-11.816-11.816V112.476
			c0-6.526,5.29-11.816,11.816-11.816h662.768c6.526,0,11.816,5.29,11.816,11.816v359.485
			C986.901,478.487,981.61,483.778,975.084,483.778z" style="fill:#b0b2b8"></path>
      <rect width="349.102" height="652.385" x="469.15" y="-33.974" style="fill:#eae6e4" transform="rotate(90 643.7 292.219)"></rect>
      <g>
        <path d="M513.645,306.619H354.072c-1.535,0-2.78-1.245-2.78-2.78v-130.09c0-1.535,1.245-2.78,2.78-2.78
				h159.572c1.535,0,2.78,1.245,2.78,2.78v130.09C516.425,305.375,515.18,306.619,513.645,306.619z" style="fill:#fff"></path>
        <path d="M435.322,182.093c0,1.701-1.379,3.08-3.08,3.08s-3.08-1.379-3.08-3.08s1.379-3.08,3.08-3.08
				S435.322,180.392,435.322,182.093z" style="fill:#d7cfcd"></path>
        <rect width="56.755" height="8.696" x="364.425" y="189.988" style="fill:#d7cfcd"></rect>
        <g>
          <path d="M377.916 225.611h-11.284c-1.636 0-2.962-1.326-2.962-2.962v-11.284c0-1.636 1.326-2.962 2.962-2.962h11.284c1.636 0 2.962 1.326 2.962 2.962v11.284C380.878 224.285 379.551 225.611 377.916 225.611zM398.444 225.611H387.16c-1.636 0-2.962-1.326-2.962-2.962v-11.284c0-1.636 1.326-2.962 2.962-2.962h11.284c1.636 0 2.962 1.326 2.962 2.962v11.284C401.406 224.285 400.08 225.611 398.444 225.611zM418.973 225.611h-11.284c-1.636 0-2.962-1.326-2.962-2.962v-11.284c0-1.636 1.326-2.962 2.962-2.962h11.284c1.636 0 2.962 1.326 2.962 2.962v11.284C421.934 224.285 420.608 225.611 418.973 225.611zM439.501 225.611h-11.284c-1.636 0-2.962-1.326-2.962-2.962v-11.284c0-1.636 1.326-2.962 2.962-2.962h11.284c1.636 0 2.962 1.326 2.962 2.962v11.284C442.462 224.285 441.136 225.611 439.501 225.611zM460.029 225.611h-11.284c-1.636 0-2.962-1.326-2.962-2.962v-11.284c0-1.636 1.326-2.962 2.962-2.962h11.284c1.636 0 2.962 1.326 2.962 2.962v11.284C462.991 224.285 461.665 225.611 460.029 225.611zM480.557 225.611h-11.284c-1.636 0-2.962-1.326-2.962-2.962v-11.284c0-1.636 1.326-2.962 2.962-2.962h11.284c1.636 0 2.962 1.326 2.962 2.962v11.284C483.519 224.285 482.193 225.611 480.557 225.611z" style="fill:#d7cfcd"></path>
          <path d="M501.086,225.611h-11.284c-1.636,0-2.962-1.326-2.962-2.962v-11.284
					c0-1.636,1.326-2.962,2.962-2.962h11.284c1.636,0,2.962,1.326,2.962,2.962v11.284
					C504.047,224.285,502.721,225.611,501.086,225.611z" style="fill:#b53043"></path>
        </g>
        <g>
          <path d="M377.916 249.158h-11.284c-1.636 0-2.962-1.326-2.962-2.962v-11.284c0-1.636 1.326-2.962 2.962-2.962h11.284c1.636 0 2.962 1.326 2.962 2.962v11.284C380.878 247.832 379.551 249.158 377.916 249.158zM398.444 249.158H387.16c-1.636 0-2.962-1.326-2.962-2.962v-11.284c0-1.636 1.326-2.962 2.962-2.962h11.284c1.636 0 2.962 1.326 2.962 2.962v11.284C401.406 247.832 400.08 249.158 398.444 249.158zM418.973 249.158h-11.284c-1.636 0-2.962-1.326-2.962-2.962v-11.284c0-1.636 1.326-2.962 2.962-2.962h11.284c1.636 0 2.962 1.326 2.962 2.962v11.284C421.934 247.832 420.608 249.158 418.973 249.158zM439.501 249.158h-11.284c-1.636 0-2.962-1.326-2.962-2.962v-11.284c0-1.636 1.326-2.962 2.962-2.962h11.284c1.636 0 2.962 1.326 2.962 2.962v11.284C442.462 247.832 441.136 249.158 439.501 249.158zM460.029 249.158h-11.284c-1.636 0-2.962-1.326-2.962-2.962v-11.284c0-1.636 1.326-2.962 2.962-2.962h11.284c1.636 0 2.962 1.326 2.962 2.962v11.284C462.991 247.832 461.665 249.158 460.029 249.158zM480.557 249.158h-11.284c-1.636 0-2.962-1.326-2.962-2.962v-11.284c0-1.636 1.326-2.962 2.962-2.962h11.284c1.636 0 2.962 1.326 2.962 2.962v11.284C483.519 247.832 482.193 249.158 480.557 249.158z" style="fill:#d7cfcd"></path>
          <path d="M501.086,249.158h-11.284c-1.636,0-2.962-1.326-2.962-2.962v-11.284
					c0-1.636,1.326-2.962,2.962-2.962h11.284c1.636,0,2.962,1.326,2.962,2.962v11.284
					C504.047,247.832,502.721,249.158,501.086,249.158z" style="fill:#b53043"></path>
        </g>
        <g>
          <path d="M377.916 272.705h-11.284c-1.636 0-2.962-1.326-2.962-2.962v-11.284c0-1.636 1.326-2.962 2.962-2.962h11.284c1.636 0 2.962 1.326 2.962 2.962v11.284C380.878 271.379 379.551 272.705 377.916 272.705zM398.444 272.705H387.16c-1.636 0-2.962-1.326-2.962-2.962v-11.284c0-1.636 1.326-2.962 2.962-2.962h11.284c1.636 0 2.962 1.326 2.962 2.962v11.284C401.406 271.379 400.08 272.705 398.444 272.705zM418.973 272.705h-11.284c-1.636 0-2.962-1.326-2.962-2.962v-11.284c0-1.636 1.326-2.962 2.962-2.962h11.284c1.636 0 2.962 1.326 2.962 2.962v11.284C421.934 271.379 420.608 272.705 418.973 272.705zM439.501 272.705h-11.284c-1.636 0-2.962-1.326-2.962-2.962v-11.284c0-1.636 1.326-2.962 2.962-2.962h11.284c1.636 0 2.962 1.326 2.962 2.962v11.284C442.462 271.379 441.136 272.705 439.501 272.705zM460.029 272.705h-11.284c-1.636 0-2.962-1.326-2.962-2.962v-11.284c0-1.636 1.326-2.962 2.962-2.962h11.284c1.636 0 2.962 1.326 2.962 2.962v11.284C462.991 271.379 461.665 272.705 460.029 272.705zM480.557 272.705h-11.284c-1.636 0-2.962-1.326-2.962-2.962v-11.284c0-1.636 1.326-2.962 2.962-2.962h11.284c1.636 0 2.962 1.326 2.962 2.962v11.284C483.519 271.379 482.193 272.705 480.557 272.705z" style="fill:#d7cfcd"></path>
          <path d="M501.086,272.705h-11.284c-1.636,0-2.962-1.326-2.962-2.962v-11.284
					c0-1.636,1.326-2.962,2.962-2.962h11.284c1.636,0,2.962,1.326,2.962,2.962v11.284
					C504.047,271.379,502.721,272.705,501.086,272.705z" style="fill:#b53043"></path>
        </g>
        <g>
          <path d="M377.916 296.252h-11.284c-1.636 0-2.962-1.326-2.962-2.962v-11.284c0-1.636 1.326-2.962 2.962-2.962h11.284c1.636 0 2.962 1.326 2.962 2.962v11.284C380.878 294.926 379.551 296.252 377.916 296.252zM398.444 296.252H387.16c-1.636 0-2.962-1.326-2.962-2.962v-11.284c0-1.636 1.326-2.962 2.962-2.962h11.284c1.636 0 2.962 1.326 2.962 2.962v11.284C401.406 294.926 400.08 296.252 398.444 296.252zM418.973 296.252h-11.284c-1.636 0-2.962-1.326-2.962-2.962v-11.284c0-1.636 1.326-2.962 2.962-2.962h11.284c1.636 0 2.962 1.326 2.962 2.962v11.284C421.934 294.926 420.608 296.252 418.973 296.252zM439.501 296.252h-11.284c-1.636 0-2.962-1.326-2.962-2.962v-11.284c0-1.636 1.326-2.962 2.962-2.962h11.284c1.636 0 2.962 1.326 2.962 2.962v11.284C442.462 294.926 441.136 296.252 439.501 296.252zM460.029 296.252h-11.284c-1.636 0-2.962-1.326-2.962-2.962v-11.284c0-1.636 1.326-2.962 2.962-2.962h11.284c1.636 0 2.962 1.326 2.962 2.962v11.284C462.991 294.926 461.665 296.252 460.029 296.252zM480.557 296.252h-11.284c-1.636 0-2.962-1.326-2.962-2.962v-11.284c0-1.636 1.326-2.962 2.962-2.962h11.284c1.636 0 2.962 1.326 2.962 2.962v11.284C483.519 294.926 482.193 296.252 480.557 296.252z" style="fill:#d7cfcd"></path>
          <path d="M501.086,296.252h-11.284c-1.636,0-2.962-1.326-2.962-2.962v-11.284
					c0-1.636,1.326-2.962,2.962-2.962h11.284c1.636,0,2.962,1.326,2.962,2.962v11.284
					C504.047,294.926,502.721,296.252,501.086,296.252z" style="fill:#b53043"></path>
        </g>
      </g>
      <g>
        <rect width="49.024" height="49.024" x="548.797" y="167.638" style="fill:#c29b37"></rect>
        <rect width="49.024" height="49.024" x="535.243" y="141.892" style="fill:#fed734"></rect>
      </g>
      <rect width="49.024" height="49.024" x="806.237" y="148.701" style="fill:#c29b37"></rect>
      <rect width="49.024" height="49.024" x="788.88" y="189.677" style="fill:#fed734" transform="rotate(-11.902 813.31 214.131)"></rect>
      <rect width="49.024" height="49.024" x="854.352" y="226.322" style="fill:#c29b37"></rect>
      <rect width="49.024" height="49.024" x="877.031" y="332.209" style="fill:#c29b37" transform="rotate(12.432 901.483 356.696)"></rect>
      <rect width="49.024" height="49.024" x="865.834" y="360.201" style="fill:#fed734" transform="rotate(-17.579 890.28 384.621)"></rect>
      <rect width="49.024" height="49.024" x="688.108" y="257.766" style="fill:#fed734" transform="rotate(-11.902 712.552 282.217)"></rect>
      <rect width="49.024" height="49.024" x="701.38" y="286.241" style="fill:#c29b37"></rect>
      <rect width="49.024" height="49.024" x="684.023" y="325.855" style="fill:#fed734" transform="rotate(-11.902 708.478 350.3)"></rect>
      <g>
        <rect width="49.024" height="49.024" x="700.019" y="151.424" style="fill:#c29b37" transform="rotate(20.187 724.58 175.962)"></rect>
        <rect width="49.024" height="49.024" x="679.592" y="171.851" style="fill:#fed734"></rect>
      </g>
      <g>
        <rect width="49.024" height="49.024" x="424.225" y="322.361" style="fill:#c29b37" transform="rotate(20.187 448.764 346.909)"></rect>
        <rect width="49.024" height="49.024" x="403.798" y="342.788" style="fill:#fed734"></rect>
      </g>
      <rect width="49.024" height="49.024" x="843.599" y="246.711" style="fill:#fed734" transform="rotate(-11.902 868.025 271.156)"></rect>
    </g>
  </g>
  <g id="chair_back">
    <g>
      <path d="M1181.484 1043.526h-4.944c-4.315 0-7.813-3.498-7.813-7.813v-19.985c0-4.315 3.498-7.813 7.813-7.813h4.944c4.315 0 7.813 3.498 7.813 7.813v19.985C1189.297 1040.027 1185.799 1043.526 1181.484 1043.526zM1091.682 1043.526h-4.944c-4.315 0-7.813-3.498-7.813-7.813v-19.985c0-4.315 3.498-7.813 7.813-7.813h4.944c4.315 0 7.813 3.498 7.813 7.813v19.985C1099.495 1040.027 1095.997 1043.526 1091.682 1043.526z" style="fill:#354171"></path>
      <g>
        <g>
          <g>
            <rect width="11.289" height="147.892" x="1128.223" y="829.695" style="fill:#37383b"></rect>
            <path d="M1133.868,966.908c19.249,0,34.853,9.172,34.853,20.487h-69.706
						C1099.014,976.08,1114.619,966.908,1133.868,966.908z" style="fill:#37383b"></path>
            <g>
              <path d="M1074.777,1028.939c1.661,0,3.006-1.346,3.006-3.006v-19.08
							c0-8.688,9.266-15.756,20.653-15.756h70.863c11.388,0,20.653,7.068,20.653,15.756v18.243c0,1.66,1.345,3.006,3.006,3.006
							c1.661,0,3.006-1.346,3.006-3.006v-18.243c0-12.003-11.962-21.768-26.665-21.768h-70.863
							c-14.703,0-26.665,9.765-26.665,21.768v19.08C1071.771,1027.593,1073.116,1028.939,1074.777,1028.939z" style="fill:#242729"></path>
            </g>
          </g>
          <ellipse cx="1131.986" cy="826.62" rx="41.723" ry="24.525" style="fill:#242729"></ellipse>
        </g>
        <g>
          <path d="M1045.061 816.281 1045.061 816.281c-2.441 0-4.419-1.979-4.419-4.419V704.923c0-2.44 1.978-4.419 4.419-4.419l0 0c2.441 0 4.419 1.979 4.419 4.419v106.939C1049.48 814.303 1047.502 816.281 1045.061 816.281zM1228.89 816.281 1228.89 816.281c-2.441 0-4.419-1.979-4.419-4.419V704.923c0-2.44 1.978-4.419 4.419-4.419l0 0c2.441 0 4.419 1.979 4.419 4.419v106.939C1233.309 814.303 1231.331 816.281 1228.89 816.281z"></path>
          <path d="M1047.531,807.623c0.249-14.749,28.696-24.223,89.945-24.013
					c61.248-0.213,89.697,9.264,89.945,24.013H1047.531z" style="fill:#00b4d6"></path>
          <path d="M1048.592,828.769c-3.385-8.451-3.385-17.945,0-26.396c50.537,0.001,128.292,0.001,178.829,0
					c3.385,8.451,3.385,17.945,0,26.396C1176.884,828.77,1099.129,828.77,1048.592,828.769z" style="fill:#37383b"></path>
          <path d="M1190.948,762.945h-103.532c-14.683,0-26.454-12.148-25.991-26.824l6.704-212.497
					c0.443-14.035,11.948-25.184,25.991-25.184h86.967c13.893,0,25.332,10.921,25.976,24.798l9.862,212.497
					C1217.612,750.554,1205.783,762.945,1190.948,762.945z" style="fill:#00b4d6"></path>
        </g>
      </g>
    </g>
    <g>
      <path d="M763.365 1025.916h-4.944c-4.315 0-7.813-3.498-7.813-7.813v-19.985c0-4.315 3.498-7.813 7.813-7.813h4.944c4.315 0 7.813 3.498 7.813 7.813v19.985C771.178 1022.417 767.68 1025.916 763.365 1025.916zM673.563 1025.916h-4.944c-4.315 0-7.813-3.498-7.813-7.813v-19.985c0-4.315 3.498-7.813 7.813-7.813h4.944c4.315 0 7.813 3.498 7.813 7.813v19.985C681.376 1022.417 677.878 1025.916 673.563 1025.916z" style="fill:#354171"></path>
      <g>
        <g>
          <g>
            <rect width="11.289" height="147.892" x="710.104" y="812.085" style="fill:#37383b"></rect>
            <path d="M715.748,949.297c19.249,0,34.853,9.172,34.853,20.487h-69.706
						C680.895,958.47,696.499,949.297,715.748,949.297z" style="fill:#37383b"></path>
            <g>
              <path d="M656.657,1011.329c1.66,0,3.006-1.346,3.006-3.006v-19.08c0-8.688,9.265-15.756,20.653-15.756
							h70.863c11.388,0,20.653,7.068,20.653,15.756v18.243c0,1.66,1.346,3.006,3.006,3.006c1.661,0,3.006-1.346,3.006-3.006v-18.243
							c0-12.003-11.962-21.768-26.665-21.768h-70.863c-14.703,0-26.665,9.765-26.665,21.768v19.08
							C653.651,1009.983,654.997,1011.329,656.657,1011.329z" style="fill:#242729"></path>
            </g>
          </g>
          <ellipse cx="713.867" cy="809.01" rx="41.723" ry="24.525" style="fill:#242729"></ellipse>
        </g>
        <g>
          <path d="M626.942 798.671 626.942 798.671c-2.44 0-4.419-1.978-4.419-4.419V687.313c0-2.44 1.979-4.419 4.419-4.419l0 0c2.44 0 4.419 1.978 4.419 4.419v106.939C631.361 796.693 629.383 798.671 626.942 798.671zM810.771 798.671 810.771 798.671c-2.44 0-4.419-1.978-4.419-4.419V687.313c0-2.44 1.979-4.419 4.419-4.419l0 0c2.44 0 4.419 1.978 4.419 4.419v106.939C815.19 796.693 813.211 798.671 810.771 798.671z"></path>
          <path d="M629.412,790.013c0.249-14.749,28.696-24.223,89.945-24.013
					c61.248-0.213,89.697,9.264,89.945,24.013H629.412z" style="fill:#00b4d6"></path>
          <path d="M630.473,811.159c-3.385-8.451-3.385-17.945,0-26.396c50.537,0.001,128.292,0.001,178.829,0
					c3.385,8.451,3.385,17.945,0,26.396C758.764,811.16,681.01,811.16,630.473,811.159z" style="fill:#37383b"></path>
          <path d="M772.829,745.335H669.297c-14.683,0-26.454-12.148-25.991-26.824l6.704-212.497
					c0.443-14.035,11.949-25.184,25.991-25.184h86.967c13.893,0,25.332,10.92,25.976,24.798l9.862,212.497
					C799.493,732.944,787.664,745.335,772.829,745.335z" style="fill:#00b4d6"></path>
        </g>
      </g>
    </g>
  </g>
  <g id="businesswoman_center">
    <g>
      <g>
        <g>
          <path d="M823.336,1011.358c1.628,7.133,1.91,18.496,1.949,21.887c0.015,0.54,0.534,0.963,1.154,0.939
					l1.914-0.073c0.939-0.036,1.67-0.736,1.648-1.538l-0.339-12.05c0,0,8.172,2.637,15.504,11.469l19.651-0.752
					c0.769-0.03,1.237-0.769,0.846-1.327c-1.076-1.499-3.547-3.863-8.537-4.262c0,0-9.052-7.881-13.246-20.078
					c-4.194-12.197-4.085-46.898-4.085-46.898l-1.813-25.683l-21.473,0.654c0,0,12.618,55.726,8.764,62.347
					c-0.376,0.654-0.717,1.24-1.021,1.776C821.422,1002.745,821.6,1003.737,823.336,1011.358z" style="fill:#f9c0c7"></path>
          <path d="M823.336,1011.358c1.628,7.133,1.91,18.496,1.949,21.887c0.015,0.54,0.534,0.963,1.154,0.939
					l1.914-0.073c0.939-0.036,1.67-0.736,1.648-1.538l-0.339-12.05c0,0,8.172,2.637,15.504,11.469l19.651-0.752
					c0.769-0.03,1.237-0.769,0.846-1.327c-1.076-1.499-3.547-3.863-8.537-4.262l-10.116,0.387
					c-11.561-8.228-19.135-21.017-22.758-28.27C821.422,1002.745,821.6,1003.737,823.336,1011.358z" style="fill:#003f4c"></path>
        </g>
        <g>
          <path d="M842.394,974.108l-22.299-1.201l-3.588-22.237l-29.282-168.44l-0.044-0.232l-0.016-0.128
					c-0.062-0.325-0.114-0.649-0.153-0.973c-1.509-11.683,6.63-22.4,18.193-23.924c11.551-1.526,22.145,6.717,23.654,18.401
					c0.049,0.371,0.086,0.74,0.112,1.109c0.011,0.219,0.022,0.438,0.034,0.645l0.021,0.461l11.989,174.401L842.394,974.108z" style="fill:#063d58"></path>
          <polygon points="842.394 974.108 820.096 972.907 816.508 950.669 841.015 951.989" style="fill:#002c44"></polygon>
        </g>
        <g>
          <g>
            <g>
              <g>
                <path d="m828.94 783.279.022.649c-.007-.216-.011-.432-.025-.649L828.94 783.279zM787.074 788.132c-.007-.044-.013-.089-.02-.134l.023.133L787.074 788.132zM787.118 788.365c-.014-.078-.031-.154-.044-.233l.004 0L787.118 788.365z" style="fill:#00adc6"></path>
                <path d="M828.99,784.378c0.12,10.801-7.867,20.168-18.702,21.418
								c-11.128,1.293-21.223-6.422-23.157-17.43l-0.033-0.109l-0.033-0.119l-0.011-0.141l-20.136-115.557l-4.988-28.666
								l-3.466-19.951l-2.369-13.605c-0.022-0.142-0.044-0.261-0.044-0.413c-0.032-0.26-0.054-0.51-0.065-0.782
								c-1.358-17.55,11.693-33.231,29.666-35.328c18.3-2.108,34.828,10.66,36.99,28.58c0.011,0.076,0.011,0.152,0.022,0.217
								l0.13,3.771l0.489,14.105l0.38,10.714l1.337,38.382l3.956,113.818v0.011c-0.011,0.065-0.011,0.13-0.011,0.195
								c0,0.141,0.011,0.293,0.022,0.446L828.99,784.378z" style="fill:#063d58"></path>
              </g>
            </g>
          </g>
          <path d="M823.285,620.365c-9.248,1.293-20.332,2.369-33.611,3.064
					c-11.258,0.587-21.668,0.674-31.209,0.392l-2.369-13.605c-0.022-0.142-0.044-0.261-0.044-0.413
					c-0.032-0.26-0.054-0.51-0.065-0.782c-1.358-17.55,11.693-33.231,29.666-35.328c18.3-2.108,34.828,10.66,36.99,28.58
					c0.011,0.076,0.011,0.152,0.022,0.217l0.13,3.771L823.285,620.365z" style="fill:#002c44"></path>
        </g>
        <g>
          <path d="M728.373,1000.147c0,0,5.875,29.297-12.542,44.311c-2.451,1.998-6.476,4.82-7.734,0.217
					c-0.955-3.493-2.714-18.097,6.656-42.646C721.828,1002.344,728.373,1000.147,728.373,1000.147z" style="fill:#003f4c"></path>
          <path d="M723.962,996.298c0.006,0,0.011,0.001,0.011,0.001l0.006-0.002
					C723.98,996.298,723.968,996.298,723.962,996.298z" style="fill:#fff"></path>
          <path d="M731.533,950.551c-0.543,5.433-1.282,15.072-2.054,24.657c-1.13,13.974-0.69,13.13-1.234,28.943
					c-0.127,3.686-3.525,11.419-7.366,15.061c-4.525,4.291-5.836,4.887-6.364,2.754c-0.854-3.454-1.718-15.763-0.239-25.915
					c0.105-0.72,0.282-9.704,0.369-19.571c0.087-10.138,0.087-21.223-0.13-25.189L731.533,950.551z" style="fill:#f9c0c7"></path>
        </g>
        <g>
          <path d="M748.678,782.306c-0.008,0.318-0.026,0.647-0.057,0.965l-0.01,0.136l-0.02,0.227l-12.944,161.415
					l-1.64,22.329c-4.266-0.131-17.769,0.313-20.764,0.213c0,0-0.295-8.605-0.752-22.266c-1.766-52.208-4.522-164.405-4.503-164.689
					c0.361-11.652,6.932-20.09,20.266-20.09C739.9,760.546,749.038,770.654,748.678,782.306z" style="fill:#063d58"></path>
          <path d="M735.647,945.049l-1.64,22.329c-4.266-0.131-17.769,0.313-20.764,0.213
					c0,0-0.295-8.605-0.752-22.266L735.647,945.049z" style="fill:#002c44"></path>
        </g>
        <g>
          <g>
            <g>
              <g>
                <path d="M748.825 779.198c.004-.044.006-.089.01-.133l-.014.133L748.825 779.198zM748.797 779.431c.008-.078.02-.155.028-.233l-.004 0L748.797 779.431z" style="fill:#00adc6"></path>
                <path d="M767.202,601.544l-1.641,15.029v0.043l-0.782,7.172l-0.315,2.901l-3.988,39.827v0.054
								l-11.682,112.482l-0.011,0.142v0.239c-1.174,10.975-10.063,19.332-21.245,18.854c-10.91-0.468-20.049-9.15-19.582-19.767
								l-0.022,0.38c0-0.228-4.564-104.658-4.564-104.658l0.011,0.022l-1.75-43.456l-0.315-7.737l-0.12-3.053l-0.391-9.498
								l-0.478-11.877c0.782-17.93,16.354-31.808,34.85-31.003C753.662,568.433,767.974,583.614,767.202,601.544z" style="fill:#063d58"></path>
              </g>
            </g>
          </g>
          <path d="M767.202,601.544l-1.641,15.029v0.043l-0.782,7.172c-26.276,0.815-47.52-1.13-63.581-3.771
					l-0.391-9.498l-0.478-11.877c0.782-17.93,16.354-31.808,34.85-31.003C753.662,568.433,767.974,583.614,767.202,601.544z" style="fill:#002c44"></path>
        </g>
      </g>
      <path d="M793.507,368.754c3.511-0.596,5.604-3.58,6.576-7.006c4.635-16.345,12.491-90.877-14.295-106.389
			c-22.773-13.188-66.615-3.703-69.515,31.76c-1.515,18.53,1.57,50.751,2.965,63.734c0.374,3.478,3.01,18.964,6.46,19.533
			C736.047,372.091,759.768,374.479,793.507,368.754z" style="fill:#1f191a"></path>
      <g>
        <path d="M841.814,615.063c0,0-1.435,13.856-4.594,21.372c-3.159,7.516-10.954,22.604-8.455,23.493
				c2.499,0.889,6.868-13.574,9.5-9.24c2.632,4.334-0.578,36.003,1.864,35.415s11.411-10.792,10.424-23.569
				c-0.988-12.777-0.254-32.027,1.07-36.022c1.324-3.994,1.664-7.951,1.664-7.951L841.814,615.063z" style="fill:#f9c0c7"></path>
        <polygon points="744.32 600.341 781.015 600.341 760.579 532.041" style="fill:#0091ac"></polygon>
        <g>
          <path d="M719.505,741.482l-41.962-10.038c-3.249-0.777-5.54-3.681-5.54-7.022v-74.29
					c0-4.667,4.361-8.108,8.9-7.022l41.962,10.038c3.249,0.777,5.54,3.682,5.54,7.022v74.29
					C728.405,739.126,724.044,742.567,719.505,741.482z" style="fill:#6f625a"></path>
          <path d="M716.711,743.422l-41.962-10.038c-3.249-0.777-5.54-3.682-5.54-7.022v-74.29
					c0-4.667,4.361-8.108,8.9-7.022l41.962,10.038c3.249,0.777,5.54,3.681,5.54,7.022v74.29
					C725.61,741.067,721.249,744.508,716.711,743.422z" style="fill:#483f3a"></path>
        </g>
        <g>
          <polygon points="835.019 625.507 834.44 634.263 855.287 634.766 855.764 621.972" style="fill:#f0d7e8"></polygon>
          <path d="M850.099,507.045c-7.776-0.576-14.624,4.579-15.631,11.764l-0.596,108.159l22.513,0.424
					l7.438-106.35C863.921,513.766,857.898,507.623,850.099,507.045z" style="fill:#007c91"></path>
        </g>
        <g>
          <path d="M850.973,536.167c-7.821,1.237-14.714-4.177-16.414-11.914
					c-2.94-13.482-7.865-38.599-12.321-61.922c-5.321-27.759-10.012-52.973-10.012-52.973c-2.003-12.616,1.426-26.806,14.042-28.809
					c12.627-2.001,24.482,6.605,26.485,19.222c0,0,1.975,24.929,4.284,52.919c2.083,25.165,4.431,52.82,5.85,67.064
					C863.675,527.639,858.796,534.919,850.973,536.167z" style="fill:#007c91"></path>
        </g>
        <g>
          <path d="M680.142,531.131c7.821,1.237,14.714-4.177,16.414-11.914
					c2.94-13.482,7.864-38.599,12.321-61.922c5.321-27.759,10.011-52.973,10.011-52.973c2.003-12.617-1.426-26.806-14.042-28.809
					c-12.627-2.001-24.482,6.605-26.485,19.222c0,0-1.975,24.929-4.284,52.919c-2.083,25.165-4.431,52.82-5.85,67.064
					C667.44,522.603,672.319,529.883,680.142,531.131z" style="fill:#007c91"></path>
        </g>
        <g>
          <g>
            <path d="M761.961,552.633l11.577,53.729c29.779-1.078,48.226-8.11,48.226-8.11l-1.424-24.048
						l-1.282-21.571l-11.185-72.294l10.853-105.116c0,0-27.819-8.039-37.577-10.387c-1.543-0.38-1.841-1.489-3.265-0.783
						c-16.409,8.063-25.31,4.605-29.754,1.269c-1.673-1.26-3.874-2.03-5.868-1.401c-17.817,5.616-42.869,14.702-42.869,14.702
						l11.66,116.752l-4.14,64.081l-0.663,10.106l-1.804,27.96c16.093,5.619,35.413,7.364,53.689,7.273L761.961,552.633z" style="fill:#e1f4fd"></path>
            <path d="M734.424,366.456l26.704,76.833l26.149-78.453C752.316,356.485,734.424,366.456,734.424,366.456
						z" style="fill:#f8abad"></path>
          </g>
          <path d="M728.405,480.135c0,0,43.001-10.423,66.866-8.546c-38.438,15.114-56.568,18.767-56.568,18.767
					L728.405,480.135z" style="fill:#7ed3f7"></path>
        </g>
        <g>
          <g>
            <g>
              <path d="M838.292,387.654c-1.858,7.857-3.912,20.375-4.379,29.394
							c-0.837,15.898-4.064,25.319-7.824,36.219c-3.304,9.595-6.9,16.213-7.715,25.156c-1.88,20.462-0.576,20.94-0.576,20.94
							l1.565,20.408l2.945,31.046c0.326,4.14,4.053,35.361,6.075,52.172c0.891,7.4-5.738,13.464-13.04,11.953
							c-5.086-1.054-10.095-5.466-14.149-13.301c-8.193-15.8-15.768-66.918-15.768-66.918s-3.76-18.343-6.248-41.033
							c-1.858-16.93-3.01-36.284-1.369-52.237c3.097-30.112,14.148-75.447,14.148-75.447c3.195-0.663,3.195-0.663,6.379,0.228
							c0,0,3.999,1.238,9.519,3.064c7.9,2.608,18.908,6.411,25.743,9.465C837.032,380.297,839.825,381.199,838.292,387.654z" style="fill:#00a5cf"></path>
            </g>
            <path d="M807.855,369.3c-0.337,22.972-5.207,83.965-28.677,124.392
						c-1.858-16.93-3.01-36.284-1.369-52.237c3.097-30.112,14.148-75.447,14.148-75.447c3.195-0.663,3.195-0.663,6.379,0.228
						C798.335,366.236,802.334,367.474,807.855,369.3z" style="fill:#0091ac"></path>
          </g>
          <g>
            <g>
              <path d="M685.28,387.654c1.858,7.857,3.912,20.375,4.379,29.394
							c0.837,15.898,4.064,25.319,7.824,36.219c3.303,9.595,6.9,16.213,7.715,25.156c1.88,20.462,0.576,20.94,0.576,20.94
							l-1.565,20.408l-2.945,31.046c-0.326,4.14-4.053,35.361-6.075,52.172c-0.891,7.4,5.738,13.464,13.04,11.953
							c5.086-1.054,10.095-5.466,14.148-13.301c8.194-15.8,15.768-66.918,15.768-66.918s3.76-18.343,6.248-41.033
							c1.858-16.93,3.01-36.284,1.369-52.237c-3.097-30.112-14.148-75.447-14.148-75.447c-3.195-0.663-3.195-0.663-6.379,0.228
							c0,0-3.999,1.238-9.519,3.064c-7.9,2.608-18.908,6.411-25.743,9.465C686.54,380.297,683.747,381.199,685.28,387.654z" style="fill:#00a5cf"></path>
            </g>
            <path d="M715.717,369.3c0.337,22.972,5.207,83.965,28.677,124.392c1.858-16.93,3.01-36.284,1.369-52.237
						c-3.097-30.112-11.891-77.757-11.891-77.757s-5.452,1.647-8.636,2.538C725.237,366.236,721.238,367.474,715.717,369.3z" style="fill:#0091ac"></path>
          </g>
        </g>
        <g>
          <path d="m761.128 443.289 15.892-23.553h24.794c1.783 0 3.103-1.659 2.701-3.397l-11.752-50.85c-.485-2.101-2.254-3.659-4.399-3.877l-1.086-.11L761.128 443.289zM761.128 443.289l-24.209-81.313-2.035.374c-1.47.27-2.638 1.389-2.972 2.846l-11.547 50.441c-.484 2.112 1.122 4.125 3.289 4.123l23.603-.024L761.128 443.289z" style="fill:#fff"></path>
        </g>
        <path d="M691.844,646.803c0,0,0.671-0.802,5.564-0.057c-1.991-4.647-4.523-9.904-6.021-13.466
				c-3.159-7.516-4.594-21.372-4.594-21.372l-11.472,3.499c0,0,0.34,3.956,1.664,7.951c1.324,3.994-0.432,23.295,1.07,36.022
				c1.191,10.094,9.562,21.911,12.073,21.927c1.373,0.008-2.417-29.439,0.215-33.773
				C690.797,646.784,691.304,646.606,691.844,646.803L691.844,646.803z" style="fill:#f9c0c7"></path>
        <g>
          <polygon points="693.221 619.196 693.538 627.965 672.686 627.843 672.592 615.04" style="fill:#f0d7e8"></polygon>
          <path d="M681.7,500.335c7.789-0.343,14.48,5.015,15.271,12.228l-2.647,108.128l-22.515-0.251
					l-4.247-106.525C667.683,506.638,673.887,500.679,681.7,500.335z" style="fill:#007c91"></path>
        </g>
      </g>
      <g>
        <g>
          <g>
            <path d="M777.8,330.981v31.336c0,9.005-7.296,16.301-16.301,16.301c-9.005,0-16.301-7.296-16.301-16.301
						v-31.336c0-4.995,2.235-9.465,5.768-12.456c2.843-2.399,6.524-3.845,10.533-3.845c4.108,0,7.871,1.528,10.73,4.026
						c0.279,0.23,0.542,0.477,0.789,0.739c1.857,1.84,3.254,4.125,4.059,6.672C777.554,327.661,777.8,329.288,777.8,330.981z" style="fill:#f8abad"></path>
          </g>
        </g>
        <path d="M777.8 330.981v16.284c-7.017 3.237-17.714 5.521-32.602 1.956v-18.24c0-4.995 2.235-9.465 5.768-12.456l21.263.181c.279.23.542.477.789.739 1.857 1.84 3.254 4.125 4.059 6.672C777.554 327.661 777.8 329.288 777.8 330.981zM789.154 299.89c-.54-.025 5.709-2.624 8.072.909 2.363 3.533-1.566 17.057-8.918 16.902C787.083 309.712 789.154 299.89 789.154 299.89zM735.591 304.892c0 0-5.054-3.836-8.768 2.485-3.714 6.321 5.166 15.456 11.877 13.471 6.711-1.986.564-12.362.564-12.362L735.591 304.892z" style="fill:#f5979b"></path>
        <path d="M788.262,286.035c0,0,1.257,6.555,1.411,15.079c0.277,15.355-5.526,40.096-26.229,40.453
				c-31.026,0.535-30.491-31.293-30.274-51.814c0,0,0.297-11.28,2.776-13.331c0,0-0.916,9.153,1.046,13.57
				c0,0,36.393,0.578,47.369-2.888c-0.187-7.761-1.446-11.785-1.446-11.785S787.49,280.636,788.262,286.035z" style="fill:#f8abad"></path>
        <path d="M757.407,317.826l10.227-0.378c0,0-1.963,2.627-5.218,2.479
				C759.444,319.79,757.407,317.826,757.407,317.826z" style="fill:#cb8084"></path>
        <path d="M752.689,307.791c-0.085-1.975-1.709-3.552-3.705-3.552s-3.62,1.577-3.705,3.552H752.689z" style="fill:#003f4c"></path>
        <path d="M750.185,323.776c0.265,3.358,5.328,6.038,11.553,6.038s11.287-2.68,11.553-6.038H750.185z" style="fill:#fff"></path>
        <path d="M758.063,331.768c0.102,1.284,2.037,2.309,4.417,2.309c2.38,0,4.315-1.025,4.417-2.309H758.063z" style="fill:#f5979b"></path>
        <path d="M778.407 307.791c-.085-1.975-1.709-3.552-3.705-3.552-1.996 0-3.62 1.577-3.705 3.552H778.407zM772.741 296.603c0 0 5.15-3.019 8.703-3.552 3.552-.533-3.204-2.919-7.108-.66C770.432 294.649 770.077 297.135 772.741 296.603zM750.554 296.767c0 0-5.592-2.09-9.183-2.005-3.591.085 2.655-3.426 6.889-1.871C752.493 294.446 753.27 296.835 750.554 296.767z" style="fill:#003f4c"></path>
        <path d="M791.599,299.454c-0.385-0.548-1.156-0.688-1.719-0.312l-3.407,2.276
				c-0.483-1.496-1.255-2.887-2.307-4.089c-2.019-2.307-4.79-3.651-7.803-3.784c-3.012-0.143-5.898,0.958-8.125,3.077
				c-1.264,1.203-2.216,2.66-2.836,4.263c-1.595-0.493-4.734-1.112-7.747,0.255c-1.586-4.082-5.354-7.048-9.879-7.249
				c-0.163-0.008-0.325-0.011-0.487-0.011c-5.57,0-10.298,4.252-11.151,9.879l-3.073-0.729c-0.665-0.158-1.332,0.239-1.494,0.885
				c-0.161,0.646,0.245,1.297,0.909,1.454l3.439,0.815c0.032,0.008,0.063,0.006,0.094,0.011c0.303,5.874,4.874,10.664,10.674,10.922
				c0.163,0.008,0.325,0.011,0.487,0.011c5.975,0,10.986-4.891,11.278-11.126c0.04-0.853-0.017-1.687-0.149-2.496
				c2.44-1.307,5.215-0.685,6.456-0.289c-0.079,0.474-0.141,0.953-0.164,1.441c-0.145,3.087,0.876,6.045,2.874,8.328
				c2.019,2.307,4.79,3.651,7.803,3.784c0.165,0.008,0.33,0.011,0.495,0.011c2.833,0,5.526-1.086,7.63-3.088
				c2.203-2.096,3.496-4.952,3.641-8.038c0.026-0.561,0.001-1.115-0.049-1.664l4.288-2.864
				C791.842,300.753,791.985,300.003,791.599,299.454z M746.801,314.714c-4.825-0.215-8.557-4.52-8.319-9.598
				c0.231-4.945,4.145-8.828,8.808-8.828c0.124,0,0.249,0.002,0.374,0.008c4.825,0.215,8.557,4.52,8.319,9.598
				C755.745,310.97,751.615,314.919,746.801,314.714z M784.569,305.547c-0.115,2.475-1.145,4.757-2.898,6.426
				c-1.731,1.647-3.967,2.494-6.283,2.394c-2.321-0.103-4.464-1.148-6.033-2.941c-1.59-1.817-2.401-4.181-2.286-6.656
				c0.116-2.475,1.145-4.757,2.899-6.426c1.636-1.558,3.72-2.402,5.905-2.402c0.126,0,0.252,0.002,0.378,0.008
				c2.321,0.104,4.464,1.148,6.033,2.941C783.873,300.708,784.685,303.072,784.569,305.547z" style="fill:#bc303e"></path>
      </g>
    </g>
  </g>
  <g id="businessman_right_1_">
    <g>
      <g>
        <g>
          <g>
            <g>
              <path d="M1081.48,354.258c0,0-23.393,5.915-24.164,5.915s-23.134-8.999-23.134-8.999l1.883-23.572
							l1.201-14.992l37.785-0.771l3.62,23.896L1081.48,354.258z" style="fill:#f8abad"></path>
              <path d="M1078.671,335.735c-4.911,1.615-11.25,3.101-18.012,3.101c-10.934,0-20.357-7.33-24.594-11.234
							l1.201-14.992l37.785-0.771L1078.671,335.735z" style="fill:#f5979b"></path>
            </g>
            <g>
              <path d="M1082.33 284.365c0 0 6.89-3.215 10.59-1.072 3.7 2.143 2.092 22.685-10.054 24.292C1070.719 309.194 1082.33 284.365 1082.33 284.365zM1030.781 287.223c0 0-6.609-5.537-12.861-1.072-6.252 4.465 5.374 21.276 9.921 22.784 4.547 1.508 4.547 1.508 4.547 1.508L1030.781 287.223z" style="fill:#f5979b"></path>
              <path d="M1078.18,303.152c0,0,13.277-32.541,7.605-49.056s-15.303-26.705-34.207-15.303
							c-14.874,8.972-23.405-0.9-30.606,12.603c-5.296,9.931,4.803,33.885,9.602,46.809c1.326,3.57,2.049,5.603,5.714,4.569
							L1078.18,303.152z" style="fill:#eb6724"></path>
              <path d="M1080.275,304.208c0.828-10.055,1.207-30.415-3.483-40.206
							c-3.403-7.105-15.361-11.074-24.471-9.824c-4.183,0.574-8.743,2.316-12.451,4.032c-4.617,2.137-7.628,6.684-7.846,11.767
							c-0.486,11.347-1.356,27.404-0.458,35.95c0.797,7.573,9.245,25.043,25.376,24.839
							C1063.112,330.688,1078.995,319.74,1080.275,304.208z" style="fill:#f8abad"></path>
              <path d="M1061.843,303.405c-4.984,2.462-9.968,1.259-9.968,1.259c0.167-8.61,1.55-15.91,2.484-19.828
							c0.333-1.397,2.267-1.527,2.79-0.19L1061.843,303.405z" style="fill:#f5979b"></path>
            </g>
          </g>
          <path d="M1037.559 281.084c2.466-.301 5.396-.236 8.247.847 1.154.438.796 2.31-.414 2.189l-7.738-.774C1036.402 283.221 1036.317 281.236 1037.559 281.084zM1065.945 281.323c2.197-1.116 5.188-2.123 8.257-1.428.872.197.867 1.44-.009 1.617-2.816.569-5.604 1.031-7.749 1.359C1065.52 283.012 1065.112 281.746 1065.945 281.323z" style="fill:#423a3c"></path>
        </g>
        <circle cx="1042.649" cy="290.132" r="2.45" style="fill:#006eb7"></circle>
        <circle cx="1069.783" cy="290.132" r="2.45" style="fill:#006eb7"></circle>
        <path d="M1046.529,312.185l21.644-1.021c0,0-4.084,5.105-11.639,4.696
				C1048.979,315.452,1046.529,312.185,1046.529,312.185z" style="fill:#fff"></path>
        <path d="M1074.083,257.397c0,0-8.702-3.901-13.203,0.6c-4.501,4.501-12.002,11.702-26.405,9.302
				c-14.403-2.401-14.403-2.401-14.403-2.401l15.003-16.503l23.105-1.8L1074.083,257.397z" style="fill:#f3722f"></path>
      </g>
      <g>
        <g>
          <g>
            <path d="M1184.026,642.669c0,0,4.459,11.147-0.743,11.147c-5.202,0-22.666-34.927-22.666-34.927
						l5.202-4.459L1184.026,642.669z" style="fill:#cb8084"></path>
            <path d="M1158.432,588.905l2.61,10.818c0,0-7.318,5.017-6.19,13.738
						c1.128,8.721-5.428,18.426-5.428,18.426s0.491,2.924,3.833,0.76c3.342-2.164,6.312-11.621,9.88-12.086
						c3.568-0.465,13.443,20.789,23.141,30.341c9.698,9.552,14.028,9.15,13.004,5.819c-1.024-3.331-18.983-31.334-23.36-45.65
						c-2.725-8.911-3.812-19.535-4.244-26.288c-0.229-3.58-3.543-6.143-7.066-5.467l0,0
						C1160.192,580.162,1157.377,584.531,1158.432,588.905z" style="fill:#f8abad"></path>
          </g>
          <path d="M1160.246,479.549l-0.372-1.115c0,0-9.28-50.723-12.791-69.473
					c-2.78-14.845-3.892-27.589-7.849-36.771c0,0-4.971-13.381-18.339-14.509c-6.66-0.562-15.117,5.832-15.106,15.573l-5.301,37.224
					c-2.273,6.508,1.457,24.453,4.522,30.627l18.624,47.845l0.005-0.002c1.905,5.151,5.791,9.565,11.198,11.99
					c10.681,4.79,20.344,5.949,25.133-4.732C1162.437,490.709,1160.618,486.238,1160.246,479.549z" style="fill:#6771a7"></path>
          <path d="M1176.128,590.072c-5.922,3.938-20.866,5.235-20.866,5.235l-28.456-91.951
					c-3.039-12.279-1.079-20.71,8.227-25.472c9.306-4.762,20.71-1.079,25.472,8.227c0.404,0.789,0.725,1.597,1.009,2.41l0.187-0.074
					c0,0,0.066,0.431,0.178,1.17c0.421,1.494,0.631,3.011,0.677,4.522C1164.877,509.809,1175.014,565.191,1176.128,590.072z" style="fill:#6771a7"></path>
        </g>
        <path d="M998.615,360.586c0,0-6.085-4.344-14.274,8.348c-8.19,12.691-40.703,108.577-41.394,117.973
				c-0.692,9.396,13.835,15.999,24.212,11.423c10.377-4.576,39.084-84.28,39.084-84.28S1015.545,364.394,998.615,360.586z" style="fill:#6771a7"></path>
        <path d="M1088.351,356.46c0,0,19.798-2.303,28.245,2.802s12.389,183.062,10.137,184.751
				c-2.253,1.69-3.379,5.632-12.952,6.195c-9.574,0.563-112.068,3.942-112.068,3.942s-14.079-2.816-12.389-12.953
				c1.462-8.774,3.346-138.657,3.827-173.427c0.067-4.848,3.811-8.841,8.646-9.213
				C1018.798,357.249,1057.891,354.73,1088.351,356.46z" style="fill:#747fbd"></path>
        <g>
          <path d="M1059.972,540.438c-0.75,0-1.364-0.6-1.379-1.352l-3.129-155.437
					c-0.016-0.762,0.59-1.392,1.352-1.407c0.01-0.001,0.019-0.001,0.028-0.001c0.75,0,1.364,0.6,1.379,1.352l3.129,155.437
					c0.016,0.762-0.59,1.392-1.352,1.407C1059.99,540.438,1059.981,540.438,1059.972,540.438z" style="fill:#485899"></path>
        </g>
        <path d="M1083.975,419.75h-2.537c-0.935,0-1.694-0.758-1.694-1.694v-28.98
				c0-0.935,0.758-1.694,1.694-1.694h2.537c0.935,0,1.694,0.758,1.694,1.694v28.98C1085.668,418.992,1084.91,419.75,1083.975,419.75
				z" style="fill:#ef4060"></path>
        <path d="M1080.793,423.59l-2.487,0.501c-0.917,0.185-1.81-0.409-1.995-1.326l-5.722-28.409
				c-0.185-0.917,0.409-1.81,1.326-1.995l2.487-0.501c0.917-0.185,1.81,0.409,1.995,1.326l5.722,28.409
				C1082.304,422.512,1081.71,423.405,1080.793,423.59z" style="fill:#fff"></path>
        <path d="M1093.011,424.891h-4.627c-0.872,0-1.579-0.707-1.579-1.579v-37.327
				c0-0.872,0.707-1.579,1.579-1.579h4.627c0.872,0,1.579,0.707,1.579,1.579v37.327
				C1094.59,424.184,1093.883,424.891,1093.011,424.891z" style="fill:#3c4b83"></path>
        <path d="M1107.132,423.573l-3.237,0.468c-0.914,0.132-1.761-0.501-1.893-1.415l-5.063-35.007
				c-0.132-0.914,0.501-1.761,1.415-1.893l3.236-0.468c0.914-0.132,1.761,0.501,1.894,1.415l5.063,35.007
				C1108.679,422.593,1108.045,423.44,1107.132,423.573z" style="fill:#00232d"></path>
        <path d="M1111.584,419.75h-1.888c-0.696,0-1.26-0.564-1.26-1.26v-23.931c0-0.696,0.564-1.26,1.26-1.26
				h1.888c0.696,0,1.26,0.564,1.26,1.26v23.931C1112.845,419.186,1112.28,419.75,1111.584,419.75z" style="fill:#ef4060"></path>
        <path d="M1116.702,409.693l-45.051,2.067l0.964,46.429c0,0,25.763,10.471,44.913-1.515L1116.702,409.693z" style="fill:#6771a7"></path>
        <g>
          <polygon points="1056.843 359.232 1045.762 384.077 1022.495 357.186 1029.681 339.025" style="fill:#6771a7"></polygon>
          <polygon points="1085.624 341.84 1089.941 359.262 1068.781 384.077 1056.843 359.232" style="fill:#6771a7"></polygon>
        </g>
        <g>
          <path d="M1066.769,494.899h-74.178c-1.538,0-2.785-1.247-2.785-2.785V382.211
					c0-1.538,1.247-2.785,2.785-2.785h74.178c1.538,0,2.785,1.247,2.785,2.785v109.903
					C1069.555,493.651,1068.308,494.899,1066.769,494.899z" style="fill:#ea495f"></path>
          <g>
            <path d="M1026.677,439.672l-5.382-6.635c0,0,38.671-4.248,44.165-1.362
						c11.577,6.081,7.459,15.757,2.029,18.934s-14.192,3.358-21.054,0.191c-6.863-3.167-9.012-4.494-14.469-3.909
						c-5.457,0.585-12.237,2.868-12.237,2.868L1026.677,439.672z" style="fill:#f8abad"></path>
            <path d="M1032.089,432.924c-0.575-1.383-1.952-2.209-3.396-2.051l-5.33,0.585
						c0,0-3.685-0.164-4.635-0.062c-8.39,0.899-66.526,39.087-66.526,39.087v0c-4.997,3.015-8.08,8.866-7.399,15.22
						c0.926,8.643,8.451,14.923,16.807,14.028c3.45-0.37,6.491-1.917,8.821-4.201l53.616-37.879c2.151-1.52,3.678-3.81,4.29-6.432
						l0.369-1.583c0,0,1.735-0.418,3.54-0.961c0.835-0.251,1.419-1.047,1.427-1.947
						C1033.739,439.805,1032.999,435.114,1032.089,432.924z" style="fill:#747fbd"></path>
          </g>
        </g>
      </g>
      <g>
        <g>
          <path d="M1200.717,968.373c0,0,8.428,32.809,8.182,35.654c-0.821,9.497-19.677,7.763-19.677,7.763
					l-13.9-45.75L1200.717,968.373z" style="fill:#fff"></path>
          <g>
            <path d="M1188.687,1009.161L1188.687,1009.161c0,0,0.774,1.054-0.569,7.13
						c-1.343,6.076-3.774,18.229-2.906,22.569c0.868,4.34,0.868,4.34,0.868,4.34h18.877c1.295,0,2.366-1.007,2.447-2.299
						l0.249-3.978c0.066-1.059,1.091-1.787,2.113-1.502l21.182,5.922c0.64,0.195,1.305,0.294,1.974,0.294h23.413
						c2.333,0,4.224-1.891,4.224-4.224v-2.995c0-2.302-1.668-4.259-3.942-4.62c-8.67-1.374-29.434-5.55-39.679-15.194
						c-5.683-7.516-5.096-7.818-6.725-10.467c-0.701-1.14-3.322-3.472-5.307,0.694
						C1202.921,1009,1188.687,1009.161,1188.687,1009.161z" style="fill:#423a3c"></path>
            <g>
              <path d="M1214.899,1020.864c-0.134,0-0.268-0.047-0.378-0.141c-0.243-0.208-0.269-0.574-0.061-0.816
							l3.903-4.528c0.209-0.242,0.575-0.269,0.817-0.06c0.243,0.208,0.27,0.574,0.061,0.816l-3.903,4.528
							C1215.224,1020.796,1215.062,1020.864,1214.899,1020.864z" style="fill:#0d0406"></path>
            </g>
            <g>
              <path d="M1221.67,1025.377c-0.127,0-0.255-0.042-0.362-0.128c-0.25-0.2-0.29-0.564-0.089-0.814
							l3.993-4.979c0.2-0.249,0.565-0.289,0.814-0.09c0.25,0.2,0.29,0.564,0.09,0.814l-3.993,4.979
							C1222.007,1025.303,1221.839,1025.377,1221.67,1025.377z" style="fill:#0d0406"></path>
            </g>
            <g>
              <path d="M1229.656,1028.329c-0.119,0-0.238-0.036-0.341-0.112c-0.258-0.189-0.315-0.551-0.127-0.809
							l3.15-4.317c0.189-0.258,0.551-0.315,0.809-0.126c0.258,0.189,0.315,0.551,0.127,0.809l-3.15,4.317
							C1230.011,1028.247,1229.835,1028.329,1229.656,1028.329z" style="fill:#0d0406"></path>
            </g>
          </g>
        </g>
        <g>
          <path d="M1017.69,956.009v54.102c0,0,9.57-0.713,11.923,2.025c2.353,2.738,9.244,11.546,9.244,11.546
					l0.15-63.762L1017.69,956.009z" style="fill:#fff"></path>
          <path d="M1039.007,1018.786c0,0-4.401-1.369-7.969-6.649c-3.569-5.28-12.174-5.224-14.912-1.243
					c-1.927,2.803-0.56,5.862-2.856,8.928c-0.966,1.289-2.579,2.58-5.358,3.853c-9.387,4.302-13.103,7.04-14.863,13.494
					c-0.94,3.448-0.876,7.064-0.612,9.684c0.218,2.163,2.029,3.81,4.203,3.81h37.233c2.316,0,4.213-1.84,4.284-4.155
					L1039.007,1018.786z" style="fill:#423a3c"></path>
          <g>
            <path d="M1015.637,1029.925c-0.21,0-0.412-0.114-0.515-0.313c-2.619-5.058-8.581-4.606-8.83-4.582
						c-0.315,0.029-0.599-0.208-0.627-0.526c-0.028-0.319,0.207-0.599,0.525-0.628c0.07-0.005,6.981-0.552,9.961,5.203
						c0.147,0.284,0.036,0.633-0.248,0.781C1015.818,1029.904,1015.727,1029.925,1015.637,1029.925z" style="fill:#1f191a"></path>
          </g>
          <g>
            <path d="M1020.038,1025.014c-0.216,0-0.424-0.121-0.523-0.33c-2.138-4.475-6.039-4.296-6.208-4.285
						c-0.32,0.008-0.593-0.223-0.614-0.541c-0.02-0.318,0.219-0.593,0.538-0.614c0.195-0.013,4.841-0.265,7.329,4.942
						c0.138,0.289,0.016,0.634-0.273,0.772C1020.206,1024.996,1020.121,1025.014,1020.038,1025.014z" style="fill:#1f191a"></path>
          </g>
        </g>
        <g>
          <path d="M1210.344,989.882h-36.797l-45.631-156.138l-60.314-193.32c-0.518-1.678-2.343-2.005-3.525-1.25
					c-0.574,0.36-0.991,0.991-1.036,1.847l-16.095,345.376h-36.594c0,0-16.208-236.564-10.531-369.862
					c0.867-20.364,2.241-37.968,4.269-51.495l33.643-3.142l62.026-5.789l13.088-1.216l7.377,4.28l7.614,34.961v0.011
					L1210.344,989.882z" style="fill:#063d58"></path>
          <path d="M1037.733 561.898c-8.549 15.521-21.366 35.997-37.912 54.637.867-20.364 2.241-37.968 4.269-51.495L1037.733 561.898zM1127.838 594.133c-12.288-13.279-21.648-26.953-28.079-38.024l13.088-1.216 7.377 4.28L1127.838 594.133zM1127.916 833.744l-60.314-193.32c-.518-1.678-2.343-2.005-3.525-1.25l-.439-2.377 39.105-13.189C1102.743 623.609 1119.435 761.525 1127.916 833.744z" style="fill:#002c44"></path>
          <g>
            <path d="M1062.421,638.494l0.001-35.982c0-3.619,2.293-6.856,5.707-8.057l8.776-3.088
						c0.931-0.326,1.967-0.182,2.772,0.388c0.805,0.57,1.285,1.499,1.285,2.485v38L1062.421,638.494z M1077.919,593.627
						c-0.063,0-0.132,0.01-0.206,0.036l-8.776,3.088c-2.44,0.858-4.08,3.173-4.08,5.76l-0.002,32.591l13.671-4.611V594.24
						c0-0.274-0.161-0.43-0.258-0.498C1078.2,593.693,1078.078,593.627,1077.919,593.627z" style="fill:#002c44"></path>
          </g>
          <path d="M1051.189 998.374h-43.783c-1.049 0-1.9-.851-1.9-1.9V969.32c0-1.049.851-1.9 1.9-1.9h43.783c1.049 0 1.9.851 1.9 1.9v27.154C1053.089 997.523 1052.239 998.374 1051.189 998.374zM1214.98 999.699h-42.104c-2.039 0-3.784-1.461-4.142-3.468l-3.614-20.236c-.461-2.579 1.522-4.948 4.142-4.948h42.104c2.039 0 3.784 1.461 4.142 3.468l3.614 20.236C1219.583 997.331 1217.6 999.699 1214.98 999.699z" style="fill:#002c44"></path>
        </g>
        <g>
          <path d="M1003.338,551.328v17.009c0,1.228,1.048,2.194,2.271,2.094l112.684-9.164
					c1.091-0.089,1.931-1,1.931-2.094v-13.148c0-1.199-1.002-2.155-2.2-2.099l-112.684,5.303
					C1004.22,549.282,1003.338,550.206,1003.338,551.328z" style="fill:#0d0406"></path>
          <g>
            <path d="M1050.667,569.659c-1.591,0-3.091-0.6-4.249-1.707c-1.228-1.174-1.904-2.755-1.904-4.454v-8.287
						c0-3.398,2.764-6.162,6.162-6.162h25.927c1.686,0,3.317,0.702,4.476,1.927c1.159,1.224,1.77,2.892,1.677,4.575l-0.394,7.132
						c-0.175,3.172-2.701,5.672-5.875,5.816l-0.11-2.433l0.11,2.433l-25.533,1.154
						C1050.858,569.657,1050.762,569.659,1050.667,569.659z M1050.676,553.919c-0.712,0-1.292,0.579-1.292,1.292v8.287
						c0,0.48,0.25,0.791,0.399,0.933c0.149,0.142,0.467,0.369,0.952,0.357l25.533-1.154c0.665-0.03,1.194-0.554,1.231-1.218
						l0.394-7.133c0.027-0.484-0.208-0.809-0.351-0.96c-0.143-0.151-0.454-0.404-0.938-0.404H1050.676z" style="fill:#ebe70e"></path>
          </g>
        </g>
        <g>
          <path d="M1053.039,561.79h-11.787c-1.345,0-2.435-1.09-2.435-2.435s1.09-2.435,2.435-2.435h11.787
					c1.345,0,2.435,1.09,2.435,2.435S1054.384,561.79,1053.039,561.79z" style="fill:#919c19"></path>
        </g>
      </g>
    </g>
  </g>
  <g id="Woman_sitting">
    <g>
      <g>
        <g>
          <path d="M1385.916,723.512h-131.364c-2.538,0-4.596-2.058-4.596-4.596v-8.885h142.256v7.184
					C1392.213,720.693,1389.394,723.512,1385.916,723.512z" style="fill:#fff"></path>
          <rect width="142.257" height="4.432" x="1249.957" y="705.6" style="fill:#dbd7d5"></rect>
          <rect width="6.964" height="5.345" x="1261.156" y="713.855" style="fill:#8c8784"></rect>
          <rect width="6.964" height="5.345" x="1294.395" y="713.855" style="fill:#8c8784"></rect>
          <rect width="17.656" height="5.345" x="1273.502" y="713.855" style="fill:#8c8784"></rect>
        </g>
        <g>
          <path d="M1235.577,706.197l-20.547-128.753c-0.436-2.732,1.426-5.301,4.158-5.737l1.715-0.274
					l22.418,140.479l0.116-0.018C1239.694,712.491,1236.175,709.94,1235.577,706.197z" style="fill:#fff"></path>
          <rect width="142.256" height="4.432" x="1163.173" y="639.107" style="fill:#00adc6" transform="rotate(80.932 1234.31 641.336)"></rect>
        </g>
      </g>
      <path d="M1527.593,430.031l9.874-13.685c0,0,36.712-3.176,42.072,33.973
			c2.378,16.484,18.704,8.391,35.241,20.887c61.408,46.403,12.373,98.587-8.324,102.395c-58.846,10.826-67.138-32.927-67.138-32.927
			l0.801-10.888l-7.462-66.102L1527.593,430.031z" style="fill:#bf202e"></path>
      <g>
        <path d="M1418.874,534.461c0,0-0.202-1.508,3.628-7.102c3.829-5.594,7.054-8.801,6.449-10.926
				c-0.605-2.125-1.008-2.327-2.418-0.916c-1.411,1.411-3.829,3.057-3.829,3.057s4.232-8.001,4.031-16.411
				s-1.962-13.093-3.023-13.046c-1.007,0.045-1.209,1.855-0.604,5.059c0.604,3.204,0.604,12.196-2.217,13.242
				c0,0-1.055,0.598-0.84-0.743c0.215-1.341,1.717-6.01,1.234-10.517c-0.483-4.507-2.629-8.532-3.703-8.532
				c-1.073,0-2.522,0.483-2.468,2.361c0,0-2.361-0.376-2.576,0.536c-0.215,0.912,0.322,4.239,0.268,4.883
				c-0.054,0.644-1.18-0.429-1.771,0.322c-0.59,0.751-0.912,2.361-1.127,5.527c-0.215,3.166-1.234,7.673-3.005,11
				c-1.771,3.327-4.078,5.581-4.132,11.912c0,0-0.237,5.859,1.443,8.61c0,0,0.875,13.055,2.727,28.344l15.611-6.311
				C1420.125,543.009,1418.874,534.461,1418.874,534.461z" style="fill:#f5989d"></path>
        <g>
          <path d="M1410.349,526.588c0.208,0,0.399-0.138,0.458-0.347c0.567-2.003,3.34-3.91,8.241-5.665
					l0.247-0.089c1.438-0.523,3.157-1.456,3.23-1.496c0.23-0.125,0.316-0.415,0.19-0.646c-0.125-0.232-0.414-0.317-0.646-0.19
					c-0.017,0.009-1.73,0.938-3.1,1.436l-0.242,0.088c-1.942,0.695-7.849,2.811-8.837,6.302c-0.072,0.253,0.075,0.516,0.329,0.588
					C1410.262,526.582,1410.306,526.588,1410.349,526.588z" style="fill:#f15b6d"></path>
        </g>
        <g>
          <path d="M1414.547,506.953c0.174,0,0.343-0.096,0.426-0.263c0.428-0.859,1.726-4.359,2.114-8.043
					c0.396-3.758-1.378-8.12-1.455-8.304c-0.1-0.244-0.378-0.36-0.621-0.258c-0.243,0.1-0.359,0.378-0.258,0.621
					c0.017,0.043,1.758,4.327,1.388,7.842c-0.375,3.553-1.611,6.901-2.02,7.717c-0.117,0.236-0.022,0.521,0.213,0.639
					C1414.402,506.937,1414.475,506.953,1414.547,506.953z" style="fill:#f15b6d"></path>
        </g>
        <g>
          <path d="M1410.995,507.405c0.174,0,0.343-0.096,0.426-0.263c2.097-4.193,1.931-10.49,1.923-10.755
					c-0.008-0.263-0.233-0.478-0.49-0.462c-0.263,0.008-0.47,0.227-0.462,0.49c0.002,0.063,0.165,6.325-1.823,10.301
					c-0.117,0.235-0.022,0.521,0.213,0.639C1410.85,507.389,1410.923,507.405,1410.995,507.405z" style="fill:#f15b6d"></path>
        </g>
      </g>
      <g>
        <path d="M1406.699,551.346l14.745-2.871c0.971-0.189,1.92,0.414,2.161,1.373l2.018,8.018l-19.404,3.755
				l-0.887-8.427C1405.239,552.317,1405.833,551.515,1406.699,551.346z" style="fill:#ffd65c"></path>
        <path d="M1434.246,675.985c-8.213,1.464-16.146-3.718-18.106-11.827l-10.783-102.429l23.266-4.596
				l18.517,101.431C1448.142,666.872,1442.484,674.516,1434.246,675.985z" style="fill:#0f4673"></path>
      </g>
      <path d="M1422.091,673.068L1422.091,673.068c-7.284-7.049-8.793-17.548-3.444-23.959l86.575-103.752
			c8.752-10.489,26.204-9.607,38.121,1.926v0c11.883,11.5,13.368,28.856,3.248,37.971l-100.392,90.426
			C1439.976,681.285,1429.397,680.139,1422.091,673.068z" style="fill:#0f4673"></path>
      <path d="M1508.172 499.803c0 0-2.341 40.346 58.685 33.597 37.35-4.131-8.183-47.581-8.183-47.581L1508.172 499.803zM1551.23 474.425c0 0-2.802-41.17-13.763-58.078 0 0-24.541-6.995-39.647 7.229-15.106 14.224 1.13 39.415 1.13 39.415L1551.23 474.425z" style="fill:#bf202e"></path>
      <g>
        <path d="M1321.917,1016.271c0,0-5.966,18.464-16.619,25.814c-10.653,7.35-20.982,7.435-20.505,10.697
				c0.477,3.262,17.428,5.05,29.832,3.715c12.405-1.334,17.518-3.163,30.728-9.298c13.21-6.136,20.995-5.778,20.995-5.778
				l-4.935-23.549L1321.917,1016.271z" style="fill:#7f1933"></path>
        <path d="M1359.508,1021.937l-44.004-2.849c0,0-5.945-100.672-14.042-133.276c-8.096-32.605-28.124-92.968-25.141-113.236
				c2.983-20.268,8.534-29.342,35.161-28.771c26.627,0.572,77.457,5.419,77.457,5.419l-44.012,63.888l28.124,141.431
				L1359.508,1021.937z"></path>
      </g>
      <g>
        <path d="M1359.188,1018.414c0,0-22.5,34.138-36.578,39.436c-13.446,5.06,10.238,9.134,31.033,4.978
				c13.315-2.661,43.66-18.789,43.66-18.789l-2.771,10.934c-0.475,1.874,0.654,3.78,2.526,4.264l0.082,0.021
				c1.672,0.432,3.423-0.36,4.178-1.913c2.192-4.505,6.071-14.532,5.319-27.938
				C1405.6,1010.907,1359.188,1018.414,1359.188,1018.414z" style="fill:#c33b54"></path>
        <path d="M1493.052,740.741c0,0-163.986-3.892-178.427,14.191c-14.441,18.083,16.284,108.849,23.08,146.741
				c6.796,37.892,13.191,119,13.191,119s32.808,3.669,58.375,15.934c0,0-3.074-116.745-13.566-151.994
				c-10.491-35.249-28.194-77.282-17.115-82.103s155.372,38.127,193.164,13.568c37.792-24.558-52.743-72.275-52.743-72.275
				L1493.052,740.741z" style="fill:#37303c"></path>
      </g>
      <path d="M1579.239,543.193c-14.174-12.313-20.382-12.778-32.962-13.097
			c-12.183-0.309-27.635,0.397-38.637,11.351c-21.785,21.691-26.721,57.911-26.721,71.259c0,13.348,9.279,43.8,11.296,71.748
			c2.017,27.948-4.034,57.982-4.034,57.982s68.184,37.96,81.09,78.005c17.344-10.011,14.924-58.399,10.083-78.839
			c-4.841-20.44-14.927-42.131-12.506-52.977c2.421-10.846,23.089-78.372,22.995-97.587
			C1589.694,560.697,1588.372,551.126,1579.239,543.193z" style="fill:#455594"></path>
      <g>
        <g>
          <g>
            <rect width="11.525" height="150.984" x="1504.065" y="845.073" style="fill:#37383b"></rect>
            <circle cx="1570.154" cy="1045.415" r="18.019" style="fill:#354171" transform="rotate(-45.001 1570.15 1045.438)"></circle>
            <circle cx="1449.501" cy="1045.415" r="18.019" style="fill:#354171" transform="rotate(-45.001 1449.495 1045.437)"></circle>
            <path d="M1509.827,985.156c19.651,0,35.582,9.364,35.582,20.916h-71.164
						C1474.245,994.52,1490.176,985.156,1509.827,985.156z" style="fill:#37383b"></path>
            <g>
              <path d="M1449.501,1048.484c1.695,0,3.069-1.374,3.069-3.069v-19.479
							c0-8.869,9.459-16.085,21.085-16.085H1546c11.626,0,21.085,7.216,21.085,16.085v18.624c0,1.695,1.374,3.069,3.069,3.069
							c1.695,0,3.069-1.374,3.069-3.069v-18.624c0-12.254-12.212-22.223-27.223-22.223h-72.345c-15.01,0-27.223,9.969-27.223,22.223
							v19.479C1446.432,1047.11,1447.806,1048.484,1449.501,1048.484z" style="fill:#242729"></path>
            </g>
          </g>
          <ellipse cx="1507.906" cy="841.935" rx="42.595" ry="25.038" style="fill:#242729"></ellipse>
        </g>
        <g>
          <g>
            <path d="M1637.084,610.085c0,0,65.01,143.272-61.213,212.455l-3.508-9.323
						c0,0,94.141-32.873,51.802-163.926C1623.323,637.562,1637.084,610.085,1637.084,610.085z" style="fill:#8985ae"></path>
            <g>
              <path d="M1681.472,533.802l4.209-8.298c0,0-23.451-24.287-77.569,103.175
							c-49.331,116.189-40.25,150.615-35.658,157.455c4.592,6.84,21.226-69.788,21.226-69.788l40.889-103.833l27.059-52.227
							L1681.472,533.802z" style="fill:#00b4d6"></path>
              <g>
                <path d="M1578.066,793.07c2.701,0,5.099-1.996,5.597-4.841c0.282-1.62,29.214-163.054,105.445-254.612
								c2.052-2.465,1.784-6.182-0.601-8.304c-2.384-2.123-5.979-1.843-8.03,0.62c-40.986,49.226-68.177,117.385-83.769,165.895
								c-16.845,52.407-24.181,93.894-24.253,94.307c-0.559,3.2,1.497,6.262,4.592,6.84
								C1577.389,793.039,1577.729,793.07,1578.066,793.07z" style="fill:#41383a"></path>
              </g>
            </g>
          </g>
          <path d="M1421.685,822.54c0.218-15.057,25.073-24.73,78.588-24.515
					c53.515-0.217,78.372,9.457,78.589,24.515H1421.685z" style="fill:#00b4d6"></path>
          <path d="M1422.769,844.129c-3.456-8.628-3.456-18.321,0-26.948c51.594,0.001,103.188,0.001,154.781,0
					c3.456,8.628,3.456,18.321,0,26.948C1525.956,844.13,1474.362,844.13,1422.769,844.129z" style="fill:#37383b"></path>
          <path d="M1430.311,724.529l10.635-3.3l5.339-1.618c1.782-0.531,3.604-0.873,5.406-1.32l10.874-2.422
					c3.64-0.72,7.317-1.192,10.979-1.799c3.665-0.587,7.332-1.197,11.03-1.449l11.081-0.957l11.104-0.388
					c3.704-0.196,7.404-0.106,11.106-0.047c3.701,0.073,7.411,0.021,11.097,0.377c3.69,0.28,7.386,0.495,11.07,0.834l11.029,1.247
					c3.664,0.514,7.326,1.053,10.975,1.667c3.646,0.638,7.267,1.434,10.899,2.145c3.618,0.804,7.226,1.65,10.827,2.537
					c3.587,0.975,7.163,1.962,10.722,3.098c3.534,1.066,7.16,2.321,10.704,3.719c3.339,1.33,5.248,5.102,4.27,8.741
					c-1.04,3.869-4.916,6.134-8.657,5.059l-0.153-0.045c-3.306-0.949-6.598-1.835-10.043-2.671
					c-3.394-0.869-6.853-1.553-10.284-2.318c-3.445-0.722-6.902-1.407-10.363-2.051c-3.481-0.553-6.945-1.194-10.433-1.679
					l-10.464-1.456l-10.5-1.126c-3.505-0.302-7.019-0.482-10.528-0.73c-3.508-0.289-7.023-0.295-10.535-0.456
					c-3.513-0.129-7.029-0.295-10.54-0.178l-10.541,0.143l-10.512,0.689c-3.516,0.136-7.004,0.51-10.492,0.921
					c-3.486,0.415-6.998,0.694-10.471,1.218l-10.395,1.77c-1.732,0.302-3.49,0.5-5.205,0.885l-4.594,1.054
					c0.444,0.555,0.906,1.1,1.317,1.676c1.5,1.923,2.827,3.947,4.101,5.998c1.367,1.997,2.375,4.189,3.557,6.277
					c1.162,2.101,2.018,4.344,3.031,6.505c1.03,2.158,1.683,4.461,2.534,6.679c0.873,2.215,1.448,4.519,2.079,6.8
					c0.627,2.283,1.301,4.549,1.679,6.879l1.338,6.93l0.816,6.983l0.4,3.484l0.158,3.495l0.285,6.977
					c0.112,2.322-0.089,4.64-0.119,6.956l-0.215,6.938l-1.367,13.758c-0.155,1.524-1.43,2.695-2.933,2.638
					c-1.57-0.059-2.795-1.423-2.738-3.046l0.007-0.202l0.475-13.384l-0.221-6.666c-0.113-2.216-0.055-4.443-0.306-6.641
					l-0.692-6.589l-0.355-3.285l-0.588-3.241l-1.17-6.465l-1.65-6.318c-0.478-2.126-1.236-4.151-1.938-6.19
					c-0.706-2.038-1.352-4.097-2.272-6.028c-0.899-1.937-1.6-3.975-2.645-5.82c-1.029-1.849-1.899-3.796-3.039-5.557
					c-1.157-1.744-2.143-3.617-3.436-5.237c-1.209-1.69-2.448-3.342-3.811-4.862c-1.289-1.593-2.745-2.997-4.164-4.377
					c-0.733-0.649-1.447-1.363-2.192-1.923c-0.683-0.576-1.675-1.145-1.992-1.491
					C1422.774,729.825,1427.452,725.705,1430.311,724.529z"></path>
        </g>
      </g>
      <g>
        <g>
          <path d="M1486.194,470.692l-0.533-6.159c-0.497-5.742,3.772-10.819,9.514-11.316
					c5.742-0.497,10.818,3.772,11.314,9.514l0.533,6.159c0.497,5.742-3.771,10.818-9.513,11.314
					C1491.767,480.701,1486.69,476.434,1486.194,470.692z M1488.686,464.271l0.533,6.159c0.353,4.075,3.955,7.102,8.03,6.75
					c4.075-0.353,7.102-3.953,6.75-8.028l-0.533-6.159c-0.353-4.075-3.953-7.104-8.028-6.751
					C1491.362,456.594,1488.333,460.197,1488.686,464.271z" style="fill:#cf3653"></path>
        </g>
        <g>
          <g>
            <path d="M1487.615,475.421c0.085,0.107,0.188,0.193,0.309,0.278l7.325,3.568
						c0,0,0.008,0.095,0.021,0.245c0.224,2.148,1.884,17.597,5.094,21.731c7.688,9.964,28.516,4.759,28.516,4.759l-2.137,20.132
						l-0.004,4.968c0,0-13.205,3.796-15.825,9.69c-2.943,6.623,8.911,14.037,27.504,9.386c18.594-4.651,24.667-16.808,24.667-16.808
						l0,0c-4.893-2.61-8.07-7.583-8.38-13.12l-1.598-28.513c0,0,14.735-0.895,12.988-16.697c-1.748-15.802-14.419-8.64-14.419-8.64
						s-25.398-8.052-31.932-35.23c0,0-15.007-3.341-19.384,17.27c-2.974,13.986-4.759,18.837-12.511,24.851
						C1487.154,473.825,1487.106,474.799,1487.615,475.421z" style="fill:#f8b5ba"></path>
            <path d="M1513.213,465.366c0.171,1.978,1.914,3.444,3.892,3.273c1.979-0.171,3.444-1.914,3.273-3.892
						c-0.171-1.979-1.914-3.444-3.892-3.273C1514.507,461.645,1513.042,463.387,1513.213,465.366z" style="fill:#07467e"></path>
            <path d="M1500.94,485.994l17.111-6.419c0,0,0.441,9.493-7.804,11.899
						C1502.003,493.88,1500.94,485.994,1500.94,485.994z" style="fill:#fff"></path>
            <path d="M1550.881,491.375c0.153,1.766,1.709,3.074,3.475,2.922s3.074-1.709,2.922-3.475
						c-0.153-1.766-1.709-3.074-3.475-2.922C1552.036,488.052,1550.728,489.608,1550.881,491.375z" style="fill:#ffc526"></path>
            <path d="M1526.743,526.133c17.662-5.749,22.969-34.084,18.862-28.804
						c-4.431,5.707-16.724,8.672-16.724,8.672L1526.743,526.133z" style="fill:#f5989d"></path>
            <path d="M1487.615,475.421c0.085,0.107,0.188,0.193,0.309,0.278l7.325,3.568
						c0,0,0.008,0.095,0.021,0.245c3.998,0.053,5.972-1.524,5.972-1.524L1487.615,475.421z" style="fill:#f37b8a"></path>
          </g>
        </g>
        <g>
          <path d="M1501.711,467.61l-0.173-2.003c-0.613-7.083,4.65-13.343,11.733-13.956
					c7.083-0.613,13.343,4.65,13.956,11.733l0.173,2.003c0.613,7.083-4.65,13.343-11.733,13.956
					C1508.583,479.956,1502.324,474.693,1501.711,467.61z M1504.562,465.345l0.173,2.003c0.468,5.414,5.255,9.439,10.669,8.97
					c5.414-0.468,9.439-5.255,8.97-10.669l-0.173-2.003c-0.468-5.414-5.255-9.439-10.669-8.97
					C1508.118,455.145,1504.094,459.931,1504.562,465.345z" style="fill:#cf3653"></path>
        </g>
        <g>
          <path d="M1553.573,467.132c0.728-0.063,1.323-0.646,1.382-1.398c0.063-0.836-0.564-1.564-1.4-1.629
					l-27.727-2.104c-0.841-0.054-1.563,0.565-1.629,1.4c-0.063,0.836,0.564,1.564,1.4,1.629l27.727,2.104
					C1553.41,467.14,1553.492,467.139,1553.573,467.132z" style="fill:#cf3653"></path>
        </g>
      </g>
      <g>
        <g>
          <path d="M1319.928,681.952c-7.431,2.662-8.817,16.477-7.46,16.615
					c13.069,1.334,50.739,0.808,50.739,0.808c4.151,0.069,7.573-3.241,7.641-7.392l0,0c0.069-4.151-3.241-7.572-7.392-7.641
					C1363.457,684.342,1332.448,677.466,1319.928,681.952z" style="fill:#f8b5ba"></path>
          <path d="M1377.292,699.716l-13.968-0.687c-3.825-0.592-6.543-4.039-6.226-7.897
					c0.317-3.862,3.568-6.821,7.443-6.775l13.999,0.167L1377.292,699.716z" style="fill:#f8b5ba"></path>
        </g>
        <path d="M1371.531,702.378l-0.584-16.164c-0.038-1.064,0.762-1.973,1.823-2.069l8.867-0.803l0.745,21.267
				l-9.112-0.468C1372.319,704.093,1371.565,703.327,1371.531,702.378z" style="fill:#ffd65c"></path>
        <path d="M1580.192,548.175L1580.192,548.175c-11.617-7.107-25.249-2.677-32.06,10.359l-72.68,119.197
				l-94.094,2.297l0.992,25.516l105.057,5.393c7.766,2.284,15.762,0.333,19.927-5.456l77.786-116.912
				C1593.684,576.664,1590.954,555.59,1580.192,548.175z" style="fill:#0f4673"></path>
      </g>
    </g>
  </g>
  <g id="Man_Sitting">
    <g>
      <g>
        <path d="M455.307,723.512h131.364c2.538,0,4.596-2.058,4.596-4.596v-8.885H449.01v7.184
				C449.01,720.693,451.83,723.512,455.307,723.512z" style="fill:#322b2d"></path>
        <rect width="142.257" height="4.432" x="449.01" y="705.6" style="fill:#1f191a" transform="rotate(-180 520.139 707.816)"></rect>
        <rect width="6.964" height="5.345" x="573.103" y="713.855" style="fill:#0d0406" transform="rotate(-180 576.585 716.528)"></rect>
        <rect width="6.964" height="5.345" x="539.864" y="713.855" style="fill:#0d0406" transform="rotate(-180 543.346 716.528)"></rect>
        <rect width="17.656" height="5.345" x="550.066" y="713.855" style="fill:#0d0406" transform="rotate(-180 558.893 716.528)"></rect>
      </g>
      <g>
        <path d="M605.646,706.197l20.546-128.753c0.436-2.732-1.426-5.301-4.158-5.737l-1.715-0.274
				l-22.418,140.479l-0.116-0.018C601.53,712.491,605.049,709.94,605.646,706.197z" style="fill:#322b2d"></path>
        <rect width="142.256" height="4.432" x="535.794" y="639.107" style="fill:#00adc6" transform="rotate(99.068 606.925 641.315)"></rect>
      </g>
    </g>
    <g>
      <g>
        <g>
          <g>
            <g>
              <g>
                <path d="M335.296,500.574l-3.339,19.241l-0.806,4.62l-2.965,17.04
								c-2.044,11.743-13.24,19.616-24.97,17.572c-11.758-2.044-19.63-13.241-17.587-24.97l4.764-27.33l2.36-13.585
								c0.374-2.202,1.094-4.275,2.058-6.174c0.792-1.54,1.756-2.951,2.878-4.232c1.151-1.338,2.461-2.533,3.914-3.554
								c4.519-3.167,10.261-4.62,16.133-3.598C329.467,477.648,337.339,488.83,335.296,500.574z" style="fill:#8c715d"></path>
              </g>
            </g>
            <path d="M335.296,500.574l-3.339,19.241l-0.806,4.62c-27.718-4.749-32.64-30.568-33.461-41.678
						c1.151-1.338,2.461-2.533,3.914-3.554c4.519-3.167,10.261-4.62,16.133-3.598C329.467,477.648,337.339,488.83,335.296,500.574z" style="fill:#543e36"></path>
          </g>
          <g>
            <path d="M361.132,474.35c0.708,1.581-0.174,3.42-1.852,3.852c-2.201,0.566-4.85,1.125-5.276,1.289
						c-0.748,0.287-0.734,13.873-1.008,17.371c-0.259,3.512,0.863,7.311-2.821,7.728c-3.771,0.432-15.86-0.59-18.479-0.503
						l-28.402-13.689c-4.476-0.029-3.564,0.465-4.494,0.62c-2.832,0.472-4.719,1.254-5.733,0.31
						c-4.494-4.184-17.599-28.675-18.419-38.476c-1.007-12.075,6.85-29.086,31.964-36.44c15.514-4.534,36.382,4.116,45.967,17.169
						c0.777,1.036,1.468,2.116,2.087,3.209c2.907,5.181,2.533,17.156,2.288,21.17c-0.029,0.36-0.057,0.663-0.072,0.878
						c-0.115,1.338-0.691,4.404-0.043,5.886C357.436,466.09,359.698,471.146,361.132,474.35z" style="fill:#8c715d"></path>
          </g>
          <path d="M359.701,501.244c-2.324-7.593,1.55-21.384-5.888-22.159c0,0-3.874,0.155-8.058,1.395
					c-4.184,1.24-0.93,9.143-12.707,4.804c-9.728-3.584-11.104-20.055-13.122-24.721c-0.069-0.348-0.141-0.703-0.216-1.062
					c-0.964-4.476-2.36-9.657-2.576-11.643c-0.288-2.576,12.55-7.641,21.012-3.843c3.123,1.396,11.24,3.843,18.393-0.849
					c0,0,2.418-6.203-9.484-18.594c-12.031-12.55-42.11-17.097-61.078,0.806c-11.441,10.808-13.821,20.23-12.742,27.209
					c0.691,4.592,2.145,9.297,2.634,10.692c1.166,3.321,7.853,18.572,15.457,29.627c0.878,1.276,2.347,2.01,3.895,1.97
					c12.911-0.34,11.429-4.802,12.415-6.183c1.55-2.169-1.571-12.688,2.613-8.814c-0.667,2.289,0.524,14.673,5.023,22.696
					c3.26,5.814,13.395,18.976,35.719,14.697C363.891,514.799,362.025,508.837,359.701,501.244z" style="fill:#1f191a"></path>
          <path d="M309.494,471.492l-1.256-8.792c-0.39-2.733-2.847-4.696-5.596-4.447
					c-2.915,0.264-6.341,1.35-8.024,4.717c-3.254,6.508,3.099,19.06,10.227,19.37c4.492,0.195,3.874-0.155,3.874-0.155l0.465,4.339
					l1.994,2.657L309.494,471.492z" style="fill:#8c715d"></path>
          <path d="M348.816,454.603c1.234,0.525,1.861,1.999,1.26,3.198c-0.307,0.612-0.867,1.021-1.877,0.684
					c-5.023-1.674-10.418,1.86-10.79-0.186C337.07,456.438,343.341,452.273,348.816,454.603z" style="fill:#1f191a"></path>
          <path d="M346.649,468.53h-0.064c-0.75,0-1.363-0.614-1.363-1.363v-3.784c0-0.75,0.614-1.363,1.363-1.363
					h0.064c0.75,0,1.363,0.613,1.363,1.363v3.784C348.012,467.917,347.399,468.53,346.649,468.53z" style="fill:#483f3a"></path>
          <path d="M353.78,488.622l-8.93-1.86c0,0,5.581,5.023,8,4.465
					C355.268,490.668,353.78,488.622,353.78,488.622z" style="fill:#fff"></path>
          <path d="M356.538,443.165c0,0,9.047-10.777,8.122-20.951c-1.24-13.636-13.705-18.367-25.568-14.256
					c-15.651,5.424-29.597,6.044-29.597,6.044l0.155,11.157l37.19,18.13L356.538,443.165z" style="fill:#1f191a"></path>
        </g>
        <g>
          <g>
            <path d="M436.03,517.411c0,0,0.198-1.483-3.567-6.983c-3.765-5.501-6.936-8.654-6.341-10.743
						c0.595-2.09,0.991-2.288,2.378-0.901c1.387,1.387,3.765,3.006,3.765,3.006s-4.161-7.867-3.963-16.137
						c0.198-8.27,1.93-12.874,2.972-12.828c0.99,0.044,1.189,1.824,0.594,4.974c-0.594,3.15-0.594,11.992,2.18,13.021
						c0,0,1.037,0.588,0.826-0.731s-1.688-5.909-1.214-10.342c0.475-4.432,2.585-8.389,3.641-8.389s2.48,0.475,2.427,2.322
						c0,0,2.322-0.369,2.533,0.528c0.211,0.897-0.317,4.168-0.264,4.802c0.053,0.633,1.161-0.422,1.741,0.317
						c0.58,0.739,0.897,2.322,1.108,5.435c0.211,3.113,1.214,7.545,2.955,10.816s4.01,5.487,4.063,11.714
						c0,0,0.233,5.761-1.419,8.466c0,0-0.861,12.836-2.681,27.871l-15.351-6.206C434.799,525.817,436.03,517.411,436.03,517.411z" style="fill:#8c715d"></path>
            <g>
              <path d="M444.412,509.67c-0.204,0-0.392-0.135-0.451-0.341c-0.557-1.97-3.285-3.845-8.104-5.57
							l-0.243-0.087c-1.414-0.514-3.104-1.432-3.176-1.471c-0.227-0.123-0.311-0.408-0.187-0.635
							c0.123-0.228,0.407-0.312,0.635-0.187c0.016,0.009,1.701,0.923,3.048,1.412l0.238,0.086c1.909,0.683,7.718,2.764,8.69,6.197
							c0.071,0.249-0.074,0.508-0.323,0.578C444.498,509.664,444.455,509.67,444.412,509.67z" style="fill:#1f191a"></path>
            </g>
            <g>
              <path d="M440.284,490.362c-0.171,0-0.337-0.095-0.419-0.258c-0.421-0.844-1.697-4.287-2.079-7.909
							c-0.389-3.695,1.355-7.985,1.43-8.166c0.098-0.24,0.371-0.354,0.611-0.254c0.239,0.098,0.353,0.371,0.254,0.611
							c-0.017,0.042-1.729,4.255-1.365,7.711c0.369,3.494,1.585,6.785,1.986,7.588c0.115,0.232,0.022,0.513-0.209,0.628
							C440.427,490.347,440.355,490.362,440.284,490.362z" style="fill:#1f191a"></path>
            </g>
            <g>
              <path d="M443.777,490.807c-0.172,0-0.337-0.095-0.419-0.258c-2.062-4.123-1.899-10.314-1.891-10.576
							c0.008-0.259,0.229-0.47,0.482-0.454c0.258,0.008,0.462,0.223,0.454,0.482c-0.002,0.062-0.162,6.219,1.793,10.129
							c0.115,0.231,0.022,0.513-0.209,0.628C443.92,490.791,443.848,490.807,443.777,490.807z" style="fill:#1f191a"></path>
            </g>
          </g>
          <path d="M456.832,538.453l-26.111-11.452L395,608.936l-99.652-69.06
					c-11.649-8.073-28.86-2.372-37.594,12.453l0,0c-8.709,14.783-5.401,32.552,7.237,38.874l125.377,62.717
					c4.297,2.15,9.354,1.857,13.924-0.362c3.511-1.285,6.602-3.754,8.591-7.236l0.348-0.853c0.176-0.273,0.361-0.536,0.528-0.819h0
					c1.408-2.39,2.335-4.908,2.825-7.412L456.832,538.453z" style="fill:#41a7b8"></path>
          <g>
            <path d="M306.26,534.74c-16.239-10.034-30.797-11.607-48.7,7.476
						c-17.228,18.364-41.312,128.311-30.956,223.257c46.065-6.722,94.686-20.508,94.686-20.508s11.392-53.59,24.788-102.421
						C354.468,611.959,346.745,559.754,306.26,534.74z" style="fill:#8bcedd"></path>
            <polygon points="325.101 546.714 333.792 543.106 330.429 563.784 323.19 561.803" style="fill:#4bbed2"></polygon>
            <path d="M278.728,531.396l7.719-15.345c0,0,24.169,7.476,47.345,27.055
						c-0.609,0.908-10.602,18.697-10.602,18.697L278.728,531.396z" style="fill:#6fc7d8"></path>
          </g>
          <g>
            <g>
              <path d="M541.264,691.507c0.031-0.077,0.066-0.173,0.099-0.257c0.056-0.314,0.25-1.557-1.491-2.403
							c-7.444-4.144-16.469-3.023-16.573-3.009c-0.168,0.023-0.328-0.022-0.462-0.117c-0.21-0.148-0.357-0.42-0.376-0.745
							c-0.031-0.534,0.293-1.014,0.725-1.072c0.452-0.061,10.011-1.271,17.894,3.427c0.692,0.413,1.547-0.122,1.73-1.069
							c0.002-0.012,0.005-0.024,0.007-0.037c0.185-0.969-0.159-1.977-0.865-2.402c-9.538-5.744-18.974-3.584-19.077-3.559
							c-0.191,0.046-0.376,0.003-0.529-0.105c-0.19-0.134-0.331-0.369-0.368-0.662c-0.068-0.527,0.223-1.038,0.65-1.142
							c0.428-0.104,9.486-2.175,19.109,3.164l0.019-0.005c0,0,1.075,0.295,1.405-0.814c-0.016-0.174-0.048-0.347-0.07-0.521
							c-0.245-0.648-0.978-1.295-1.239-1.508c-9.85-5.611-18.61-3.142-18.705-3.115c-0.201,0.061-0.401,0.02-0.564-0.095
							c-0.18-0.127-0.316-0.345-0.362-0.618c-0.087-0.521,0.184-1.047,0.608-1.176c0.368-0.111,7.749-2.209,16.779,1.739
							c0.038,0.013,0.061,0.011,0.103,0.029c1.192,0.496,1.35-0.579,1.04-0.991c-0.008-0.01-0.015-0.021-0.023-0.031
							c-0.062-0.075-0.142-0.145-0.223-0.215c-13.776-9.599-31.057-0.281-47.117,6.297c-2.471,1.012-5.257,1.687-8.2,2.109
							l-0.009,0.193l-11.065,0.676l-0.631,16.842l10.977-2.642l-0.009,0.194c1.008-0.318,1.958-0.612,2.868-0.883l0.635-0.153
							c0.86-0.085,1.668-0.326,2.405-0.684c4.481-1.116,8.132-1.363,12.908-0.157c7.621,1.925,12.192-3.195,19.369-5.372
							c5.894-1.788,14.327,0.761,17.154,1.729C540.369,692.549,540.991,692.193,541.264,691.507z" style="fill:#72594b"></path>
            </g>
            <path d="M480.766,677.129l-100.533,6.863l-64.333-115.481c-6.898-12.382-24.859-14.851-39.234-5.394l0,0
						c-14.334,9.43-19.198,26.837-10.64,38.083l84.892,111.563c4.692,6.167,9.674,7.378,22.05,6.574l108.962-14.653L480.766,677.129
						z" style="fill:#4bbed2"></path>
          </g>
        </g>
      </g>
      <g>
        <g>
          <rect width="11.333" height="148.462" x="275.553" y="856.157" style="fill:#37383b"></rect>
          <circle cx="221.9" cy="1053.153" r="17.718" style="fill:#354171"></circle>
          <circle cx="340.539" cy="1053.153" r="17.718" style="fill:#354171"></circle>
          <path d="M281.22,993.9c-19.323,0-34.988,9.208-34.988,20.567h69.975
					C316.207,1003.107,300.543,993.9,281.22,993.9z" style="fill:#37383b"></path>
          <g>
            <path d="M340.538,1056.17c-1.667,0-3.018-1.351-3.018-3.017v-19.154c0-8.721-9.301-15.817-20.733-15.817
						h-71.137c-11.432,0-20.733,7.095-20.733,15.817v18.313c0,1.667-1.351,3.018-3.018,3.018c-1.667,0-3.018-1.351-3.018-3.018
						v-18.313c0-12.049,12.008-21.852,26.768-21.852h71.137c14.76,0,26.768,9.803,26.768,21.852v19.154
						C343.556,1054.819,342.205,1056.17,340.538,1056.17z" style="fill:#242729"></path>
          </g>
        </g>
        <ellipse cx="283.108" cy="853.071" rx="41.884" ry="24.62" style="fill:#242729"></ellipse>
      </g>
      <g>
        <path d="M156.088,625.094c0,0-63.924,140.879,60.191,208.906l3.449-9.168
				c0,0-92.569-32.324-50.937-161.188C169.62,652.112,156.088,625.094,156.088,625.094z" style="fill:#8985ae"></path>
        <g>
          <path d="M112.442,550.085l-4.139-8.159c0,0,23.059-23.881,76.273,101.452
					c48.507,114.248,39.577,148.1,35.062,154.826c-4.515,6.726-20.872-68.622-20.872-68.622L158.56,627.482l-26.607-51.355
					L112.442,550.085z" style="fill:#00b4d6"></path>
          <g>
            <path d="M214.121,805.023c-2.656,0-5.014-1.963-5.503-4.76c-0.277-1.593-28.726-160.331-103.684-250.359
						c-2.018-2.423-1.754-6.079,0.591-8.165c2.344-2.088,5.879-1.812,7.896,0.61c40.301,48.404,67.038,115.424,82.37,163.124
						c16.564,51.532,23.777,92.325,23.848,92.732c0.549,3.146-1.472,6.157-4.515,6.726
						C214.787,804.992,214.452,805.023,214.121,805.023z" style="fill:#41383a"></path>
          </g>
        </g>
      </g>
      <g>
        <path d="M386.47,832.208c-0.259-14.806-29.841-24.317-93.532-24.106
				c-63.691-0.214-93.274,9.299-93.532,24.106H386.47z" style="fill:#00b4d6"></path>
        <path d="M385.181,853.436c4.113-8.484,4.113-18.015,0-26.498c-61.404,0.001-122.808,0.001-184.212,0
				c-4.113,8.484-4.113,18.015,0,26.498C262.373,853.437,323.777,853.437,385.181,853.436z" style="fill:#37383b"></path>
      </g>
      <g>
        <g>
          <path d="M481.449,1070.12c0,1.931,0,1.931,0,1.931h70.023v-5.877H481.45
					C481.406,1067.737,481.399,1069.101,481.449,1070.12z" style="fill:#4f1b5f"></path>
          <path d="M510.38,1037.604c-2.584-2.209-4.402-4.669-4.918-7.366c-2.183-11.419,0.168-28.472,0.168-28.472l-20.486-1.175
					c0,0,2.015,25.205,0,32.967c-0.163,0.629-0.326,1.379-0.488,2.177c3.203,1.896,8.47,4.373,14.425,4.578
					C503.437,1040.464,507.363,1039.127,510.38,1037.604z"></path>
          <path d="M542.236,1050.389c-7.054-1.154-23.503-5.642-31.857-12.785
					c-3.016,1.523-6.942,2.859-11.299,2.709c-5.955-0.205-11.222-2.682-14.425-4.578c-1.545,7.614-2.972,22.173-3.205,30.438h70.022
					v-5.877C551.472,1060.296,551.472,1051.9,542.236,1050.389z" style="fill:#5e4074"></path>
        </g>
        <path d="M467.789,1029.385h49.127c0,0,8.264-197.658,10.037-242.055
				c0.267-6.692-4.317-12.229-10.72-14.195c-35.557-10.914-152.971-27.119-255.261-27.119
				c-3.294,15.531,45.703,51.032,66.882,58.092c17.968,5.989,110.782,11.64,137.694,13.216c4.129,0.242,7.215,3.852,6.817,7.969
				c-1.552,16.064-4.576,54.234-6.539,92.19C463.633,959.877,467.789,1029.385,467.789,1029.385z" style="fill:#00212d"></path>
        <g>
          <path d="M401.029,1070.12c0,1.931,0,1.931,0,1.931h70.023v-5.877H401.03
					C400.986,1067.737,400.98,1069.101,401.029,1070.12z" style="fill:#4f1b5f"></path>
          <path d="M429.96,1037.604c-2.584-2.209-4.402-4.669-4.918-7.366c-2.183-11.419,0.168-28.472,0.168-28.472l-20.486-1.175
					c0,0,2.015,25.205,0,32.967c-0.163,0.629-0.326,1.379-0.488,2.177c3.203,1.896,8.47,4.373,14.425,4.578
					C423.018,1040.464,426.944,1039.127,429.96,1037.604z"></path>
          <path d="M461.817,1050.389c-7.054-1.154-23.503-5.642-31.857-12.785
					c-3.016,1.523-6.942,2.859-11.299,2.709c-5.955-0.205-11.222-2.682-14.425-4.578c-1.546,7.614-2.972,22.173-3.205,30.438h70.022
					v-5.877C471.053,1060.296,471.053,1051.9,461.817,1050.389z" style="fill:#714f8a"></path>
        </g>
        <path d="M389.261,1022.841h51.411c0,0,8.264-191.114,10.037-235.511
				c0.267-6.692-4.002-17.953-10.405-19.919c-35.557-10.914-133.031-23.722-214.715-24.867
				c-3.294,15.531-10.054,58.381,11.125,65.44c17.968,5.989,125.678,7.764,152.589,9.339c4.129,0.242,7.215,3.852,6.817,7.969
				c-1.552,16.064-6.86,48.999-9.478,90.881C383.995,958.542,389.261,1022.841,389.261,1022.841z" style="fill:#233a44"></path>
      </g>
      <path d="M359.408,737.626l-10.458-3.245l-5.25-1.591c-1.753-0.522-3.544-0.859-5.316-1.298l-10.692-2.381
			c-3.579-0.708-7.195-1.172-10.796-1.769c-3.604-0.577-7.21-1.177-10.846-1.425l-10.896-0.941l-10.919-0.382
			c-3.642-0.193-7.28-0.104-10.92-0.047c-3.639,0.071-7.287,0.021-10.912,0.37c-3.628,0.276-7.263,0.487-10.885,0.82l-10.845,1.226
			c-3.602,0.505-7.204,1.035-10.792,1.64c-3.585,0.628-7.146,1.41-10.717,2.11c-3.557,0.791-7.106,1.622-10.646,2.495
			c-3.527,0.958-7.043,1.929-10.543,3.046c-3.474,1.048-7.041,2.283-10.525,3.657c-3.284,1.307-5.16,5.016-4.199,8.595
			c1.022,3.804,4.833,6.031,8.513,4.975l0.15-0.044c3.251-0.934,6.488-1.804,9.875-2.626c3.338-0.854,6.739-1.527,10.113-2.279
			c3.388-0.71,6.787-1.383,10.19-2.017c3.423-0.544,6.829-1.174,10.259-1.651l10.289-1.432l10.325-1.107
			c3.447-0.297,6.902-0.474,10.352-0.718c3.45-0.284,6.906-0.29,10.359-0.448c3.455-0.127,6.911-0.29,10.364-0.174l10.365,0.141
			l10.336,0.678c3.457,0.133,6.887,0.502,10.317,0.906c3.427,0.409,6.881,0.683,10.296,1.197l10.221,1.74
			c1.703,0.297,3.431,0.492,5.118,0.871l4.517,1.036c-0.437,0.546-0.891,1.081-1.295,1.648c-1.475,1.891-2.78,3.881-4.032,5.898
			c-1.345,1.963-2.336,4.119-3.498,6.173c-1.142,2.066-1.984,4.271-2.98,6.397c-1.013,2.122-1.655,4.386-2.492,6.567
			c-0.859,2.178-1.424,4.443-2.044,6.686c-0.616,2.245-1.279,4.473-1.651,6.764l-1.316,6.814l-0.802,6.867l-0.393,3.425
			l-0.156,3.437l-0.28,6.861c-0.11,2.283,0.087,4.563,0.117,6.84l0.212,6.822l1.344,13.528c0.152,1.499,1.406,2.65,2.884,2.594
			c1.543-0.058,2.749-1.399,2.692-2.995l-0.007-0.199l-0.467-13.16l0.217-6.554c0.111-2.179,0.054-4.368,0.301-6.53l0.681-6.479
			l0.349-3.23l0.578-3.187l1.151-6.357l1.622-6.213c0.47-2.091,1.215-4.082,1.906-6.086c0.695-2.004,1.329-4.028,2.235-5.927
			c0.884-1.905,1.573-3.909,2.601-5.722c1.012-1.818,1.867-3.732,2.988-5.464c1.138-1.715,2.107-3.557,3.378-5.15
			c1.188-1.662,2.407-3.286,3.747-4.78c1.267-1.567,2.699-2.947,4.094-4.304c0.721-0.638,1.423-1.34,2.155-1.891
			c0.671-0.566,1.647-1.126,1.959-1.466C366.819,742.834,362.219,738.782,359.408,737.626z"></path>
    </g>
  </g>
  <g id="table">
    <g>
      <g>
        <path d="M1094,707.6H976.315c-3.14,0-5.824-2.262-6.355-5.357l-13.692-79.758
				c-0.676-3.94,2.358-7.539,6.355-7.539h117.684c3.14,0,5.824,2.262,6.355,5.357l13.692,79.758
				C1101.031,704,1097.997,707.6,1094,707.6z" style="fill:#fff"></path>
        <path d="M1087.463,707.6H969.779c-3.14,0-5.824-2.262-6.355-5.357l-13.692-79.758
				c-0.676-3.94,2.358-7.539,6.355-7.539h117.684c3.14,0,5.824,2.262,6.355,5.357l13.692,79.758
				C1094.494,704,1091.46,707.6,1087.463,707.6z" style="fill:#eae7e5"></path>
        <circle cx="1028.086" cy="661.82" r="8.934" style="fill:#fff"></circle>
      </g>
      <path d="M1140.4,707.594v8.743c0,3.43-2.789,6.219-6.218,6.219H999.277c-3.706,0-6.708-3.002-6.708-6.708
			v-8.254H1140.4z" style="fill:#fff"></path>
      <path d="M1100.302,707.594v8.743c0,3.43-2.776,6.219-6.218,6.219h-94.806c-3.706,0-6.708-3.002-6.708-6.708
			v-8.254H1100.302z" style="fill:#eae7e5"></path>
    </g>
    <g>
      <path d="M906.224,660.992c0,0,11.673-4.8,5.669-25.034c-4.418-14.892-19.568-27.572-26.238-34.688
			c-6.671-7.115-22.269-24.682-25.366-27.128c-3.096-2.446-3.169,2.224-1.798,6.893c1.371,4.67,9.153,34.466,10.265,43.805
			C869.867,634.179,885.553,669.76,906.224,660.992z" style="fill:#9dca68"></path>
      <path d="M923.505,603.577c0,0-3.275-19.528-6.049-30.178c-2.774-10.65-5.652-27.24-9.126-26.174
			c-3.474,1.066-2.768,25.542-2.953,30.765c-0.186,5.223,0.882,23.964-0.479,28.552c-1.361,4.588-5.151,9.473-3.233,15.705
			c1.918,6.232,8.269,22.496,17.141,22.667c8.871,0.171,11.35-23.939,11-27.584S926.706,614.136,923.505,603.577z" style="fill:#738565"></path>
      <g>
        <path d="M922.452,677.993c-0.634,0-1.183-0.473-1.261-1.119c-3.326-27.473-12.8-115.356-12.895-116.241
				c-0.075-0.698,0.43-1.325,1.127-1.4c0.695-0.075,1.324,0.43,1.4,1.128c0.095,0.884,9.568,88.751,12.892,116.208
				c0.084,0.697-0.412,1.331-1.109,1.415C922.555,677.99,922.503,677.993,922.452,677.993z" style="fill:#85a55e"></path>
      </g>
      <path d="M949.249,531.672c0,0-6.004-0.889-8.005,7.56c-2.001,8.45-0.445,18.233-3.113,22.458
			c-2.668,4.225-10.425,10.229-10.327,20.235c0.098,10.006,3.68,15.12-0.001,22.681c-3.681,7.56-10.574,26.683-6.349,35.133
			c4.225,8.45,15.004,7.783,20.844,6.448c5.84-1.334,12.009-12.59,10.732-23.792c-1.277-11.203-6.004-20.012-3.113-22.903
			c2.891-2.891,9.117-16.455,4.447-26.238c-4.669-9.784-5.337-12.23-4.669-15.788C950.361,553.907,956.142,534.562,949.249,531.672z
			" style="fill:#85a55e"></path>
      <g>
        <path d="M927.806,687.638c-0.022,0-0.042,0-0.064-0.002c-0.702-0.035-1.242-0.632-1.207-1.333
				c1.695-34.053,18.292-149.995,18.46-151.162c0.099-0.695,0.749-1.176,1.439-1.078c0.695,0.1,1.178,0.744,1.078,1.439
				c-0.167,1.166-16.747,116.992-18.437,150.927C929.04,687.109,928.479,687.638,927.806,687.638z" style="fill:#738565"></path>
      </g>
      <path d="M934.461,653.428c0,0,0,11.792,15.976,11.601c15.976-0.19,24.154-15.976,25.675-26.056
			c1.521-10.08,0.761-15.976,6.276-20.54c5.515-4.565,6.466-15.215,6.086-23.964c-0.38-8.749,9.377-12.113,14.074-23.773
			c4.02-9.979,8.558-19.97,3.043-19.589c-5.515,0.38-27.577,17.117-30.24,23.013c-2.663,5.896,0.416,7.417-4.737,13.123
			c-5.153,5.706-15.994,10.65-17.515,17.117c-1.521,6.466-0.951,8.558-3.804,11.601
			C946.443,619.004,930.087,634.409,934.461,653.428z" style="fill:#9dca68"></path>
      <g>
        <path d="M932.807,682.517c-0.113,0-0.228-0.015-0.342-0.047c-0.676-0.188-1.072-0.889-0.884-1.566
				c0.181-0.65,18.653-65.643,67.582-122.293c0.458-0.53,1.261-0.59,1.793-0.131c0.531,0.459,0.59,1.262,0.131,1.793
				c-48.56,56.223-66.877,120.668-67.056,121.313C933.875,682.149,933.364,682.517,932.807,682.517z" style="fill:#85a55e"></path>
      </g>
      <g>
        <path d="M914.117,681.479c-0.523,0-1.013-0.326-1.199-0.847c-12.266-34.607-46.716-91.695-47.063-92.267
				c-0.363-0.601-0.171-1.383,0.43-1.746c0.598-0.363,1.381-0.172,1.746,0.429c0.348,0.575,34.932,57.883,47.285,92.735
				c0.234,0.662-0.112,1.388-0.774,1.623C914.401,681.455,914.258,681.479,914.117,681.479z" style="fill:#738565"></path>
      </g>
      <path d="M937.005,682.795h-34.002c-1.843,0-3.399,1.368-3.635,3.196l-4.209,32.628
			c-0.283,2.192,1.425,4.134,3.635,4.134h42.42c2.211,0,3.918-1.942,3.635-4.134l-4.209-32.628
			C940.405,684.164,938.848,682.795,937.005,682.795z" style="fill:#fec341"></path>
      <path d="M941.444,676.722c-14.293,0-28.586,0-42.88,0c-1.139,2.865-1.139,6.182,0,9.047
			c14.293,0,28.587,0,42.88,0C942.583,682.904,942.583,679.587,941.444,676.722z" style="fill:#d9ab3c"></path>
    </g>
    <g>
      <circle cx="187.258" cy="224.38" r="62.595" style="fill:#6ca4d8"></circle>
      <circle cx="187.258" cy="224.38" r="52.318" style="fill:#fff" transform="rotate(-13.59 187.268 224.381)"></circle>
      <g>
        <rect width="1.4" height="8.628" x="186.558" y="176.262" style="fill:#736a71"></rect>
        <rect width="1.4" height="8.628" x="186.558" y="265.452" style="fill:#736a71"></rect>
      </g>
      <g>
        <rect width="1.4" height="8.628" x="141.963" y="220.857" style="fill:#736a71" transform="rotate(-90 142.663 225.17)"></rect>
        <rect width="1.4" height="8.628" x="231.153" y="220.857" style="fill:#736a71" transform="rotate(-90 231.853 225.17)"></rect>
      </g>
      <g>
        <rect width="1.4" height="6.121" x="146.852" y="245.034" style="fill:#736a71" transform="rotate(-120 147.55 248.099)"></rect>
        <rect width="1.4" height="6.834" x="225.955" y="199.008" style="fill:#736a71" transform="rotate(-120 226.654 202.43)"></rect>
      </g>
      <g>
        <rect width="1.4" height="6.121" x="163.634" y="261.816" style="fill:#736a71" transform="rotate(-150 164.336 264.88)"></rect>
        <rect width="1.4" height="6.834" x="209.304" y="182.357" style="fill:#736a71" transform="rotate(-150 210.006 185.776)"></rect>
      </g>
      <g>
        <rect width="1.4" height="6.121" x="209.482" y="261.816" style="fill:#736a71" transform="rotate(150 210.185 264.878)"></rect>
        <rect width="1.4" height="6.834" x="163.812" y="182.357" style="fill:#736a71" transform="rotate(150 164.513 185.778)"></rect>
      </g>
      <g>
        <rect width="1.4" height="6.121" x="226.263" y="245.034" style="fill:#736a71" transform="rotate(120 226.968 248.093)"></rect>
        <rect width="1.4" height="6.834" x="147.161" y="199.008" style="fill:#736a71" transform="rotate(120 147.864 202.425)"></rect>
      </g>
      <polygon points="187.032 219.467 193.62 189.05 193.975 189.117 188.883 219.82" style="fill:#736a71"></polygon>
      <polygon points="188.735 224.638 209.396 256.109 209.099 256.313 187.181 225.704" style="fill:#736a71"></polygon>
      <path d="M187.258,230.919c3.612,0,6.54-2.928,6.54-6.54s-2.928-6.54-6.54-6.54s-6.54,2.928-6.54,6.54
			S183.646,230.919,187.258,230.919z" style="fill:#4b414a"></path>
    </g>
    <g>
      <g>
        <g>
          <path d="M863.637,709.916c-0.05,0-0.102-0.003-0.154-0.008c-10.961-1.116-13.464-10.477-14.032-14.451
					c-0.12-0.832,0.128-1.674,0.68-2.312c0.557-0.642,1.364-1.01,2.214-1.01h11.272c0.827,0,1.498,0.671,1.498,1.498
					c0,0.827-0.671,1.498-1.498,1.498h-11.272c0.653,3.97,2.903,10.926,11.442,11.795c0.823,0.084,1.422,0.819,1.338,1.642
					C865.048,709.341,864.397,709.916,863.637,709.916z" style="fill:#eae6e4"></path>
        </g>
        <g>
          <g>
            <path d="M905.456,691.5c0.324,1.584,0.497,3.225,0.497,4.907c0,13.182-10.468,23.868-23.381,23.868
						s-23.381-10.686-23.381-23.868c0-1.682,0.172-3.323,0.497-4.907H905.456z" style="fill:#fff"></path>
          </g>
          <g>
            <defs>
              <path id="SVGID_5_" d="M905.456,691.5c0.324,1.584,0.497,3.225,0.497,4.907c0,13.182-10.468,23.868-23.381,23.868
							s-23.381-10.686-23.381-23.868c0-1.682,0.172-3.323,0.497-4.907H905.456z"></path>
            </defs>
            <clipPath id="SVGID_6_">
              <use xlink:href="#SVGID_5_" style="overflow:visible"></use>
            </clipPath>
            <path d="M877.666,690.501c-8.298,5.994-6.419,22.936,9.394,23.895
						c5.646,0.342,6.867,2.876,6.867,2.876l-4.519,12.788c0,0-38.829-8.311-38.829-9.11c0-0.799,5.167-28.13,5.167-28.13
						l0.939-7.192h19.975L877.666,690.501z" style="clip-path:url(#SVGID_6_);fill:#eae6e4"></path>
          </g>
        </g>
      </g>
      <g>
        <path d="M883.358,723.922c-12.052,0-23.203-3.142-30.594-8.621c-0.831-0.616-1.005-1.789-0.389-2.62
				c0.616-0.831,1.789-1.004,2.62-0.389c6.66,4.937,17.264,7.885,28.364,7.885c9.112,0,17.774-1.92,24.388-5.405
				c0.916-0.483,2.048-0.132,2.53,0.784c0.482,0.915,0.131,2.047-0.784,2.529C902.349,721.85,893.068,723.922,883.358,723.922z" style="fill:#fff"></path>
      </g>
    </g>
    <g>
      <g>
        <polygon points="434.458 735.62 432.931 756.861 432.911 756.591 432.891 756.805 410.026 1077.722 398.722 1077.722 415.658 769.632 415.707 768.736 415.707 768.662 416.392 735.62" style="fill:#a9a5a1"></polygon>
        <polygon points="434.458 735.62 432.931 756.861 432.911 756.796 432.891 756.805 415.658 769.632 415.707 768.736 415.707 768.662 416.392 735.62" style="fill:#978c85"></polygon>
      </g>
      <g>
        <polygon points="1382.943 1077.724 1371.641 1077.724 1348.794 756.816 1348.769 756.593 1348.745 756.853 1347.21 735.62 1365.284 735.62 1370.52 768.659 1370.52 768.734 1370.74 774.255" style="fill:#a9a5a1"></polygon>
        <polygon points="1370.74 774.255 1348.794 756.816 1348.769 756.797 1348.745 756.853 1347.21 735.62 1365.284 735.62 1370.52 768.659 1370.52 768.734" style="fill:#978c85"></polygon>
      </g>
      <path d="M1400.54,741.572H363.652c-1.536,0-2.781-1.245-2.781-2.781v-13.031
			c0-1.536,1.245-2.781,2.781-2.781H1400.54c1.536,0,2.781,1.245,2.781,2.781v13.031
			C1403.321,740.327,1402.076,741.572,1400.54,741.572z" style="fill:#a9a5a1"></path>
    </g>
  </g>
</svg>
