<svg xmlns="http://www.w3.org/2000/svg" xmlns:xlink="http://www.w3.org/1999/xlink" xml:space="preserve" id="online-recruitment" x="0" y="0" style="enable-background:new 0 0 300 300" version="1.1" viewBox="0 0 300 300">
  <g id="_Online_Recruitment">
    <path d="M56.623 152.918c-.77-.149-1.557-.21-2.27-.626-.637-.363-1.359-.566-2.031-.87a13.22 13.22 0 0 1-1.292-.68c-.774-.462-1.533-.96-2.307-1.423-.916-.544-1.7-1.246-2.449-2.003a4.061 4.061 0 0 0-.582-.498c-4.54-.617-25.519-3.581-28.84-12.471 1.097-13.512 8.95-17.226 8.95-17.226l15.399 7.415s-9.566 7.74-8.402 8.216c1.04.439 12.778 5.757 16.359 7.427.183-.001.37-.014.553-.02.873-.019 1.745-.06 2.618-.095.17-.006.34-.029.512-.029l2.682.01c.045-.003.086.017.127.031 1.042.44 2.137.326 3.227.39.746.042 1.477.119 2.236 0 .498-.074.764.405.466.82-.22.306-.51.588-.822.792-.848.56-1.814.562-2.784.5-.517-.033-1.031-.113-1.552-.124-.155-.007-.311.135-.55.248.403.207.708.313.954.496.8.593 1.593 1.174 2.251 1.948.85.995 1.882 1.806 2.987 2.52a35.58 35.58 0 0 1 2.617 1.872c.307.237.555.603.704.96.09.216.024.61-.13.78-.123.134-.496.113-.734.054-.331-.08-.636-.277-.963-.381-.105-.033-.306.043-.38.134-.667.8-1.093.925-2.07.579-.153-.059-.27-.114-.434.092-.195.247-.491.438-.785.572-.21.1-.482.061-.726.089-.346.034-.688.051-1.027.114-.26.052-.503.17-.761.24-.247.068-.519.194-.75.147z" style="fill:#fec9ac"></path>
    <path d="M265.763 53.967v101.657a4.652 4.652 0 0 1-4.654 4.654H97.415a4.655 4.655 0 0 1-4.654-4.654V53.967h173.002z" style="fill:#f3f6fd"></path>
    <path d="M265.764 53.965v-4.366a4.654 4.654 0 0 0-4.655-4.655H97.42a4.654 4.654 0 0 0-4.655 4.655v4.366h173z" style="fill:#d1dcf8"></path>
    <circle cx="258.956" cy="49.764" r="2.281" style="fill:#fff"></circle>
    <circle cx="243.557" cy="49.764" r="2.281" style="fill:#fff"></circle>
    <circle cx="251.234" cy="49.741" r="2.281" style="fill:#fff"></circle>
    <path d="M197.95 142.182h-37.375a7.819 7.819 0 0 1-7.819-7.82V73.379c0-4.318 3.5-7.819 7.819-7.819h37.375c4.318 0 7.82 3.5 7.82 7.82v60.984c0 4.318-3.502 7.819-7.82 7.819z" style="fill:#e4ecf9"></path>
    <path d="M157.853 123.734h43.345c.68 0 1.235-.556 1.235-1.235s-.556-1.235-1.235-1.235h-43.345c-.68 0-1.235.556-1.235 1.235 0 .68.556 1.235 1.235 1.235zM201.198 126.945h-43.345c-.68 0-1.235.556-1.235 1.235s.556 1.235 1.235 1.235h43.345c.68 0 1.235-.556 1.235-1.235 0-.68-.556-1.235-1.235-1.235zM189.242 132.626h-19.433c-.679 0-1.235.555-1.235 1.234 0 .68.556 1.235 1.235 1.235h19.433c.68 0 1.235-.555 1.235-1.235 0-.679-.556-1.234-1.235-1.234z" style="fill:#fff"></path>
    <path d="m195.6 113.778-2.14-.016-.645-2.04-.676 2.03-2.139-.016 1.721 1.27-.676 2.03 1.74-1.245 1.72 1.27-.645-2.039zM186.824 113.712l-.646-2.04-.676 2.03-2.139-.016 1.72 1.27-.675 2.029 1.74-1.244 1.72 1.27-.645-2.039 1.74-1.244zM180.186 113.662l-.645-2.04-.676 2.03-2.14-.016 1.722 1.27-.677 2.029 1.74-1.244 1.721 1.27-.646-2.039 1.74-1.244zM173.55 113.612l-.646-2.04-.677 2.03-2.138-.016 1.72 1.27-.676 2.029 1.74-1.244 1.72 1.27-.645-2.039 1.74-1.244zM166.912 113.562l-.645-2.04-.677 2.03-2.139-.016 1.721 1.27-.676 2.029 1.74-1.244 1.72 1.27-.645-2.04 1.74-1.243z" style="fill:#fcc230"></path>
    <path d="M140.49 142.182h-29.956a7.819 7.819 0 0 1-7.819-7.82V84.1c0-4.318 3.5-7.819 7.819-7.819h29.957c4.318 0 7.819 3.501 7.819 7.82v50.262c0 4.318-3.5 7.819-7.82 7.819z" style="fill:#e4ecf9"></path>
    <path d="M106.872 126.316h37.28c.584 0 1.062-.478 1.062-1.062s-.478-1.063-1.062-1.063h-37.28c-.584 0-1.062.478-1.062 1.063s.478 1.062 1.062 1.062zM144.152 129.077h-37.28c-.584 0-1.062.478-1.062 1.062 0 .584.478 1.062 1.062 1.062h37.28c.584 0 1.062-.478 1.062-1.062 0-.584-.478-1.062-1.062-1.062zM133.869 133.963h-16.713c-.584 0-1.062.478-1.062 1.062 0 .584.478 1.062 1.062 1.062h16.713c.584 0 1.062-.478 1.062-1.062 0-.584-.478-1.062-1.062-1.062z" style="fill:#fff"></path>
    <path d="m139.337 117.753-1.84-.014-.555-1.754-.581 1.745-1.84-.014 1.48 1.093-.581 1.745 1.496-1.07 1.48 1.092-.555-1.753zM131.79 117.696l-.556-1.754-.582 1.745-1.84-.014 1.48 1.093-.58 1.745 1.496-1.07 1.48 1.092-.556-1.753 1.497-1.07zM126.08 117.653l-.554-1.754-.582 1.745-1.84-.014 1.48 1.093-.581 1.745 1.496-1.07 1.48 1.092-.555-1.753 1.496-1.07z" style="fill:#bbcaea"></path>
    <path d="m120.372 117.61-.555-1.754-.581 1.745-1.84-.014 1.48 1.093-.582 1.745 1.497-1.07 1.48 1.092-.555-1.753 1.496-1.07zM114.664 117.567l-.555-1.754-.582 1.745-1.84-.014 1.48 1.093-.581 1.745 1.496-1.07 1.48 1.092-.555-1.753 1.497-1.07z" style="fill:#fcc230"></path>
    <path d="M247.991 142.182h-29.957a7.819 7.819 0 0 1-7.819-7.82V84.1c0-4.318 3.501-7.819 7.82-7.819h29.956c4.318 0 7.82 3.501 7.82 7.82v50.262c0 4.318-3.502 7.819-7.82 7.819z" style="fill:#e4ecf9"></path>
    <path d="M214.373 126.316h37.28c.584 0 1.062-.478 1.062-1.062s-.478-1.063-1.062-1.063h-37.28c-.584 0-1.062.478-1.062 1.063s.478 1.062 1.062 1.062zM251.653 129.077h-37.28c-.584 0-1.062.478-1.062 1.062 0 .584.478 1.062 1.062 1.062h37.28c.584 0 1.062-.478 1.062-1.062 0-.584-.478-1.062-1.062-1.062zM241.37 133.963h-16.714c-.584 0-1.062.478-1.062 1.062 0 .584.478 1.062 1.062 1.062h16.713c.585 0 1.062-.478 1.062-1.062 0-.584-.477-1.062-1.062-1.062z" style="fill:#fff"></path>
    <path d="m246.838 117.753-1.84-.014-.555-1.754-.582 1.745-1.84-.014 1.48 1.093-.581 1.745 1.496-1.07 1.48 1.092-.555-1.753zM239.29 117.696l-.556-1.754-.581 1.745-1.84-.014 1.48 1.093-.581 1.745 1.496-1.07 1.48 1.092-.555-1.753 1.496-1.07z" style="fill:#bbcaea"></path>
    <path d="m233.581 117.653-.555-1.754-.582 1.745-1.84-.014 1.48 1.093-.58 1.745 1.496-1.07 1.48 1.092-.556-1.753 1.497-1.07zM227.873 117.61l-.555-1.754-.582 1.745-1.84-.014 1.48 1.093-.581 1.745 1.496-1.07 1.48 1.092-.555-1.753 1.496-1.07zM222.164 117.567l-.555-1.754-.582 1.745-1.84-.014 1.481 1.093-.582 1.745 1.497-1.07 1.48 1.092-.555-1.753 1.496-1.07z" style="fill:#fcc230"></path>
    <circle cx="124.18" cy="97.632" r="10.751" style="fill:#fff"></circle>
    <defs>
      <circle id="SVGID_41_" cx="124.18" cy="97.632" r="10.751"></circle>
    </defs>
    <clipPath id="SVGID_2_">
      <use xlink:href="#SVGID_41_" style="overflow:visible"></use>
    </clipPath>
    <g style="clip-path:url(#SVGID_2_)">
      <path d="M129.778 123.22c.478.048 1.17-.01 1.963-.158 2.607-.487 6.343-1.955 7.5-3.918.175-.295.305-.585.396-.866.71-2.16-3.027-6.603-3.027-6.603-1.01 2.067-1.813 4.08-3.112 5.073.097.083.747 1.142.945 1.536.004.01.006.017.004.025.048.493-4.234 2.672-4.234 2.672s-.467.1-.944-.238c-.479-.338-1.377-.985-1.658-.568-.279.42 1.809 1.765.948 1.38-.713-.32-2.412-.691-3.067-.539-.135.03-.228.083-.253.164-.163.473 2.483 1.833 4.539 2.04z" style="fill:#fec9ac"></path>
      <path d="m131.787 117.91 1.268 7.001c-9.194 1.209-17.694-1.017-17.694-1.017l.432-4.456.24-2.478c-1.83-.576-3.9-6.203-3.9-6.203s1.292-1.892 3.69-4.181c1.932-1.846 4.364-3.108 7.003-3.525 2.464-.39 4.903-.049 7.07 1.301.304.19.618.417.939.673 3.477 2.778 7.662 9.01 7.662 9.01-2.952 4.096-6.71 3.875-6.71 3.875z" style="fill:#fe4c40"></path>
      <path d="m124.345 109.364.845 2.602h2.736l-2.213 1.608.845 2.602-2.213-1.608-2.213 1.608.845-2.602-2.213-1.608h2.736z" style="fill:#f3f6fd"></path>
      <path d="m131.787 117.91 1.268 7.001c-6.872 1.72-17.646-.433-17.694-1.017l.432-4.456c.447.103.9.185 1.356.245 1.995.26 4.09.047 5.881-.873 1.85-.95 3.271-2.595 4.292-4.408 1.02-1.813 1.677-3.803 2.328-5.78l1.185-3.597c3.477 2.778 7.662 9.01 7.662 9.01-2.952 4.096-6.71 3.875-6.71 3.875z" style="fill:#ea241f"></path>
      <path d="M133.055 125a.088.088 0 0 1-.087-.073l-2.358-12.736a.088.088 0 1 1 .173-.032l2.359 12.736a.088.088 0 0 1-.087.104z" style="fill:#c16244"></path>
      <path d="M115.361 123.982h-.009a.088.088 0 0 1-.079-.097l1.214-11.767a.09.09 0 0 1 .097-.079.088.088 0 0 1 .078.097l-1.213 11.767a.088.088 0 0 1-.088.08z" style="fill:#edba3b"></path>
      <path d="M127.052 103.167c-.248.733-1.167 1.237-1.863 1.428-.66.182-1.36.197-2.022.022-1.492-.394-1.529-1.318-1.529-1.318.252-.082.375-.725.432-1.416.073-.872.045-1.821.045-1.821h3.963s.116 1.204.242 2.131c.026.187.091.366.193.521.09.14.209.263.352.356.107.07.187.097.187.097z" style="fill:#fec9ac"></path>
      <g style="opacity:.5">
        <path d="M126.513 102.714c-1.354.49-2.953.33-4.1-.538a3.845 3.845 0 0 1-.343-.293c.073-.872.045-1.821.045-1.821h3.963s.116 1.204.242 2.131c.026.187.091.366.193.521z" style="fill:#ffab90"></path>
      </g>
      <path d="M127.298 104.326c.202.154.024.956-1.243 1.701a5.275 5.275 0 0 1-3.58.266c-.66-.239-1.16-.636-1.346-1.02-.193-.388-.084-.632.047-.669.316-.054.56.236 1.661.393.878.247 1.839.18 2.666-.197 1.025-.342 1.557-.691 1.795-.474zM133.25 116.292c-.074-.288.3-.617 1.013-1.085a6.861 6.861 0 0 0 1.77-1.225c.69-.5 1.13-.736 1.379-.562.232.16.195.732-.45 1.536a8.208 8.208 0 0 1-2.114 1.462c-.982.321-1.53.155-1.599-.126zM115.498 114.594c-.17.22-.653.209-1.28-.315a7.16 7.16 0 0 1-1.108-1.696c-.226-.784-.043-1.23.233-1.3.291-.077.601.196.985.73.233.499.538.966.902 1.38.334.567.46.96.268 1.201z" style="fill:#fff"></path>
      <path d="M127.407 98.723c-.107.759-.26 1.56-.779 2.124-.46.5-1.152.738-1.832.77a2.88 2.88 0 0 1-1.09-.142c-.707-.246-1.254-.808-1.745-1.372a13.17 13.17 0 0 1-.531-.64 2.84 2.84 0 0 0-.629-.579l-.003-.002a2.56 2.56 0 0 1-.485-.483c-.116-.14-.234-.288-.263-.464a.629.629 0 0 1 .115-.46.919.919 0 0 1 .204-.202 4.329 4.329 0 0 1 .262-2.458 4.317 4.317 0 0 1 2.314-2.286l3.838-.602c.017.573.262 1.11.437 1.656.529 1.646.427 3.427.187 5.14z" style="fill:#fec9ac"></path>
      <path d="M128.72 93.03a2.72 2.72 0 0 1-1.184-1.048c-.115-.187-.208-.389-.311-.582a2.798 2.798 0 0 0-.232-.372c-.283-.368-.701-.617-1.144-.755-.444-.137-.912-.174-1.376-.18-.723-.007-1.456.061-2.137.304-.682.242-1.312.67-1.71 1.274-.285.433-.44.935-.59 1.43-.1.327-.198.655-.272.987a5.2 5.2 0 0 0-.11.668 3.095 3.095 0 0 0 .285 1.652c.168.339.363.655.456 1.045.055-.193.235-.332.43-.38.248-.063.514.003.747.093.176.068.578.34.578.34s.407-1.195.539-1.53c.363-.908 1.369-1.515 2.341-1.412-.138.114-.385.12-.42.295l.24.02c.274.025.549-.018.81-.106.24-.077.507-.104.704-.016.298.131.58.315.9.358.386.049.777-.121 1.063-.385.156-.145.283-.316.393-.499V93.03z" style="fill:#2e363a"></path>
      <g style="opacity:.5">
        <path d="M121.403 98.598a.175.175 0 0 1-.147.185.236.236 0 0 1-.122-.02c-.136-.054-.24-.168-.331-.284-.164-.21-.31-.454-.315-.721-.001-.084.013-.174.07-.237.08-.088.22-.094.336-.062a.714.714 0 0 1 .493.488l.016.651z" style="fill:#ffab90"></path>
      </g>
      <path d="M126.914 93.098c-.289.18-.663.118-.993.032-.513-.133-1.035-.312-1.562-.245a1.745 1.745 0 0 0-1.271.837c-.065.114-.12.234-.198.339-.191.254-.515.379-.831.402-.318.023-.633-.044-.944-.11-.305-.064-.608-.13-.911-.195a2.661 2.661 0 0 0-.44-.07c.074-.332.172-.66.271-.987.151-.495.306-.997.591-1.43.398-.604 1.028-1.032 1.71-1.274.68-.243 1.414-.31 2.137-.304.464.006.932.043 1.376.18.443.138.86.387 1.144.755.088.116.162.243.232.372.026.215.07.431.086.647.03.394-.061.844-.397 1.051z" style="fill:#2e363a"></path>
      <path d="M123.36 96.594c-.014-.01-.017-.043.007-.1a.531.531 0 0 1 .18-.207.778.778 0 0 1 .609-.096.53.53 0 0 1 .234.143c.04.046.048.08.036.093-.027.032-.12-.031-.313-.067a.603.603 0 0 0-.474.075c-.173.093-.241.182-.278.159zM125.849 96.095c-.023-.023.028-.14.237-.25.18-.08.38-.11.577-.09.232.041.317.136.301.166-.017.038-.12.012-.318.006a.989.989 0 0 0-.491.077c-.187.066-.277.122-.306.09zM125.037 99.058c.015-.013.064.026.156.09.046.03.105.066.175.081.066.015.161.002.21-.052.089-.08.025-.32.003-.507a6.01 6.01 0 0 0-.123-.582c-.106-.456-.174-.681-.135-.697.031-.013.163.191.304.652a6.186 6.186 0 0 1 .167.904.654.654 0 0 1-.003.174.33.33 0 0 1-.09.18.372.372 0 0 1-.373.067.502.502 0 0 1-.204-.142c-.082-.097-.1-.156-.087-.168zM125.314 100.185c.005.017-.032.048-.118.075a.993.993 0 0 1-.404.033 1.384 1.384 0 0 1-.813-.419.602.602 0 0 1-.156-.39c.005-.097.038-.137.055-.134.043.006.008.183.23.409.18.195.442.323.71.362.317.058.486.02.496.064z" style="fill:#4f2d2a"></path>
      <ellipse cx="126.464" cy="97.274" rx=".2" ry=".358" style="fill:#4f2d2a"></ellipse>
      <ellipse cx="124.126" cy="97.471" rx=".2" ry=".358" style="fill:#4f2d2a"></ellipse>
      <path d="M116.033 116.96s-.425 3.671-5.421 4.416c-4.997.742-7.852-14.058-7.852-14.058s1.544-.952 2.28-1.502c.086 0 4.038 7.851 4.247 8.27.207.42 2.846-3.33 2.846-3.33l3.9 6.203z" style="fill:#fec9ac"></path>
      <path d="M105.039 105.816c.02.32-1.893 1.68-2.28 1.502-.386-.18-2.549-2.548-2.531-4.417.017-1.87 3.928 2.214 3.877 1.886-.052-.33.241-1.523.537-1.316.293.207.397 2.345.397 2.345z" style="fill:#fec9ac"></path>
    </g>
    <circle cx="233.013" cy="97.632" r="10.751" style="fill:#fff"></circle>
    <defs>
      <circle id="SVGID_43_" cx="233.013" cy="97.632" r="10.751"></circle>
    </defs>
    <clipPath id="SVGID_4_">
      <use xlink:href="#SVGID_43_" style="overflow:visible"></use>
    </clipPath>
    <g style="clip-path:url(#SVGID_4_)">
      <path d="M238.61 123.22c.48.048 1.17-.01 1.963-.158 2.608-.487 6.344-1.955 7.501-3.918.174-.295.305-.585.396-.866.71-2.16-3.027-6.603-3.027-6.603-1.01 2.067-1.814 4.08-3.112 5.073.097.083.747 1.142.945 1.536.004.01.006.017.004.025.047.493-4.234 2.672-4.234 2.672s-.467.1-.944-.238c-.48-.338-1.377-.985-1.658-.568-.28.42 1.808 1.765.947 1.38-.712-.32-2.412-.691-3.067-.539-.134.03-.227.083-.253.164-.162.473 2.483 1.833 4.54 2.04z" style="fill:#fec9ac"></path>
      <path d="m240.62 117.91 1.268 7.001c-9.195 1.209-17.694-1.017-17.694-1.017l.432-4.456.24-2.478c-1.83-.576-3.9-6.203-3.9-6.203s1.291-1.892 3.69-4.181c1.931-1.846 4.363-3.108 7.002-3.525 2.465-.39 4.903-.049 7.07 1.301.304.19.619.417.94.673 3.477 2.778 7.662 9.01 7.662 9.01-2.952 4.096-6.71 3.875-6.71 3.875z" style="fill:#fe4c40"></path>
      <path d="m233.178 109.364.845 2.602h2.736l-2.213 1.608.845 2.602-2.213-1.608-2.214 1.608.846-2.602-2.214-1.608h2.736z" style="fill:#f3f6fd"></path>
      <path d="m240.62 117.91 1.268 7.001c-6.873 1.72-17.647-.433-17.694-1.017l.432-4.456c.447.103.9.185 1.355.245 1.996.26 4.091.047 5.882-.873 1.85-.95 3.27-2.595 4.292-4.408 1.02-1.813 1.677-3.803 2.328-5.78l1.185-3.597c3.477 2.778 7.662 9.01 7.662 9.01-2.952 4.096-6.71 3.875-6.71 3.875z" style="fill:#ea241f"></path>
      <path d="M241.887 125a.088.088 0 0 1-.086-.073l-2.358-12.736a.088.088 0 1 1 .173-.032l2.358 12.736a.088.088 0 0 1-.087.104z" style="fill:#c16244"></path>
      <path d="M224.194 123.982h-.01a.088.088 0 0 1-.078-.097l1.214-11.767a.09.09 0 0 1 .096-.079.088.088 0 0 1 .079.097l-1.214 11.767a.088.088 0 0 1-.087.08z" style="fill:#edba3b"></path>
      <path d="M235.884 103.167c-.247.733-1.166 1.237-1.862 1.428-.66.182-1.36.197-2.022.022-1.492-.394-1.53-1.318-1.53-1.318.253-.082.376-.725.433-1.416.073-.872.045-1.821.045-1.821h3.962s.116 1.204.242 2.131c.026.187.092.366.194.521a1.18 1.18 0 0 0 .538.453z" style="fill:#fec9ac"></path>
      <g style="opacity:.5">
        <path d="M235.346 102.714c-1.354.49-2.953.33-4.1-.538a3.844 3.844 0 0 1-.343-.293c.073-.872.045-1.821.045-1.821h3.962s.116 1.204.242 2.131c.026.187.092.366.194.521z" style="fill:#ffab90"></path>
      </g>
      <path d="M236.13 104.326c.203.154.024.956-1.242 1.701a5.275 5.275 0 0 1-3.58.266c-.66-.239-1.16-.636-1.346-1.02-.194-.388-.085-.632.046-.669.316-.054.56.236 1.662.393.878.247 1.839.18 2.666-.197 1.025-.342 1.556-.691 1.795-.474zM242.082 116.292c-.074-.288.301-.617 1.014-1.085a6.861 6.861 0 0 0 1.77-1.225c.69-.5 1.13-.736 1.378-.562.233.16.195.732-.45 1.536a8.208 8.208 0 0 1-2.114 1.462c-.98.321-1.53.155-1.598-.126zM224.33 114.594c-.17.22-.652.209-1.28-.315a7.16 7.16 0 0 1-1.107-1.696c-.227-.784-.043-1.23.233-1.3.29-.077.6.196.985.73.233.499.538.966.902 1.38.334.567.46.96.268 1.201z" style="fill:#fff"></path>
      <path d="M236.24 98.723c-.107.759-.261 1.56-.78 2.124-.46.5-1.152.738-1.831.77a2.88 2.88 0 0 1-1.091-.142c-.707-.246-1.253-.808-1.744-1.372a13.18 13.18 0 0 1-.531-.64 2.84 2.84 0 0 0-.63-.579l-.002-.002a2.56 2.56 0 0 1-.485-.483c-.117-.14-.234-.288-.264-.464a.629.629 0 0 1 .115-.46.919.919 0 0 1 .204-.202 4.329 4.329 0 0 1 .262-2.458 4.317 4.317 0 0 1 2.315-2.286l3.838-.602c.017.573.262 1.11.436 1.656.53 1.646.427 3.427.188 5.14z" style="fill:#fec9ac"></path>
      <path d="M237.553 93.03a2.72 2.72 0 0 1-1.185-1.048c-.114-.187-.207-.389-.31-.582a2.797 2.797 0 0 0-.233-.372c-.283-.368-.7-.617-1.144-.755-.444-.137-.911-.174-1.376-.18-.723-.007-1.456.061-2.136.304-.683.242-1.313.67-1.71 1.274-.285.433-.44.935-.591 1.43a13.8 13.8 0 0 0-.272.987c-.049.22-.088.443-.109.668a3.096 3.096 0 0 0 .285 1.652c.167.339.363.655.456 1.045.055-.193.235-.332.43-.38.248-.063.513.003.747.093.176.068.578.34.578.34s.406-1.195.538-1.53c.363-.908 1.37-1.515 2.342-1.412-.138.114-.385.12-.421.295l.24.02c.275.025.55-.018.81-.106.24-.077.507-.104.705-.016.297.131.579.315.9.358.386.049.776-.121 1.062-.385.157-.145.284-.316.394-.499V93.03z" style="fill:#2e363a"></path>
      <g style="opacity:.5">
        <path d="M230.235 98.598a.175.175 0 0 1-.146.185.236.236 0 0 1-.122-.02c-.137-.054-.241-.168-.331-.284-.164-.21-.31-.454-.315-.721-.002-.084.013-.174.07-.237.08-.088.22-.094.336-.062a.714.714 0 0 1 .492.488l.016.651z" style="fill:#ffab90"></path>
      </g>
      <path d="M235.747 93.098c-.289.18-.663.118-.993.032-.514-.133-1.035-.312-1.562-.245a1.745 1.745 0 0 0-1.271.837c-.066.114-.12.234-.198.339-.192.254-.515.379-.832.402-.318.023-.633-.044-.943-.11-.305-.064-.608-.13-.912-.195a2.66 2.66 0 0 0-.44-.07c.074-.332.173-.66.272-.987.15-.495.306-.997.59-1.43.398-.604 1.028-1.032 1.71-1.274.681-.243 1.414-.31 2.137-.304.465.006.932.043 1.376.18.443.138.861.387 1.144.755a2.8 2.8 0 0 1 .233.372c.026.215.07.431.085.647.03.394-.06.844-.396 1.051z" style="fill:#2e363a"></path>
      <path d="M232.194 96.594c-.016-.01-.018-.043.006-.1a.531.531 0 0 1 .18-.207.778.778 0 0 1 .608-.096.53.53 0 0 1 .235.143c.04.046.048.08.036.093-.028.032-.12-.031-.313-.067a.603.603 0 0 0-.474.075c-.173.093-.241.182-.278.159zM234.682 96.095c-.024-.023.028-.14.236-.25.181-.08.381-.11.578-.09.232.041.317.136.3.166-.016.038-.12.012-.317.006a.989.989 0 0 0-.492.077c-.186.066-.277.122-.305.09zM233.87 99.058c.015-.013.064.026.156.09.045.03.105.066.175.081.066.015.16.002.21-.052.088-.08.025-.32.003-.507a6.01 6.01 0 0 0-.123-.582c-.107-.456-.174-.681-.136-.697.032-.013.163.191.304.652a6.181 6.181 0 0 1 .167.904.654.654 0 0 1-.003.174.33.33 0 0 1-.09.18.372.372 0 0 1-.372.067.502.502 0 0 1-.204-.142c-.082-.097-.1-.156-.087-.168zM234.147 100.185c.004.017-.032.048-.118.075a.993.993 0 0 1-.404.033 1.384 1.384 0 0 1-.813-.419.602.602 0 0 1-.157-.39c.005-.097.039-.137.055-.134.043.006.008.183.231.409.18.195.442.323.71.362.317.058.486.02.496.064z" style="fill:#4f2d2a"></path>
      <ellipse cx="235.296" cy="97.274" rx=".2" ry=".358" style="fill:#4f2d2a"></ellipse>
      <ellipse cx="232.958" cy="97.471" rx=".2" ry=".358" style="fill:#4f2d2a"></ellipse>
      <path d="M224.866 116.96s-.425 3.671-5.422 4.416c-4.997.742-7.852-14.058-7.852-14.058s1.545-.952 2.28-1.502c.087 0 4.038 7.851 4.248 8.27.207.42 2.845-3.33 2.845-3.33l3.901 6.203z" style="fill:#fec9ac"></path>
      <path d="M213.871 105.816c.02.32-1.893 1.68-2.279 1.502-.386-.18-2.549-2.548-2.532-4.417.018-1.87 3.93 2.214 3.877 1.886-.052-.33.242-1.523.538-1.316.293.207.396 2.345.396 2.345z" style="fill:#fec9ac"></path>
    </g>
    <circle cx="179.466" cy="89.546" r="14.583" style="fill:#64d3ff"></circle>
    <defs>
      <circle id="SVGID_45_" cx="179.466" cy="89.546" r="14.583"></circle>
    </defs>
    <clipPath id="SVGID_6_">
      <use xlink:href="#SVGID_45_" style="overflow:visible"></use>
    </clipPath>
    <g style="clip-path:url(#SVGID_6_)">
      <path d="M171.842 93.998c.018-.555.011-1.122.188-1.647.304-.899 1.096-1.539 1.576-2.358.366-.623.533-1.313.572-2.028l.005-.014c.215-.662.326-1.391.494-2.07.165-.671.276-1.35.38-2.032.085-.547.183-1.07.346-1.591.02.012.04.021.06.034.757-2.298 3.258-3.88 5.658-3.582 2.4.297 4.438 2.445 4.61 4.856.073 1.011-.11 2.152.537 2.932 1.033 1.245 3.233.51 4.499 1.517.689.55.926 1.487 1.005 2.364.077.876.043 1.783.36 2.605.823 2.14 3.548 2.793 5.056 4.52 1.473 1.69 1.552 4.338.446 6.287-1.106 1.949-3.224 3.2-5.433 3.572-2.21.374-4.496-.057-6.583-.875-1.258-.493-2.495-1.135-3.842-1.22-1.785-.114-3.526.768-5.307.617-2.313-.195-4.281-2.376-4.239-4.697l-2.102-.697c.463-.763.808-1.616 1.06-2.466.386-1.308.605-2.665.654-4.027z" style="fill:#7a4036"></path>
      <path d="M167.994 106.616c1.805 1.424 4.114 2.545 4.114 2.545l-.39 4.8h17.3v-3.5c9.236-1.17 10.284-4.01 10.284-4.01s-1.117-1.68-3.792-4.8c0-.002 0-.003-.003-.005a124.596 124.596 0 0 0-3.107-3.478c-2.132-2.3-4.687-3.583-7.17-4.196a15.093 15.093 0 0 0-.878-.188c-2.827-.527-5.48-.22-7.208.4-.076.027-.15.054-.222.083-.402.158-.859.374-1.352.639-3.575 1.913-9.068 6.294-9.64 8.467-.272 1.035.766 2.217 2.064 3.243z" style="fill:#ffcf3d"></path>
      <path d="M189.05 113.972v-3.5c9.234-1.17 10.283-4.01 10.283-4.01s-1.117-1.68-3.792-4.8c.6.936.11 2.549-.4 3.538a3.246 3.246 0 0 1-2.69 1.716c-1.975.081-3.519-1.6-4.76-3.138a6.331 6.331 0 0 1-2.724 4.595 6.325 6.325 0 0 1-5.28.796c-1.964-.593-3.546-2.156-4.454-3.996-.906-1.84-1.441-4.037-1.393-6.087-1.438 2.785-1.966 6.178-1.768 10.054.043.022.067.032.067.032l-.39 4.8h17.3z" style="fill:#fcc230"></path>
      <path d="M189.018 110.973a.5.5 0 0 1-.49-.408l-1.177-6.315a.5.5 0 0 1 .4-.584.506.506 0 0 1 .583.4l1.176 6.315a.5.5 0 0 1-.492.592zM172.108 109.673a.499.499 0 0 1-.497-.46c-.022-.273-.509-6.713 1.774-10.391a.5.5 0 0 1 .85.527c-2.108 3.398-1.633 9.72-1.628 9.784a.5.5 0 0 1-.499.54z" style="fill:#2e363a"></path>
      <path d="M177.389 95.76c.434.733 1.307 1.172 2.592 1.301.205.022.407.032.6.032 1.75 0 3.032-.853 3.645-2.41l.134-.884a.07.07 0 0 0-.008-.015c-2.827-.527-5.48-.22-7.208.4-.078.437-.083 1.024.245 1.576z" style="fill:#edba3b"></path>
      <path d="M175.316 87.609c.295 4.19 2.842 4.266 2.842 4.266l.001.014c.277 1.823-.24 1.884-.24 1.884s-.01.02-.023.055c-.149.352-.834 2.31 2.148 2.612 3.279.331 3.686-2.381 3.743-2.381 0 0-.564-1.297-.506-2.698.055-1.401.942-2.696.195-6.629-.744-3.933-5.641-4.13-6.67-3.421-1.026.709-1.786 2.11-1.49 6.298z" style="fill:#fec9ac"></path>
      <g style="opacity:.5">
        <path d="M177.896 93.828c.964.005 1.952-.324 2.712-1.169.506-.56.893-1.338 1.095-2.2-1.072.888-2.303 1.381-3.544 1.43.277 1.823-.24 1.884-.24 1.884s-.01.02-.023.055z" style="fill:#ffab90"></path>
      </g>
      <path d="M185.02 92.252c-.391-.53-.506-1.218-.493-1.877s.14-1.309.183-1.966c.038-.596-.02-1.259-.45-1.674-.315-.304-.765-.411-1.186-.535-3.561-.508-3.486-3.662-6.546-3.848-.588.198-.869.857-1.04 1.453a14.352 14.352 0 0 0 .05 8.032c.075.247.156.502.116.756-.04.254-.247.504-.504.494-.3-.012-.476-.337-.575-.62-.547-1.572-.602-3.281-.399-4.932.203-1.652.657-3.26 1.109-4.862.145-.515.306-1.057.693-1.427.4-.382.976-.515 1.528-.551 1.833-.12 3.94.372 5.279 1.63s1.945 3.246 2.532 4.987c.458 1.355.75 2.766.982 4.176.054.331.237 1.076-.102 1.329-.377.28-.97-.284-1.177-.565z" style="fill:#7a4036"></path>
      <path d="m181.703 87.033.485 1.702c.358.307.912.23 1.27-.073.36-.305.555-.782.662-1.26.103-.457.118-.994-.181-1.337-.318-.363-.884-.352-1.29-.108-.404.242-.685.665-.946 1.076z" style="fill:#fec9ac"></path>
      <g style="opacity:.5">
        <path d="M182.485 88.097c-.013.133.086.265.208.28a.316.316 0 0 0 .174-.03c.194-.082.343-.255.471-.432.234-.32.44-.693.449-1.1.002-.128-.019-.266-.1-.36-.113-.136-.313-.145-.479-.096-.333.095-.608.39-.7.744l-.023.994z" style="fill:#ffab90"></path>
      </g>
      <path d="M180.448 85.846c.019-.011.022-.053-.008-.122a.65.65 0 0 0-.22-.253.952.952 0 0 0-.744-.117.648.648 0 0 0-.286.173c-.05.057-.06.098-.045.115.034.04.147-.039.383-.082a.738.738 0 0 1 .58.091c.211.114.295.223.34.195zM177.405 85.235c.029-.027-.035-.17-.29-.306a1.423 1.423 0 0 0-.705-.11c-.284.051-.388.168-.369.204.021.046.148.014.39.008.203-.02.413.012.6.094.228.08.34.15.374.11zM178.398 88.86c-.018-.017-.078.031-.19.11a.625.625 0 0 1-.214.099c-.082.017-.198.002-.257-.064-.109-.098-.031-.392-.004-.62.038-.24.088-.478.15-.712.13-.557.213-.833.166-.852-.039-.016-.2.233-.372.798a7.569 7.569 0 0 0-.204 1.105.8.8 0 0 0 .003.212.404.404 0 0 0 .11.22.454.454 0 0 0 .456.082.614.614 0 0 0 .25-.174c.1-.117.122-.19.106-.204zM177.992 90.068c-.006.02.04.058.144.091.104.032.271.065.494.04.374-.056.731-.226.995-.511.147-.177.197-.36.19-.478-.005-.119-.046-.168-.066-.163-.053.006-.01.223-.283.5-.22.238-.54.394-.867.442-.388.071-.595.024-.607.079z" style="fill:#4f2d2a"></path>
      <ellipse cx="176.653" cy="86.678" rx=".244" ry=".438" style="fill:#4f2d2a"></ellipse>
      <ellipse cx="179.513" cy="86.919" rx=".244" ry=".438" style="fill:#4f2d2a"></ellipse>
      <path d="M190.68 88.245a4.258 4.258 0 0 0-.123-.653c.044.077.075.219.126.391.103.398.332.694.45.794.03-.024-.034.03-.132.076-.155-.07-.29-.308-.32-.608z" style="fill:#7a4036"></path>
      <g style="opacity:.44">
        <path d="M176.17 81.009c.128.063.266.112.403.148.416.109.85.13 1.271.223 2.15.479 3.517 2.721 5.622 3.377.481.15.99.208 1.49.176-.08-.64-.213-1.27-.475-1.857-.442-.997-1.351-1.865-2.42-1.971a4.607 4.607 0 0 0-1.144-.608c-1.552-.559-3.308-.304-4.747.512z" style="fill:#9c5f50"></path>
      </g>
      <path d="M179.797 113.946c1.36.186 17.247 1.854 17.996-1.14.184-.74.262-1.4.277-1.977.047-1.765-.509-2.745-.509-2.745-.012-.168-2.95 1.777-8.131 2.316-1.412.148-2.991.19-4.723.058 0 0-3.427-1.946-4.508-1.483-1.08.463 1.258 1.584 1.415 1.626l.002.002c-.114 0-3.708-.512-3.887.44-.185.99.71 2.719 2.068 2.903z" style="fill:#fec9ac"></path>
      <g style="opacity:.5">
        <path d="M189.43 110.4c1.654 1.233 3.813 1.778 5.853 1.456a7.729 7.729 0 0 0 2.787-1.027c.047-1.765-.509-2.745-.509-2.745-.012-.168-2.95 1.777-8.131 2.316z" style="fill:#ffab90"></path>
      </g>
    </g>
    <path d="M44.183 239.578h6.87v11.187h-6.87z" style="fill:#fec9ac"></path>
    <path d="M51.053 241.168v3.957a26.764 26.764 0 0 1-6.87-.48v-3.477h6.87z" style="fill:#ffab90"></path>
    <path d="M53.692 254.88H31.878c-.52 0-.995-.218-1.34-.58a2.032 2.032 0 0 1-.56-1.403c0-.83.492-1.57 1.233-1.866 2.296-.9 6.31-1.9 7.158-2.789 1.137-1.184 3.121-3.168 4.54-3.067 1.42.1 2.268 2.475 4.445 3.86 1.544.984 3.212-1.444 4.043-2.937.282-.503.99-.51 1.255 0 1.764 3.335 1.04 8.783 1.04 8.783z" style="fill:#2e363a"></path>
    <path d="M69.365 239.578h6.87v11.187h-6.87z" style="fill:#fec9ac"></path>
    <path d="M69.365 238.86v6.265a26.764 26.764 0 0 0 6.87-.48v-5.785h-6.87z" style="fill:#ffab90"></path>
    <path d="M66.725 254.88H88.54c.52 0 .995-.218 1.34-.58.345-.36.56-.858.56-1.403 0-.83-.493-1.57-1.233-1.866-2.296-.9-6.31-1.9-7.158-2.789-1.137-1.184-3.122-3.168-4.54-3.067-1.42.1-2.268 2.475-4.445 3.86-1.544.984-3.212-1.444-4.043-2.937-.283-.503-.99-.51-1.255 0-1.764 3.335-1.04 8.783-1.04 8.783z" style="fill:#2e363a"></path>
    <path d="M39.528 241.811s5.448.433 10.058.228c.644-.027 1.272-.07 1.867-.125 1.683-.168 3.095-.449 3.853-.925 2.938-1.834 2.705-62.48 2.705-62.48s7.1 62.388 8.29 63.016c.433.227 2.153.135 4.263-.157 3.707-.52 8.62-1.672 9.854-2.809 1.304-1.2-.265-42.605-1.429-69.497-.427-9.983-.806-17.97-.958-21.151-.043-.969-.07-1.494-.07-1.494l-2.516.103-37.351 1.559c-.341 1.011-.514 4.718-.563 10.118-.227 24.463 1.997 83.614 1.997 83.614z" style="fill:#3a4146"></path>
    <path d="M37.531 158.197a189.21 189.21 0 0 1 26.016 4.605c4.642 1.163 9.29 2.521 13.419 4.94.692.406 1.368.844 2.023 1.32-.427-9.983-.806-17.97-.958-21.151a35.27 35.27 0 0 0-1.32-.736 69.117 69.117 0 0 0-1.266-.655l-37.351 1.559c-.341 1.011-.514 4.718-.563 10.118zM51.453 241.914c1.683-.168 3.095-.449 3.853-.925 2.938-1.834 2.705-62.48 2.705-62.48s7.1 62.388 8.29 63.016c.433.227 2.153.135 4.263-.157-3.284-21.6-11.6-70.829-13.884-70.883l-5.227 71.43z" style="fill:#2e363a"></path>
    <path d="m36.518 131.397-3.404 18.787c24.673 3.244 47.48-2.73 47.48-2.73l-1.158-11.956-.645-6.65c4.91-1.545 10.465-16.646 10.465-16.646s-3.466-5.077-9.901-11.22c-5.183-4.951-11.709-8.338-18.791-9.456-6.612-1.046-13.156-.133-18.97 3.49a26.601 26.601 0 0 0-2.522 1.806c-9.33 7.455-20.56 24.18-20.56 24.18 7.921 10.99 18.006 10.395 18.006 10.395z" style="fill:#a698bb"></path>
    <path d="m36.518 131.397-3.404 18.787c18.442 4.614 47.353-1.163 47.48-2.73l-1.158-11.956a39.08 39.08 0 0 1-3.638.658c-5.354.699-10.978.124-15.783-2.344-4.965-2.55-8.777-6.963-11.517-11.829-2.737-4.865-4.5-10.205-6.247-15.509l-3.179-9.652c-9.33 7.455-20.56 24.18-20.56 24.18 7.921 10.99 18.006 10.395 18.006 10.395z" style="fill:#8d7ea3"></path>
    <path d="M33.115 150.42c.112 0 .212-.079.232-.193l6.329-34.175a.236.236 0 1 0-.465-.086l-6.329 34.175a.236.236 0 0 0 .233.28zM80.594 147.691h.025a.236.236 0 0 0 .21-.26l-3.255-31.576a.24.24 0 0 0-.26-.211.236.236 0 0 0-.21.26l3.255 31.575a.236.236 0 0 0 .235.212z" style="fill:#7e6a9d"></path>
    <path d="M49.224 91.837c.664 1.967 3.13 3.319 4.998 3.832 1.771.487 3.648.527 5.426.058 4.003-1.058 4.102-3.537 4.102-3.537-.676-.219-1.005-1.944-1.16-3.8-.195-2.34-.119-4.887-.119-4.887H51.838s-.312 3.231-.65 5.72c-.07.501-.245.982-.519 1.399-.242.376-.56.705-.944.953-.288.186-.501.262-.501.262z" style="fill:#fec9ac"></path>
    <g style="opacity:.5">
      <path d="M50.67 90.622c3.633 1.314 7.923.886 11-1.446.323-.244.63-.507.92-.786-.195-2.34-.119-4.887-.119-4.887H51.838s-.312 3.231-.65 5.72c-.07.501-.245.982-.519 1.399z" style="fill:#ffab90"></path>
    </g>
    <path d="M32.587 127.08c-.056.25-1.389.292-3.79-.706a20.876 20.876 0 0 1-5.383-3.723c-1.779-1.894-2.21-3.156-1.99-3.3.262-.189 1.095.735 2.918 2.326a19.547 19.547 0 0 0 5.039 3.486c2.133 1.146 3.291 1.599 3.206 1.918zM80.21 122.48c-.193-.239.435-.982 1.588-2.457a16.73 16.73 0 0 0 2.593-3.971c.887-1.647 1.315-2.52 1.618-2.438.264.065.329 1.11-.4 3.008-.723 1.553-1.668 3-2.799 4.287-1.446 1.432-2.43 1.792-2.6 1.571z" style="fill:#fff"></path>
    <path d="M65.589 79.911c-.286 2.037-.7 4.184-2.09 5.699-1.235 1.343-3.093 1.982-4.916 2.068-.99.048-1.992-.054-2.927-.382-1.897-.662-3.364-2.17-4.68-3.681-.49-.558-.972-1.128-1.426-1.717-.47-.61-1.057-1.112-1.687-1.554a3.637 3.637 0 0 1-.01-.006c-.502-.353-.912-.824-1.3-1.295-.312-.376-.627-.773-.707-1.248-.073-.43.06-.878.309-1.23.152-.21.337-.392.547-.545-.407-2.202-.172-4.53.703-6.596a11.583 11.583 0 0 1 6.211-6.134l10.3-1.617c.044 1.54.703 2.982 1.17 4.445 1.42 4.417 1.146 9.196.503 13.793z" style="fill:#fec9ac"></path>
    <path d="M68.988 66.684a3.66 3.66 0 0 1-.508 1.569c-.833 1.391-2.63 2.116-4.203 1.716-.006.006-.006 0-.006 0-.502-.205-.987-.479-1.483-.701-.53-.234-1.243-.16-1.888.046-.701.233-1.437.347-2.173.285l-.644-.057c.097-.468.758-.485 1.13-.788-2.613-.279-5.31 1.352-6.286 3.788-.354.895-1.443 4.106-1.443 4.106s-1.078-.736-1.551-.918c-.628-.24-1.34-.417-2.008-.245-.519.125-1.004.501-1.152 1.02-.25-1.049-.776-1.899-1.22-2.806-.674-1.363-.907-2.92-.765-4.431.046-.559.143-1.118.263-1.665.011-.04.017-.086.028-.126.006-.017.006-.034.011-.051a18.292 18.292 0 0 1 .16-.65c.052-.212.109-.423.171-.634.057-.21.12-.422.183-.633l.205-.684c.051-.177.109-.36.165-.536l.069-.223c.148-.467.44-.878.833-1.169 0-.006.005-.006.005-.006.189-.148.371-.285.56-.422.09-.074.182-.142.273-.21.188-.143.377-.286.576-.434.103-.074.2-.154.308-.234.662-.04 1.335-.068 1.922-.36 1.158-.575 1.728-2.041 2.96-2.44 1.637-.53 3.308 1.152 5.008.844 1.192-.217 2.11-1.392 3.325-1.386 1.095 0 1.94.952 2.492 1.9.325.552.628 1.151 1.01 1.67-.052-.524.176-.787.388-.405v.006c.074.137.752 1.164 1.072 1.506.36.399.764.753 1.209 1.055.085.08.16.165.234.25a3.47 3.47 0 0 1 .77 2.453z" style="fill:#c16244"></path>
    <g style="opacity:.5">
      <path d="M49.476 79.577a.469.469 0 0 1-.393.494.632.632 0 0 1-.327-.054c-.366-.144-.647-.448-.888-.76-.44-.565-.83-1.219-.846-1.936-.003-.226.036-.467.187-.635.215-.237.592-.253.904-.167a1.915 1.915 0 0 1 1.32 1.309l.043 1.749z" style="fill:#ffab90"></path>
    </g>
    <path d="M54.732 74.198c-.042-.024-.048-.116.017-.267.067-.149.209-.36.481-.556a2.089 2.089 0 0 1 1.635-.257c.319.102.519.26.628.381.108.124.13.214.097.25-.074.088-.322-.083-.84-.179a1.619 1.619 0 0 0-1.272.2c-.464.25-.647.49-.746.428zM61.408 72.858c-.063-.06.076-.373.635-.671a3.123 3.123 0 0 1 1.55-.242c.622.112.85.367.808.447-.046.102-.324.031-.854.017a2.654 2.654 0 0 0-1.318.207c-.5.175-.744.327-.821.242zM59.23 80.81c.04-.035.171.07.417.241.123.082.283.179.47.218.178.039.433.006.564-.14.237-.214.067-.86.008-1.361a16.127 16.127 0 0 0-.329-1.562c-.286-1.222-.468-1.828-.364-1.868.085-.036.437.511.816 1.75a16.596 16.596 0 0 1 .448 2.424c.013.143.02.298-.008.466a.885.885 0 0 1-.242.482c-.347.301-.735.268-1 .181a1.347 1.347 0 0 1-.547-.381c-.22-.259-.269-.418-.233-.45zM59.973 83.835c.012.044-.087.127-.317.2-.229.07-.595.142-1.084.089-.82-.125-1.604-.497-2.182-1.123-.323-.39-.433-.79-.42-1.048.014-.261.104-.369.148-.358.116.013.021.488.62 1.095.482.524 1.185.867 1.903.972.85.156 1.305.052 1.332.173z" style="fill:#4f2d2a"></path>
    <ellipse cx="63.058" cy="76.023" rx=".535" ry=".962" style="fill:#4f2d2a"></ellipse>
    <ellipse cx="56.783" cy="76.551" rx=".535" ry=".962" style="fill:#4f2d2a"></ellipse>
    <path d="M108.87 104.278s-6.421 33.296-17.663 31.625c-7.3-1.09-10.266-4.956-11.44-7.528 3.78-2.441 7.693-11.63 9.022-14.96 1.717 2.355 5.048 6.787 5.395 6.085.474-.94 9.36-18.604 9.56-18.604 1.653 1.237 5.127 3.382 5.127 3.382z" style="fill:#fec9ac"></path>
    <path d="M103.742 100.898c-.043.718 4.26 3.781 5.128 3.378.87-.402 5.735-5.732 5.696-9.936-.039-4.208-8.838 4.98-8.722 4.243.117-.743-.544-3.427-1.209-2.961-.66.466-.893 5.276-.893 5.276z" style="fill:#fec9ac"></path>
    <path d="m61.287 135.003-4.084 3.023-4.083-3.023 2.557-32.055-2.253-1.893 3.274-3.759 3.376 3.759-2.253 1.893z" style="fill:#2e363a"></path>
    <path d="M48.363 91.793c.43-.134 1.069-.353 1.496-.468a.55.55 0 0 1 .635.282c.327.64 1.063 2.026 2.448 2.972 1.674 1.4 4.528 2.002 4.473 1.884-.75 1.318-1.808 2.568-3.15 3.635-3.634-1.762-5.765-4.827-6.284-7.695a.545.545 0 0 0 .382-.61z" style="fill:#f3f6fd"></path>
    <path d="M65.546 92.322c-.42-.162-1.044-.423-1.463-.565a.55.55 0 0 0-.653.24c-.367.618-1.192 1.952-2.636 2.806-1.761 1.287-4.649 1.702-4.587 1.588.663 1.364 1.637 2.68 2.905 3.833 3.728-1.516 6.052-4.418 6.766-7.237a.558.558 0 0 1-.332-.665z" style="fill:#f3f6fd"></path>
    <path d="M159.74 213.171c0 .378.306.684.684.684h39.87a6.346 6.346 0 0 0 6.201-4.998l9.227-41.232a2.38 2.38 0 0 0-2.323-2.892h-16.87c-1.119 0-2.088.782-2.328 1.874l-9.351 41.801a5.18 5.18 0 0 1-5.06 4.079h-19.366a.684.684 0 0 0-.684.684zM178.06 255.056l6.045-41.2h2.204l-6.046 41.2zM202.735 255.056l-6.046-41.2h2.204l6.046 41.2zM155.228 255.056l6.045-41.2h2.205l-6.046 41.2z" style="fill:#d1dcf8"></path>
    <path d="m179.904 255.056-6.046-41.2h2.204l6.045 41.2zM227.11 213.171c0 .378.306.684.684.684h39.869a6.346 6.346 0 0 0 6.202-4.998l9.227-41.232a2.38 2.38 0 0 0-2.324-2.892H263.9c-1.12 0-2.088.782-2.328 1.874l-9.351 41.801a5.18 5.18 0 0 1-5.06 4.079h-19.366a.684.684 0 0 0-.685.684zM245.429 255.056l6.046-41.2h2.204l-6.046 41.2zM270.105 255.056l-6.046-41.2h2.204l6.046 41.2zM222.598 255.056l6.045-41.2h2.204l-6.046 41.2z" style="fill:#d1dcf8"></path>
    <path d="m247.274 255.056-6.046-41.2h2.204l6.045 41.2z" style="fill:#d1dcf8"></path>
    <path d="M243.507 189.56h-29.335l10.792 64.089h-1.806l-10.785-64.09h-83.69L117.9 253.65h-1.806l10.792-64.09h-21.026a3.295 3.295 0 0 1-3.286-3.296v-.852h144.23v.852a3.297 3.297 0 0 1-3.296 3.297z" style="fill:#ffab90"></path>
    <path d="m156.245 183.891 6.933-21.825a.63.63 0 0 1 .6-.44h24.528c.44 0 .746.442.59.854l-8.52 22.523a.63.63 0 0 1-.59.408h-40.957v-1.08h16.816a.63.63 0 0 0 .6-.44z" style="fill:#3a4146"></path>
    <ellipse cx="172.495" cy="174.348" rx="2.547" ry="1.928" style="fill:#2e363a" transform="rotate(-54.901 172.495 174.348)"></ellipse>
    <path d="m120.548 182.09-.162-.017c-2.162-.23-3.793-1.84-3.793-3.746 0-.484.455-.877 1.014-.877h2.941v-1.026h-2.941c-1.172 0-2.125.854-2.125 1.903 0 2.467 2.093 4.517 4.868 4.77l.198.017v-1.024z" style="fill:#fe4c40"></path>
    <path d="M120.55 185.41h3.492c.138 0 .267-.07.338-.189 1.563-2.604 2.367-5.96 2.155-9.54a.397.397 0 0 0-.394-.371h-7.698a.397.397 0 0 0-.395.37c-.21 3.582.6 6.938 2.163 9.541.07.119.2.19.338.19z" style="fill:#fe4c40"></path>
    <path d="M120.21 185.222c.073.116.203.189.342.189h1.576c-2.049-2.507-3.502-5.806-4.09-9.505-.168 3.495.646 6.765 2.172 9.316z" style="fill:#fe4c40"></path>
    <path d="M123.13 174.429c-.377-.307-.623-.719-.604-1.123-.005-.406.262-.77.453-1.242.183-.444.337-.998.176-1.524-.156-.515-.5-.891-.87-1.202.212.437.437.862.492 1.284.055.417-.075.83-.256 1.254-.083.221-.183.41-.275.66a1.598 1.598 0 0 0-.105.797c.068.566.522.978.988 1.096z" style="fill:#d1dcf8"></path>
    <path d="M121.564 167.602c-.239.335-.446.705-.502 1.153a1.54 1.54 0 0 0 .066.684c.07.224.246.446.407.583.167.138.274.228.339.363.075.133.101.302.108.476.005.35-.141.73-.255 1.129.286-.293.555-.633.64-1.092.043-.225.025-.47-.065-.705-.094-.243-.305-.423-.44-.543-.275-.21-.385-.513-.415-.88-.024-.361.066-.756.117-1.168z" style="fill:#d1dcf8"></path>
  </g>
</svg>
