<svg xmlns="http://www.w3.org/2000/svg" enable-background="new 0 0 3000 3000" viewBox="0 0 3000 3000" id="queue-to-apply-job-recruitment">
  <path fill="#E2E9F7" d="M501.206,2689.663c101.89,4.468,1921.548-4.22,2007.234-15.67
	c85.687-11.45,28.096-64.345-12.707-75.795c-40.802-11.45-1900.68-5.859-1949.644,11.316
	C497.125,2626.688,435.921,2686.801,501.206,2689.663z"></path>
  <g>
    <g>
      <g>
        <g>
          <g>
            <polygon fill="#E2E9F7" points="2226.778 2519.413 2224.453 2592.468 2189.784 2587.197 2180.728 2522.449"></polygon>
            <path fill="#B3C6E7" d="M2231.486,2574.4c-3.617-3.876-21.361-1.487-40.395,2.362c-3.781-5.101-11.042-14.729-11.725-13.558
						c-0.893,1.529-9.335,5.819-1.839,16.475c-6.24,1.41-12.304,2.853-17.707,4.163c-25.671,6.222-31.178,17.529-35.222,22.062
						c-4.048,4.532-1.156,14.271-1.156,14.271l115.461-7.262C2238.903,2612.912,2237.154,2580.473,2231.486,2574.4z"></path>
            <path fill="#85A3D6" d="M2116.908,2612.594c0,0-3.919,11.499,2.353,14.374c6.271,2.875,120.735-7.056,121.519-10.976
						c0.784-3.92,0.523-6.272-0.262-6.534c-0.784-0.261-101.135,7.84-101.919,7.84S2125.793,2600.051,2116.908,2612.594z"></path>
          </g>
          <g>
            <path fill="#B3C6E7" d="M2085.461,1543.024c-6.577,64.183-21.341,246.262-1.53,440.071
						c15.231,149.007,87.031,564.284,87.031,564.284l60.67,0.929l42.395-574.816c0,0,82.36-334.262,83.683-430.468H2085.461z"></path>
          </g>
          <g opacity=".5">
            <path fill="#85A3D6" d="M2357.385,1552.009c-5.715,106.414-83.347,421.474-83.347,421.474l-42.371,574.789l-14.564-0.209
						c0.906-121.188-0.627-521.895-0.627-521.895l-33.451-468.305C2183.024,1557.863,2266.023,1556.538,2357.385,1552.009z"></path>
          </g>
        </g>
        <g>
          <g>
            <polygon fill="#E2E9F7" points="2450.834 2514.857 2458.519 2587.544 2423.456 2587.062 2409.843 2544.99"></polygon>
            <path fill="#B3C6E7" d="M2465.116,2574.4c-3.617-3.876-21.361-1.487-40.395,2.362c-3.781-5.101-11.042-14.729-11.725-13.558
						c-0.893,1.529-9.335,5.819-1.839,16.475c-6.241,1.41-12.304,2.853-17.708,4.163c-25.671,6.222-31.178,17.529-35.222,22.062
						c-4.048,4.532-1.156,14.271-1.156,14.271l115.461-7.262C2472.532,2612.912,2470.784,2580.473,2465.116,2574.4z"></path>
            <path fill="#85A3D6" d="M2350.93,2610.243c0,0-3.92,11.499,2.352,14.374c6.272,2.874,120.735-7.056,121.519-10.976
						c0.784-3.92,0.522-6.272-0.262-6.533c-0.784-0.261-101.135,7.84-101.919,7.84S2359.815,2597.699,2350.93,2610.243z"></path>
          </g>
          <path fill="#B3C6E7" d="M2409.498,1543.024h-237.427c50.292,347.412,171.828,890.945,232.823,1014.692
					c14.524-3.857,38.409-9.074,53.05-12.544l-47.082-480.81L2409.498,1543.024z"></path>
          <path fill="#85A3D6" d="M2087.116,1530.946c0,0-6.271,32.928-3.136,42.335
					c3.136,9.408,152.095,8.624,157.583,10.192c5.488,1.568,35.28,116.815,58.016,123.086
					c22.736,6.272,108.975-13.328,108.975-13.328v-162.287H2087.116z" opacity=".5"></path>
        </g>
      </g>
      <path fill="#B3C6E7" d="M2172.571,1040.427c0,0-21.951,22.997-29.269,34.496c-7.318,11.498-54.357,176.66-52.266,189.204
			c2.09,12.544,55.402,43.903,55.402,43.903s98.261-154.708,96.17-181.886C2240.517,1098.965,2172.571,1040.427,2172.571,1040.427z"></path>
      <path fill="#B3C6E7" d="M1940.838,1158.423l-3.6,10.8l44.1,63.9c0,0,85.5,217.8,105.3,232.2c19.8,14.4,56.7,19.8,56.7,19.8
			s37.8-224.1,27.9-213.3c-9.9,10.8-50.4-3.6-50.4-3.6l-34.2,98.1L1940.838,1158.423z"></path>
      <path fill="#85A3D6" d="M2086.638,1366.323l-16.2,72.9c0,0,18.9,39.15,24.3,39.15c5.4,0,20.25-74.25,20.25-74.25
			L2086.638,1366.323z"></path>
      <path fill="#B3C6E7" d="M2072.917,1545.875c0,0,69.993-484.15,102.791-505.448c35.949-23.345,83.504-42.021,108.293-28.081
			c24.789,13.94,166.764,521.774,164.51,535.715C2446.257,1562.002,2102.965,1569.579,2072.917,1545.875z"></path>
      <path fill="#85A3D6" d="M2139.121,1179.455c0,0-38.677,232.062-43.904,224.745
			C2089.991,1396.882,2129.19,1192.653,2139.121,1179.455z"></path>
      <g>
        <path fill="#85A3D6" d="M2187.075,1031.672c0,0-78.269,201.095,65.986,364.165c37.277,67.974,110.558,44.952,149.35,18.157
				c6.728-4.647-34.875-149.213-30.184-153.005c7.719-6.239,59.73,129.494,59.73,129.494s91.698,196.191,93.831,234.577
				c2.132,38.385-203.655,68.24-233.51,63.975c-13.719-1.96-43.88-138.395-71.959-285.618
				c-125.102-151.836-55.987-359.564-53.105-361.293C2176.825,1031.714,2187.075,1031.672,2187.075,1031.672z"></path>
        <path fill="#B3C6E7" d="M2282.853,1517.095c1.568,27.178,35.018,117.86,48.085,128.836c13.067,10.976,71.082,7.056,64.287,8.624
				c-6.795,1.568-64.81,15.418-75.002-0.522c-7.575-11.849-43.642-125.962-43.642-132.234S2282.853,1517.095,2282.853,1517.095z"></path>
        <path fill="#B3C6E7" d="M2319.533,1470.937c0,0,22.82,127.85,48.373,145.136c25.553,17.286,161.587-2.255,155.574-25.553
				s-57.119-157.828-64.635-160.834C2451.331,1426.679,2419.97,1478.369,2319.533,1470.937z"></path>
        <path fill="#85A3D6" d="M2371.706 1524.412c4.181 17.771 12.544 52.789 22.998 67.424 10.453 14.634 73.173 5.749 74.218-3.136 1.045-8.885-14.635-77.877-21.952-77.877C2439.652 1510.823 2371.706 1524.412 2371.706 1524.412zM2459.513 1508.21c4.921 17.183 20.929 52.423 28.144 66.025 7.215 13.602 33.995-.057 32.949-8.893-1.046-8.837-19.902-75.588-23.203-75.016C2494.102 1490.897 2459.513 1508.21 2459.513 1508.21z"></path>
      </g>
      <g>
        <g>
          <g>
            <path fill="#E2E9F7" d="M2082.263,894.668c0,0,9.525,21.953,22.302,46.944c3.495,6.835-0.499,21.46,3.354,28.363
						c1.554,2.784,10.857-2.022,12.44,0.684c14.462,24.728,29.783,45.173,39.544,41.977c23.167-7.583,39.624-28.271,39.624-28.271
						l-3.906,34.936c0,0,46.37,22.232,59.091-23.985l-17.525-61.865l-19.927-77.856
						C2217.26,855.595,2097.836,822.859,2082.263,894.668z"></path>
          </g>
        </g>
      </g>
      <path fill="#B3C6E7" d="M2150.097,1008.806c1.307,0,46.256-22.474,59.061-41.29c0,0,3.398,44.165,0.785,50.959
			c-2.613,6.795-14.112,4.966-14.112,4.966l2.613-30.837c0,0-29.792,17.771-36.586,20.122
			C2155.062,1015.078,2150.097,1008.806,2150.097,1008.806z"></path>
      <path fill="#85A3D6" d="M2192.302,1018.606c0,0,61.805-30.445,63.896-27.309c2.09,3.136,10.453,14.634,10.453,18.815
			c0,4.181-48.477,29.008-61.021,30.053C2193.086,1041.211,2192.302,1018.606,2192.302,1018.606z"></path>
      <g>
        <path fill="#85A3D6" d="M2036.816,1239.83c-7.246,2.605-131.062-90.787-128.03-98.102c3.033-7.316,16.192-18.648,18.805-17.607
				c2.615,1.041,121.12,95.587,119.969,100.811C2046.41,1230.156,2049.939,1235.112,2036.816,1239.83z"></path>
        <g>
          <path fill="#E2E9F7" d="M1952.773,1238.85c-2.302-1.968-2.65-6.869-1.511-8.423c1.092-1.491,2.682-2.509,2.682-2.509
					s-3.533-0.648-4.821-2.35c-1.015-1.34-0.587-9.186,0.189-10.202c1.345-1.759,4.876-2.389,4.876-2.389s-4.293-1.007-5.46-2.648
					c-0.979-1.376-0.133-10.747,0.826-12.024c1.822-2.425,6.814-2.488,6.814-2.488s-40.587-30.401-41.523-31.685
					c-1.354-1.854,4.737-11.225,4.737-11.225s60.921,28.958,65.628,29.763c6.119-2.955,7.182-10.806,11.934-8.979
					c13.154,5.059,19.921,13.047,21.464,18.913c9.231,0.556-2.265,46.861-2.265,46.861l-41.459,3.681
					C1974.881,1243.145,1956.985,1242.451,1952.773,1238.85z"></path>
        </g>
        <path fill="#E2E9F7" d="M2332.128,1259.454c1.891,5.212,12.853,155.127-35.491,224.001
				c-31.101,44.309-72.57,14.536-107.785-17.505c-40.658-36.994-168.898-164.192-225.346-244.682
				c10.331-7.287,47.04-17.771,47.04-17.771l219.873,153.8l2.324-116.037L2332.128,1259.454z"></path>
        <path fill="#B3C6E7" d="M2278.091,1008.756c0,0,31.273,25.426,37.895,37.176c6.622,11.75,49.863,215.441,38.002,244.513
				c-11.861,29.072-129.101,30.844-138.95,19.807C2169.984,1259.762,2278.091,1008.756,2278.091,1008.756z"></path>
        <path fill="#85A3D6" d="M2236.205,1107.197c0,0-31.496,170.576-22.666,186.243c8.83,15.667,22.591,23.255,22.591,23.255
				s-18.333,8.526-32.639-14.106C2182.266,1269.011,2236.205,1107.197,2236.205,1107.197z"></path>
      </g>
      <path fill="#85A3D6" d="M2120.206 934.083c2.259 5.313 1.505 10.719-1.683 12.074-3.188 1.355-7.603-1.853-9.862-7.166-2.259-5.313-1.505-10.719 1.682-12.074C2113.532 925.562 2117.948 928.77 2120.206 934.083zM2090.634 919.963c15.782-6.709 24.068-4.837 23.925-2.504-.144 2.333-16.535 9.868-19.962 8.486C2091.169 924.562 2086.786 921.598 2090.634 919.963zM2133.061 985.696c15.782-6.709 20.695-12.773 20.551-10.441-.145 2.333-13.16 17.806-16.588 16.423C2133.597 990.295 2129.213 987.332 2133.061 985.696z"></path>
    </g>
    <path fill="#85A3D6" d="M2065.469,870.92c-0.08,1.295-0.131,2.665-0.152,4.073c0.89,4.118,4.473,7.43,2.482,17.393
		c1.891,4.993,5.07,9.116,10.319,10.935c11.67,4.043,25.176-5.76,33.898-12.443c2.051-1.57,4.359-1.329,5.867,0.834
		c2.671,3.832,4.308,11.952,9.713,12.532c7.12,0.766,12.678-7.916,14.04-13.844c0.338-1.474,2.105-2.915,3.654-2.71
		c4.355,0.572,9.652,5.026,13.9,2.829c3.856-1.993,4.583-7.176,8.291-9.132c7.784-4.106,16.093,3.596,17.298,10.914
		c0.655,3.971-0.355,7.901-1.362,11.719c-0.953,3.619-2.597,8.351-0.4,11.853c3.333,5.31,13.271,0.434,17.813-0.78
		c2.082-0.557,3.865,0.855,4.505,2.728c2.262,6.62-0.32,13.533,1.485,20.111c1.834,6.687,8.532,10.078,15.059,10.187
		c6.356,0.106,12.502-2.309,17.254-6.462c3.409-2.98,6.468-3.697,9.936-2.336c-0.517-4.543-1.657-10.274-3.219-16.703
		c3.527-0.015,7.637-0.429,9.665-2.103c6.902-5.698,6.543-28.283,1.411-39.305c2.046-4.767-2.639-15.605,2.263-43.101
		c4.903-27.493-32.617-16.068-45.017-48.594c-12.4-32.524-31.852,10.093-58.384-13.81c-26.533-23.903-9.382,18.981-41.548,9.077
		c-32.167-9.905-8.411,21.653-28.123,28.708c-19.711,7.054-3.413,35.493-3.413,35.493
		C2070.968,860.689,2066.607,866.754,2065.469,870.92z"></path>
  </g>
  <g>
    <g>
      <path fill="#E2E9F7" d="M1415.872,1885.599h-164.139c51.739,298.931,120.788,569.245,147.108,699.264
			c13.057-3.907,35.282-5.22,48.445-8.736l-33.091-490.539L1415.872,1885.599z"></path>
      <g>
        <path fill="#B3C6E7" d="M1454.641,2574.416c-0.695-0.695-1.854-1.236-3.323-1.545c-0.979-0.245-2.137-0.406-3.415-0.508
				c-7.309,7.409-17.507,12.641-26.683,14.849c-9.672,2.324-19.958,4.299-29.895,4.672c-9.171,0.343-16.994-0.806-25.132-4.355
				c-1.59,0.54-3.186,1.083-4.601,1.649c-17.079,6.955-21.871,16.073-25.503,20.169c-4.482,5.023-1.236,15.844-1.236,15.844
				l95.888-14.22l10.416,7.544l21.676-1.361C1462.834,2617.154,1460.902,2581.14,1454.641,2574.416z"></path>
      </g>
      <path fill="#E2E9F7" d="M1449.541,2583.15c-5.488,5.796-72.955,22.333-82.229,14.528c-3.477-2.936-5.023-5.951-5.719-8.5
			c3.864-1.547,8.347-3.015,13.602-4.328c5.951-1.393,68.705-13.834,76.124-11.979
			C1452.091,2576.425,1452.169,2580.444,1449.541,2583.15z"></path>
    </g>
    <g>
      <path fill="#E2E9F7" d="M1286.437,1895.776l-162.861-20.443c14.105,303.047,48.123,570.916,58.871,712.141
			c13.442-2.251,35.658-0.785,49.156-2.635l28.262-490.84L1286.437,1895.776z"></path>
      <g>
        <path fill="#B3C6E7" d="M1239.115,2584.058c-0.604-0.776-1.687-1.458-3.105-1.948c-0.941-0.365-2.07-0.668-3.325-0.929
				c-8.175,6.441-18.945,10.363-28.325,11.41c-9.886,1.102-20.338,1.781-30.244,0.912c-9.142-0.802-16.761-2.916-24.394-7.451
				c-1.645,0.338-3.296,0.678-4.771,1.063c-17.813,4.773-23.702,13.224-27.817,16.836c-5.073,4.426-3.2,15.566-3.2,15.566
				l96.913-2.167l9.395,8.782l21.677,1.349C1241.921,2627.482,1244.489,2591.509,1239.115,2584.058z"></path>
      </g>
      <path fill="#E2E9F7" d="M1232.967,2592.088c-6.167,5.067-75.169,13.073-83.399,4.173c-3.084-3.346-4.243-6.53-4.615-9.146
			c4.027-1.054,8.658-1.952,14.035-2.601c6.078-0.64,69.893-5.169,77.023-2.405
			C1236.334,2585.734,1235.911,2589.731,1232.967,2592.088z"></path>
    </g>
    <path fill="#85A3D6" d="M1337.687,927.009c-99.554-28.979-68.136-36.091-96.528-72.964
		c-27.688-35.954-139.979-37.71-156.538,49.075c-54.404,39.287,22.359,59.556,76.074,111.718
		c53.711,52.165,48.966,153.178,48.966,153.178s91.172,30.324,119.973-44.136c28.808-74.46,45.164-15.766,79.064-33.894
		C1442.596,1071.864,1437.242,955.99,1337.687,927.009z"></path>
    <g>
      <g>
        <path fill="#B3C6E7" d="M1435.677,1490.391c-49.45,15.542-305.961-12.901-315.757,14.446c-2.711,7.567-3.284,48.365-2.7,103.386
				c-7.605,49.032-76.895,286.749-52.558,303.481c8.065,5.544,17.479,2.811,26.861-4.165c1.753,50.242,1.961,41.463,1.961,41.463
				c11.303,0,205.711,77.423,356.038-3.391c15.551-8.36-6.781-82.511,2.261-62.165c9.042,20.345,27.127,38.428,36.169,20.345
				C1496.994,1885.706,1444.719,1665.869,1435.677,1490.391z"></path>
        <path fill="#85A3D6" d="M1175.018 1747.93c-7.667-16-18.754 128.151-13.544 133.361C1166.683 1886.5 1198.981 1797.94 1175.018 1747.93zM1238.573 1607.276c0 0 59.387 309.438 46.884 304.228C1272.955 1906.295 1225.028 1638.532 1238.573 1607.276z" opacity=".5"></path>
        <path fill="#85A3D6" d="M1487.929,1903.795c-9.03,18.06-27.088,0-36.118-20.352
				c-9.099-20.351,13.266,53.83-2.293,62.166c-150.307,80.849-344.721,3.404-356.044,3.404c0,0-0.208,8.752-1.945-41.466
				c-9.376,6.946-18.823,9.723-26.879,4.166c-6.946-4.792-6.251-27.644-1.528-59.039c1.874,14.517,4.862,27.992,9.793,30.702
				c11.461,6.251,63.555-110.44,63.555-101.063c0,9.376-30.214,109.397-15.629,137.528c14.586,28.129,95.853,51.051,161.491,36.466
				c65.639-14.587,54.177-208.376,58.345-180.246c4.167,28.131,15.628,125.025,39.591,133.362
				c23.963,8.334,27.089-161.491,38.549-119.816c11.461,41.675,37.507,67.722,44.801,67.722c3.681,0,6.529-40.01,8.474-79.948
				C1483.553,1845.796,1492.097,1895.598,1487.929,1903.795z" opacity=".5"></path>
        <g>
          <g>
            <path fill="#85A3D6" d="M1122.307,1489.544c0,0-6.781,35.604-3.39,45.776
						c3.39,10.173,139.307,10.173,145.24,11.868c5.934,1.696,38.147,126.309,62.731,133.09
						c24.583,6.782,117.832-14.411,117.832-14.411v-175.476L1122.307,1489.544z" opacity=".5"></path>
          </g>
        </g>
        <path fill="#85A3D6" d="M1334.231,1079.565l125.026,353.197c0,0-37.508,32.819-37.508,21.879
				C1421.749,1443.702,1318.603,1113.947,1334.231,1079.565z"></path>
        <path fill="#B3C6E7" d="M972.438,1136.823l-3.6,10.8l44.1,63.9c0,0,85.5,217.8,105.3,232.2c19.8,14.4,56.7,19.8,56.7,19.8
				s37.8-224.1,27.9-213.3c-9.9,10.8-50.4-3.6-50.4-3.6l-34.2,98.1L972.438,1136.823z"></path>
        <path fill="#85A3D6" d="M1118.238,1344.724l-16.2,72.9c0,0,18.9,39.15,24.3,39.15c5.4,0,20.25-74.25,20.25-74.25
				L1118.238,1344.724z"></path>
        <path fill="#B3C6E7" d="M1114.329,1499.181c0,0,1.657-82.938,28.197-224.785c2.781-14.861-26.047-39.07-18.754-68.243
				c4.874-19.495,37.29-37.545,41.154-54.699c11.821-52.471,14.299-58.476,22.922-64.076c35.83-23.268,83.229-41.882,107.936-27.988
				c24.708,13.895,114.7,399.939,113.137,435.884C1408.308,1509.336,1144.277,1522.807,1114.329,1499.181z"></path>
        <path fill="#85A3D6" d="M1175.345,1114.989c0,0-10.419,41.675-13.023,46.884c-2.604,5.209-42.977,34.121-34.903,59.126
				c4.816,14.913,16.149,35.164,18.233,45.582c2.084,10.419-14.065,122.421-17.191,112.522
				c-3.126-9.898,4.689-107.834,4.689-107.834s-20.834-40.205-22.922-50.531c-4.949-24.485,47.406-63.555,47.406-63.555
				S1172.74,1113.947,1175.345,1114.989z"></path>
        <g>
          <path fill="#85A3D6" d="M1329.543,1057.685c0,0-30.596-1.807-57.043,35.164c-37.31,52.155-66.969,164.914,3.907,324.805
					c37.153,67.75,110.193,44.804,148.857,18.098c6.706-4.632,29.45-23.433,29.45-23.433s91.396,195.544,93.521,233.803
					c2.126,38.259-202.983,68.016-232.74,63.765c-13.673-1.953-43.736-137.939-71.722-284.676
					c-52.974-151.275-28.581-271.101,2.159-330.799C1272.885,1042.068,1329.543,1057.685,1329.543,1057.685z"></path>
        </g>
        <g>
          <g>
            <g>
              <path fill="#E2E9F7" d="M1270.144,1054.4c-34.541,30.927-54.296,15.788-54.296,15.788l-2.162-43.342
							c0,0-16.392,20.559-39.522,28.131c-9.724,3.195-25.004-17.158-39.382-41.814c-1.597-2.71-10.836,2.083-12.433-0.695
							c-3.82-6.877,0.139-21.462-3.334-28.268c-7.57-14.865-13.961-28.618-17.989-37.3c9.307-1.18,18.754-8.195,25.422-13.267
							c2.015-1.597,4.375-1.32,5.834,0.834c2.709,3.821,4.307,11.947,9.724,12.503c7.085,0.765,12.641-7.918,13.961-13.822
							c0.347-1.458,2.083-2.917,3.682-2.71c4.306,0.626,9.584,5.003,13.822,2.849c3.819-2.015,4.583-7.154,8.265-9.099
							c7.779-4.097,16.045,3.542,17.226,10.836c0.695,3.958-0.348,7.917-1.32,11.738c-0.972,3.612-2.64,8.265-0.417,11.808
							c3.334,5.279,13.197,0.417,17.713-0.763c2.084-0.556,3.798,0.865,4.514,2.708
							C1242.631,1020.194,1270.144,1054.4,1270.144,1054.4z"></path>
            </g>
          </g>
        </g>
        <path fill="#B3C6E7" d="M1164.405,1051.174c1.302,0,46.103-22.4,58.866-41.154c0,0,3.699,47.638-7.033,45.713
				c-4.179-0.75-3.647-20.708-3.647-20.708s-29.693,17.712-36.466,20.056C1169.354,1057.425,1164.405,1051.174,1164.405,1051.174z"></path>
        <path fill="#E2E9F7" d="M1201.463,1078.7c0,0,38.357-23.095,59.042-26.107c3.717-0.542,21.633-0.638,21.633,3.53
				c0,4.167-53.657,39.591-66.159,40.633C1203.475,1097.798,1201.463,1078.7,1201.463,1078.7z"></path>
        <g>
          <path fill="#85A3D6" d="M1074.647,1227.478c-7.521,1.529-116.23-108.364-112.188-115.144
					c4.042-6.78,18.648-16.068,21.077-14.666c2.429,1.402,105.734,111.671,103.849,116.658
					C1085.499,1219.314,1088.268,1224.709,1074.647,1227.478z"></path>
          <g>
            <path fill="#E2E9F7" d="M991.896,1214.442c-1.988-2.272-1.628-7.155-0.281-8.524c1.291-1.314,3.005-2.09,3.005-2.09
						s-3.392-1.146-4.418-3.009c-0.809-1.468,0.74-9.146,1.652-10.035c1.579-1.542,5.152-1.656,5.152-1.656s-4.09-1.609-5.005-3.396
						c-0.768-1.498,1.411-10.619,2.541-11.741c2.146-2.13,7.078-1.476,7.078-1.476s-35.665-35.813-36.404-37.213
						c-1.069-2.024,6.284-10.392,6.284-10.392s55.927,37.31,60.455,38.78c6.459-2.036,8.636-9.627,13.059-7.142
						c12.248,6.878,17.775,15.729,18.455,21.736c9.025,1.874-8.964,45.894-8.964,45.894l-41.421-2.323
						C1013.084,1221.853,995.533,1218.598,991.896,1214.442z"></path>
          </g>
          <path fill="#E2E9F7" d="M1363.097,1289.241c1.116,5.412-9.601,154.848-67.172,215.837
					c-37.039,39.237-73.664,3.916-103.795-32.744c-34.788-42.326-143.006-186.197-187.122-273.691
					c11.235-5.703,48.948-10.772,48.948-10.772l194.774,183.268l18.955-114.114L1363.097,1289.241z"></path>
          <path fill="#B3C6E7" d="M1326.624,1057.369c0,0,13.459,2.758,18.303,15.3c4.844,12.541,65.251,199.696,49.377,226.667
					s-131.762,11.881-139.891-0.419c-27.78-42.035,4.737-164.257,33.846-219.256
					C1298.115,1061.039,1326.624,1057.369,1326.624,1057.369z"></path>
          <path fill="#85A3D6" d="M1274.276,1145.896c0,0-26.494,78.747-24.286,139.095c0.274,7.5,19.135,18.399,15.455,20.607
					c-3.679,2.208-18.572-5.668-23.55-14.719C1233.799,1276.16,1257.349,1152.52,1274.276,1145.896z"></path>
        </g>
        <path fill="#85A3D6" d="M1134.613 976.698c2.251 5.295 1.5 10.683-1.677 12.034-3.178 1.351-7.578-1.847-9.829-7.142-2.251-5.296-1.5-10.684 1.677-12.034C1127.961 968.204 1132.362 971.402 1134.613 976.698zM1105.138 962.623c15.729-6.687 23.989-4.821 23.846-2.496-.144 2.326-16.48 9.836-19.896 8.458C1105.672 967.208 1101.302 964.254 1105.138 962.623zM1147.425 1028.14c15.729-6.687 20.626-12.731 20.482-10.406-.143 2.326-13.117 17.746-16.533 16.369C1147.959 1032.724 1143.59 1029.77 1147.425 1028.14z"></path>
      </g>
    </g>
    <path fill="#E2E9F7" d="M857.238,908.224c36.09-8.149,152.1-15.3,163.8,14.4c11.7,29.7,49.5,100.8,18.9,107.1
		c-30.6,6.3-28.8,5.4-28.8,9.9s6.3,63.9,6.3,63.9l-53.1-66.6c0,0-114.3,5.4-131.4-22.5
		C815.838,986.523,829.338,914.523,857.238,908.224z"></path>
    <path fill="#B3C6E7" d="M989.82,1001.494l-18.64-34.14c-2.12-3.87-6-6.13-10.1-6.4l-7.05-12.9c19.96-14.58,26.55-42.02,14.39-64.29
		c-13.26-24.27-43.65-33.19-67.88-19.96c-24.27,13.25-33.2,43.64-19.94,67.92c12.16,22.26,38.78,31.55,61.86,22.64l7.05,12.92
		c-2,3.59-2.19,8.08-0.08,11.95l18.64,34.14c3.28,6,10.81,8.21,16.81,4.93C990.89,1015.024,993.1,1007.504,989.82,1001.494z
		 M943.92,943.254c-19.62,10.71-44.23,3.51-54.95-16.11c-10.71-19.62-3.46-44.22,16.16-54.93c19.62-10.72,44.2-3.5,54.91,16.12
		C970.76,907.954,963.54,932.534,943.92,943.254z"></path>
    <path fill="#E2E9F7" d="M943.92,943.254c-19.62,10.71-44.23,3.51-54.95-16.11c-10.71-19.62-3.46-44.22,16.16-54.93
		c19.62-10.72,44.2-3.5,54.91,16.12C970.76,907.954,963.54,932.534,943.92,943.254z"></path>
  </g>
  <g>
    <path fill="#F5B297" d="M1603.889,647.652c0,0,7.386-19.385,11.113-23.718c3.726-4.333,24.154-38.882,21.988-40.746
		c-2.167-1.863-63.969-34.422-66.279-32.272c-2.309,2.151-13.646,19.609-8.579,27.826c5.066,8.218-4.45,49.853-4.45,49.853
		L1603.889,647.652z"></path>
    <path fill="#E29986" d="M1627.093,587.749c0,0-27.862,21.753-31.872,20.659c-3.948-1.152-9.037-18.778-13.557-23.938
		c-2.916-3.379-13.31-10.773-20.221-15.664c1.464-6.021,5.143-12.379,7.465-15.75L1627.093,587.749z"></path>
    <path fill="#FE738C" d="M1655.936,997.481c-7.568,7.049-36.342-0.09-36.342-0.09s-74.127-100.422-69.876-106.969
		c4.251-6.547,63.742-248.235,63.742-248.235l-59.397-24.883c0,0-110.849,246.935-117.583,293.207
		c-12.842,88.261,166.758,308.426,179.947,314.253C1629.616,1230.591,1655.936,997.481,1655.936,997.481z"></path>
    <path fill="#EA6380" d="M1642.633,1102.878c-8.498,60.907-19.208,124.956-26.205,121.886
		c-13.208-5.856-192.789-225.991-179.936-314.246c0.572-3.856,1.856-9.139,3.713-15.494
		c13.423,97.323,101.964,192.218,129.097,220.493C1581.083,1127.87,1611.287,1112.447,1642.633,1102.878z" opacity=".5"></path>
    <g>
      <g>
        <g>
          <g>
            <g>
              <polygon fill="#F5B297" points="1641.939 2504.477 1643.193 2577.02 1686.85 2573.596 1697.846 2499.75"></polygon>
              <path fill="#FE738C" d="M1691.592,2560.167c-3.82-6.398-26.311-4.426-49.734-0.577c0.716-5.168,1.486-14.94-2.994-14.781
							c-5.642,0.199-12.865,14.583-12.791,17.594c-5.992,1.142-11.789,2.311-17.047,3.395c-29.929,6.17-66.043,25.22-71.202,31.38
							c-5.159,6.161-3.089,20.716-3.089,20.716l160.491-0.621C1695.226,2617.272,1697.272,2569.683,1691.592,2560.167z"></path>
              <path fill="#36596A" d="M1617.92 2563.952c.96.541 5.052 5.063 3.798 6.95-1.254 1.887-14.483-4.942-10.203-9.614C1613.413 2559.216 1617.92 2563.952 1617.92 2563.952zM1603.178 2567.656c.96.542 5.052 5.064 3.798 6.95-1.254 1.887-14.483-4.942-10.203-9.614C1598.67 2562.921 1603.178 2567.656 1603.178 2567.656zM1588.436 2571.362c.96.542 5.051 5.064 3.798 6.95-1.254 1.887-14.483-4.943-10.204-9.614C1583.928 2566.626 1588.436 2571.362 1588.436 2571.362z"></path>
            </g>
            <path fill="#36596A" d="M1533.944 2610.659c0 0-1.148 8.653.943 9.769s160.389 2.211 162.212-1.695c1.824-3.906 1.068-22.868-.428-21.561-1.496 1.307-7.401 8.858-7.401 8.858S1569.286 2617.877 1533.944 2610.659zM1662.965 2582.206c-1.403-4.069-4.867-7.08-9.092-7.9-4.223-.82-8.564.675-11.387 3.923-2.822 3.249-3.697 7.756-2.295 11.823 1.401 4.069 4.867 7.08 9.091 7.9 4.225.82 8.565-.676 11.388-3.923C1663.492 2590.781 1664.367 2586.274 1662.965 2582.206z"></path>
          </g>
          <g>
            <path fill="#436C89" d="M1579.746,1490.842c-9.391,67.799-10.387,257.948,3.317,464.17
						c10.535,158.551,53.595,572.406,53.595,572.406l63.097,4.322l63.697-577.412c0,0,99.909-351.284,104.935-453.232
						L1579.746,1490.842z"></path>
          </g>
          <g>
            <path fill="#36596A" d="M1867.703,1510.61c-10.067,112.606-104.24,443.709-104.24,443.709l-63.67,577.384l0.657-523.696
						l-17.825-497.758C1682.624,1510.25,1770.67,1511.97,1867.703,1510.61z"></path>
          </g>
        </g>
        <g>
          <g>
            <g>
              <polygon fill="#F5B297" points="1866.56 2522.178 1882.665 2592.922 1924.692 2580.616 1920.309 2506.085"></polygon>
              <path fill="#FE738C" d="M1934.189,2568.502c-3.845-6.383-26.329-4.321-49.735-0.378c0.696-5.17-6.134-17.267-10.614-17.091
							c-5.641,0.221-5.246,16.957-5.16,19.967c-5.988,1.166-11.78,2.358-17.033,3.463c-29.904,6.29-65.943,25.484-71.076,31.664
							c-5.134,6.182-3.007,20.728-3.007,20.728l160.487-1.263C1938.051,2625.592,1939.907,2577.995,1934.189,2568.502z"></path>
              <path fill="#36596A" d="M1860.628 2572.575c.96.541 5.052 5.063 3.798 6.95-1.254 1.886-14.483-4.943-10.204-9.614C1856.121 2567.839 1860.628 2572.575 1860.628 2572.575zM1845.886 2576.28c.96.541 5.052 5.063 3.798 6.95-1.254 1.886-14.483-4.943-10.204-9.614C1841.379 2571.544 1845.886 2576.28 1845.886 2576.28zM1831.144 2579.985c.96.541 5.052 5.063 3.798 6.95-1.254 1.887-14.483-4.942-10.203-9.614C1826.636 2575.249 1831.144 2579.985 1831.144 2579.985z"></path>
            </g>
            <path fill="#36596A" d="M1776.651 2619.282c0 0-1.147 8.652.943 9.768s160.389 2.212 162.213-1.694c1.823-3.906 1.068-22.868-.428-21.561-1.497 1.307-7.4 8.858-7.4 8.858S1811.994 2626.499 1776.651 2619.282zM1905.673 2590.828c-1.403-4.069-4.867-7.079-9.092-7.9-4.224-.819-8.565.676-11.387 3.924-2.822 3.248-3.698 7.755-2.296 11.823 1.401 4.069 4.867 7.081 9.091 7.901 4.225.82 8.565-.676 11.389-3.924C1906.2 2599.404 1907.075 2594.897 1905.673 2590.828z"></path>
          </g>
          <path fill="#436C89" d="M1923.292,1503.048l-251.721-8.944c40.235,370.222,160.079,897.512,194.602,1050.207
					c15.543-3.542,47.99-7.926,63.643-11.055l-17.842-590.97L1923.292,1503.048z"></path>
          <path fill="#36596A" d="M1607.859 1932.728c26.735 17.823 78.187 3.213 73.902 16.066-4.284 12.853-35.344 21.421-57.836 8.568C1601.433 1944.51 1604.646 1930.586 1607.859 1932.728zM1799.578 1967.001c43.455 13.371 85.684-32.131 78.186-11.781-7.498 20.35-21.421 22.493-46.055 26.776C1807.075 1986.281 1785.654 1962.718 1799.578 1967.001zM1772.801 1991.636c-18.833-21.093 73.902 3.213 68.547 14.994C1835.993 2018.412 1799.578 2021.625 1772.801 1991.636zM1581.956 1478.099c0 0-7.89 34.674-4.919 44.766 2.97 10.093 160.926 14.872 166.685 16.742 5.76 1.869 8.491 135.641 32.359 143.147 23.868 7.506 140.551-20.49 140.551-20.49l6.112-172.057L1581.956 1478.099z"></path>
        </g>
      </g>
      <path fill="#FE738C" d="M1557.632,1497.795c0,0,67.666-509.304,108.785-505.925c41.12,3.379,100.058-6.036,123.427,8.221
			c23.369,14.257,134.402,484.04,131.758,497.373C1918.959,1510.798,1595.002,1545.7,1557.632,1497.795z"></path>
      <path fill="#EA6380" d="M1615.356,1336.153c21.421,85.684,78.187,102.821,68.547,115.674
			c-9.639,12.853-50.845-5.594-61.05-28.918C1607.859,1388.635,1609.16,1311.368,1615.356,1336.153z" opacity=".5"></path>
      <path fill="#EA6380" d="M1921.605,1497.453c-2.641,13.353-326.599,48.269-363.943,0.357
			c0,0,16.923-127.67,39.057-254.767c-3.499,73.474-6.283,164.583,0.143,190.289c11.282,44.984,73.117,48.198,98.823,39.415
			c25.705-8.854-1.571-178.365-10.425-190.432c-8.854-12.067-25.706-12.853-20.065-22.493c5.569-9.639,20.065-37.701,20.065-37.701
			s-37.844-95.608-29.562-221.136c1-1.642,1.928-3.07,2.857-4.212l13.852-3.642c0,0,28.918,211.281,44.127,241.771
			c15.281,30.561,103.678,32.99,110.89,29.775c6.569-2.927-0.786-141.95-2.214-167.226
			C1866.054,1239.616,1923.533,1487.813,1921.605,1497.453z" opacity=".5"></path>
      <path fill="#EA6380" d="M1629.816,1076.692c0,0-42.299,260.07-48.368,260.861
			C1575.379,1338.344,1595.275,1136.938,1629.816,1076.692z"></path>
      <path fill="#85A3D6" d="M1687.086,984.959c0,0,31.281,295.003,80.201,392.248c48.92,97.245,167.043-7.779,167.043-7.779
			s81.502,191.857,82.242,228.854c0.74,36.997-198.235,58.683-226.808,53.559c-28.573-5.123-142.087-657.488-136.849-660.383
			C1662.516,981.772,1687.086,984.959,1687.086,984.959z"></path>
      <path fill="#B3C6E7" d="M1780.031,1425.318c0,12.049,40.968,167.887,50.607,181.543c9.64,13.656,65.87,24.902,45.788,17.673
			c-20.083-7.23-38.558-20.082-40.164-27.312C1834.654,1589.993,1780.031,1407.646,1780.031,1425.318z"></path>
      <path fill="#B3C6E7" d="M1823.436,1442.977c0,0,17.583,123.763,41.572,141.264c23.99,17.501,155.513,3.353,150.525-19.264
			c-4.988-22.617-49.551-153.772-56.678-156.921S1919.795,1453.558,1823.436,1442.977z"></path>
      <path fill="#85A3D6" d="M1883.888 1551.087c12.582-1 111.127-3.773 125.912-12.417l2.187 6.351c0 0-59.831 13.317-97.028 14.408C1877.762 1560.521 1878.869 1551.486 1883.888 1551.087zM1858.55 1472.874c0 0 87.75-4.95 122.85-18.45 2.25.45 25.2 58.5 22.95 64.8s-80.55 13.95-99 11.7S1858.55 1472.874 1858.55 1472.874z"></path>
      <path fill="#F5B297" d="M1656.768,1240.706c-0.883-2.778,1.32-6.963,3.04-7.655c1.65-0.665,3.466-0.691,3.466-0.691
			s-2.56-2.323-2.75-4.369c-0.15-1.612,4.184-7.811,5.334-8.247c1.993-0.756,5.2,0.522,5.2,0.522s-2.999-3.002-3.121-4.938
			c-0.101-1.622,5.347-8.856,6.78-9.414c2.722-1.058,6.836,1.425,6.836,1.425s-3.948-5.282-4.062-6.807
			c-0.165-2.204,7.551-5.206,7.551-5.206s22.538,9.579,25.98,12.627c6.504,0.69,18.812-0.301,21.77,3.605
			c8.189,10.815,8.737,19.965,7.021,25.545c7.267,5.141,12.077,12.692,12.077,12.692l-26.49,34.412l-16.958-10.728l-35.774-18.037
			C1672.667,1255.441,1658.385,1245.788,1656.768,1240.706z"></path>
      <path fill="#E29986" d="M1680.317 1206.107c1.211-3.733 10.254 5.406 8.297 5.58C1686.656 1211.862 1679.495 1208.638 1680.317 1206.107zM1668.347 1218.896c1.211-3.733 10.254 5.406 8.297 5.581C1674.686 1224.651 1667.526 1221.428 1668.347 1218.896zM1661.501 1230.923c1.211-3.732 10.254 5.406 8.297 5.581C1667.841 1236.678 1660.68 1233.454 1661.501 1230.923z"></path>
      <path fill="#FE738C" d="M1837.41,1018.76c-10.291-7.916-47.565-18.668-47.565-18.668s-13.983,51.216,19.648,146.043
			c0.103,0.291,53.707,142.545,54.055,142.629l11.505,20.537l-124.824-67.863c0,0-26.846,33.026-33.255,43.37
			c42.7,52.11,115.98,136.429,165.924,153.895c43.259,15.128,98.232,26.898,102.074-25.067
			C1995.665,1269.035,1847.7,1026.677,1837.41,1018.76z"></path>
      <path fill="#EA6380" d="M1799.31 1100.79c0 0 86.487 203.232 84.88 214.478-1.607 11.246-134.283-66.673-134.283-66.673s-26.91 27.044-25.839 32.935c1.071 5.89 93.248 115.405 134.082 144.592-41.637-17.338-141.445-124.777-143.587-144.592-2.142-19.815 31.73-41.771 31.73-41.771l118.485 59.845C1864.778 1299.604 1792.883 1098.648 1799.31 1100.79zM1887.27 1318.481c0 0 27.129 44.486 27.593 31.413C1915.327 1336.823 1886.856 1315.949 1887.27 1318.481z"></path>
      <g>
        <g>
          <g>
            <g>
              <g>
                <g>
                  <path fill="#29454C" d="M1787.428,844.292c0.334,1.78,13.785,46.289-2.284,70.815c-5.972,9.115-13.86-0.412-13.86-0.412
									s-0.293,32.699-17.206,33.434c-16.912,0.734-25.638-11.449-25.638-11.449s-6.155,12.546-15.711,2.117
									c-9.556-10.43-45.611-121.122-26.201-141.027C1705.94,777.864,1779.471,801.911,1787.428,844.292z"></path>
                  <g>
                    <path fill="#F5B297" d="M1694.695,926.349l5.28,78.071c0,0,44.601,32.515,76.32-19.456l-33.825-101.377L1694.695,926.349z"></path>
                  </g>
                  <g>
                    <path fill="#E29986" d="M1699.814,1001.433c58.195-19.188,42.994-92.053,42.994-92.053l-46.015,48.006L1699.814,1001.433z"></path>
                  </g>
                  <path fill="#F5B297" d="M1638.119,809.92c0,0-26.367,146.322,29.944,156.758c56.314,10.441,64.198-25.506,83.506-48.298
									c8.644-3.312,23.191,4.224,28.232-23.955c4.064-22.718-21.323-21.727-21.323-21.727l6.898-41.665
									c0,0-24.681-26.858-40.169-33.299C1685.901,781.387,1638.119,809.92,1638.119,809.92z"></path>
                  <path fill="#29454C" d="M1713.034 839.882c4.663 9.601-30.128 19.616-31.209 15.279C1680.744 850.825 1709.347 832.289 1713.034 839.882zM1621.846 849.949c-1.371 10.048 33.003 8.802 32.697 4.567C1654.236 850.281 1622.929 842.004 1621.846 849.949z"></path>
                  <path fill="#29454C" d="M1739.928 808.061c0 0-143.213 60.688-126.372-4.66 16.839-65.345 53.11-42.017 53.11-42.017s-27.157-12.256-12.397-24.167c14.758-11.912 29.898 18.107 90.629 17.482 60.732-.622 59.141 97.458 31.393 122.774C1776.291 877.472 1719.861 858.146 1739.928 808.061zM1768.891 888.176c-2.981.409-13.777 5.287-11.955 8.753 1.821 3.466 11.713 7.291 9.01 4.723s-5.833-5.438-5.833-5.438S1775.177 887.314 1768.891 888.176z"></path>
                  <g>
                    <path fill="#E29986" d="M1705.024 897.181c.174 3.766-4.302 7.034-9.996 7.297-5.695.265-10.456-2.571-10.63-6.336-.175-3.764 4.298-7.032 9.995-7.298C1700.089 890.581 1704.847 893.418 1705.024 897.181zM1626.388 888.474c-1.067 3.612 2.497 7.853 7.967 9.469 5.466 1.618 10.766-.002 11.835-3.617 1.067-3.612-2.5-7.853-7.967-9.469C1632.757 883.239 1627.46 884.858 1626.388 888.474z"></path>
                    <path fill="#29454C" d="M1665.666 904.015c-.662-.08-1.3-.252-1.918-.514-3.913-1.671-5.075-6.446-5.123-6.646-.14-.593.01-1.215.4-1.681 8.138-9.704 8.872-26.232 9.935-26.246 1.093-.023 2.06 17.158-6.306 27.885.428 1.069 1.286 2.586 2.622 3.149 1.245.519 2.884.207 4.859-.958.917-.538 2.099-.233 2.636.681.541.918.236 2.098-.681 2.64C1669.776 903.687 1667.624 904.252 1665.666 904.015zM1649.425 868.778c-.589 4.859-3.763 8.476-7.087 8.073-3.326-.403-5.547-4.672-4.959-9.531.589-4.86 3.764-8.474 7.09-8.071C1647.793 859.652 1650.013 863.918 1649.425 868.778zM1703.619 875.339c-.588 4.86-3.76 8.476-7.086 8.073-3.327-.403-5.544-4.672-4.956-9.531.589-4.86 3.76-8.474 7.087-8.071C1701.99 866.213 1704.208 870.479 1703.619 875.339z"></path>
                  </g>
                </g>
              </g>
            </g>
          </g>
          <path fill="#EA6380" d="M1787.515,999.619l-15.711-28.115c0,0-27.245,43.055-73.141,7.193l-10.589,14.368
					c0,0,4.725,21.795,31.225,27.516C1768.693,1031.249,1787.515,999.619,1787.515,999.619z"></path>
        </g>
        <path fill="#29454C" d="M1745.356,836.181c0,0,1.877,50.708-15.097,77.868c-16.974,27.16-34.349,22.647-34.349,22.647
				s-13.744-18.961-31.129-20.995c-8.58-1.004-24.208,3.305-27.188,13.783c0,0-3.988,32.315,31.539,40.455
				s63.709-15.116,71.39-32.561c7.681-17.445,20.418-73.661,20.418-73.661S1753.328,825.076,1745.356,836.181z"></path>
        <path fill="#E2E9F7" d="M1657.054 934.507c5.015-2.568 16.757-2.813 18.346-.734 1.59 2.079 3.778 11.127.353 13.941-3.424 2.813-12.842 3.669-16.756 0C1655.083 944.045 1653.998 936.073 1657.054 934.507zM1668.022 869.037c-.825 14.346 9.979 26.616 24.075 27.426 14.133.811 26.234-10.143 27.058-24.489.824-14.346-9.944-26.614-24.077-27.426C1680.983 843.739 1668.846 854.691 1668.022 869.037zM1674.413 869.404c.618-10.76 9.711-18.966 20.293-18.358 10.582.608 18.676 9.801 18.057 20.56-.618 10.759-9.714 19.001-20.295 18.393C1681.887 889.392 1673.795 880.164 1674.413 869.404z"></path>
        <path fill="#E2E9F7" d="M1618.405,865.634c-0.807,14.041,9.767,26.05,23.564,26.843c13.832,0.794,25.677-9.928,26.484-23.969
				c0.806-14.041-9.733-26.049-23.566-26.843C1631.091,840.873,1619.212,851.593,1618.405,865.634z M1624.662,865.993
				c0.605-10.531,9.504-18.563,19.861-17.968c10.357,0.595,18.279,9.593,17.674,20.124c-0.605,10.531-9.507,18.597-19.864,18.002
				C1631.976,885.557,1624.057,876.524,1624.662,865.993z"></path>
      </g>
    </g>
    <g>
      <g>
        <g>
          <g>
            <g>
              <path fill="#E2E9F7" d="M1803.989,525.145c2.163-3.795,4.482-7.427,6.933-11.04c1.43-2.109,2.796-4.198,3.956-6.396
							l-51.844-194.21c-0.836-3.132-4.052-4.993-7.184-4.156l-309.224,82.546c-3.132,0.836-4.993,4.052-4.157,7.184l57.116,213.963
							c0.836,3.131,4.053,4.993,7.185,4.156l288.442-76.999C1798.212,535.222,1801.114,530.191,1803.989,525.145z"></path>
            </g>
            <path fill="#E2E9F7" d="M1441.955 560.153c-27.696-48.6-3.739 44.033 16.425 59.925C1481.295 638.138 1469.65 608.753 1441.955 560.153zM1678.189 666.476c27.728-9.918 2.158-18.64-11.288-11.558C1653.1 662.187 1650.461 676.394 1678.189 666.476zM1681.236 633.925c5.108 14.259 64.097-27.98 64.364-30.912C1745.866 600.081 1677.91 624.641 1681.236 633.925z"></path>
            <path fill="#B3C6E7" d="M1814.878,507.708l-28.958,0.746l9.293,31.739C1795.213,540.194,1806.569,520.849,1814.878,507.708z"></path>
          </g>
        </g>
        <g>
          <g>
            <g>
              <path fill="#B3C6E7" d="M1592.158 414.745c-.109-.404-.081-.758.081-1.058.164-.303.403-.523.718-.662l23.169-10.872c.044-.038.09-.064.141-.078.051-.014.09-.024.114-.031.202-.055.406-.029.611.079.206.107.339.274.4.503l1.072 3.985c.177.658.01 1.097-.501 1.316l-15.292 7.165 10.811.39c.223.022.472.09.748.207.274.115.467.376.576.781l.643 2.391c.109.404.073.727-.107.964-.181.239-.365.411-.553.517l-9.109 5.787 16.774-1.5c.552-.066.92.241 1.104.926l1.072 3.985c.061.229.031.441-.094.636-.123.196-.287.321-.489.375-.025.006-.063.017-.114.031-.05.014-.104.015-.161.004l-25.497 2.215c-.343.038-.659-.033-.953-.212-.291-.178-.493-.471-.602-.875l-.827-3.076c-.109-.405-.085-.744.073-1.016.156-.273.34-.478.546-.615l10.676-7.226-12.85-.859c-.248-.015-.51-.102-.782-.258-.272-.157-.467-.451-.583-.882L1592.158 414.745zM1599.651 442.61c-.075-.278-.049-.531.082-.755.128-.225.333-.374.611-.449l24.676-6.636c.278-.075.529-.048.754.082.225.129.374.334.449.612l4.625 17.196c.075.278.048.531-.082.755-.13.225-.333.374-.612.449l-3.036.817c-.253.068-.493.038-.717-.093-.225-.128-.374-.333-.449-.611l-3.308-12.3-5.96 1.603 3.083 11.464c.075.278.048.531-.082.756-.129.224-.333.374-.611.449l-2.81.755c-.253.069-.492.036-.716-.092-.225-.13-.374-.335-.449-.613l-3.083-11.464-6.151 1.654 3.39 12.604c.075.278.048.529-.082.754-.13.224-.333.374-.611.449l-3 .807c-.278.075-.531.047-.755-.082-.225-.13-.375-.333-.449-.611L1599.651 442.61zM1556.496 418.367c-.061-.227-.031-.439.094-.636.123-.196.287-.321.488-.375.127-.034.245-.053.352-.055l26.84 2.472c.299.001.578.088.844.26.264.174.449.464.559.869l1.307 4.86c.108.405.093.748-.048 1.03-.143.282-.341.5-.599.65l-21.98 15.599c-.093.052-.204.097-.331.131-.202.054-.407.026-.611-.081-.206-.107-.339-.275-.401-.504l-1.061-3.947c-.102-.38-.089-.683.041-.907.129-.225.263-.384.403-.474l3.812-2.776-2.879-10.704-4.69-.49c-.167-.01-.363-.08-.587-.208-.225-.13-.388-.384-.49-.764L1556.496 418.367zM1568.598 423.865l2.113 7.857 9.882-6.849L1568.598 423.865zM1564.357 447.598c-.075-.278-.048-.531.082-.755.128-.225.333-.374.611-.449l24.676-6.636c.278-.075.529-.048.755.082.225.128.374.333.449.611l2.705 10.06c.85 3.163.793 5.85-.172 8.065-.965 2.214-2.814 3.689-5.547 4.423-1.848.497-3.511.469-4.99-.084-1.477-.552-2.72-1.493-3.731-2.823l-8.051 7.906c-.13.117-.26.191-.386.225-.202.054-.406.028-.611-.079-.207-.108-.339-.275-.401-.504l-1.133-4.214c-.122-.456-.094-.829.085-1.12.179-.293.356-.518.532-.673l7.447-6.969-1.235-4.594-8.769 2.358c-.278.075-.53.049-.755-.082-.225-.129-.374-.333-.449-.611L1564.357 447.598zM1580.264 448.774l1.307 4.86c.374 1.392.967 2.339 1.781 2.839.812.501 1.789.597 2.927.291 1.14-.306 1.949-.877 2.43-1.712.481-.834.531-1.961.15-3.377l-1.307-4.86L1580.264 448.774zM1571.318 473.486c-.074-.278-.048-.53.083-.754.128-.225.333-.375.611-.449l24.676-6.636c.278-.075.529-.048.754.082.224.129.375.334.449.612l4.625 17.196c.075.278.048.531-.082.755-.13.225-.333.374-.612.449l-3.037.817c-.253.068-.493.038-.717-.092-.225-.128-.375-.333-.449-.611l-3.308-12.3-5.96 1.603 3.083 11.464c.074.279.048.53-.082.756-.129.224-.333.375-.611.449l-2.81.755c-.253.068-.492.036-.716-.092-.225-.13-.375-.335-.449-.613l-3.083-11.464-6.151 1.654 3.39 12.604c.075.278.048.529-.082.754-.13.224-.333.374-.611.449l-3 .807c-.278.075-.531.047-.755-.082-.225-.13-.375-.333-.449-.611L1571.318 473.486zM1523.129 429.747c-.08-.294-.052-.561.087-.798.136-.238.353-.396.648-.476l26.127-7.026c.294-.079.56-.05.799.087.238.136.396.353.476.647l1.178 4.382c.079.294.051.56-.087.798-.137.239-.353.396-.648.476l-10.048 2.702 2.929 10.893 10.049-2.703c.294-.079.56-.049.799.087.238.138.396.353.476.649l1.177 4.38c.08.296.051.562-.087.8-.138.237-.352.397-.647.476l-26.127 7.026c-.294.079-.562.049-.798-.087-.239-.137-.397-.353-.476-.649l-1.178-4.38c-.079-.296-.051-.561.087-.8.136-.237.353-.396.647-.475l10.37-2.789-2.929-10.893-10.37 2.789c-.294.079-.562.051-.799-.087-.239-.137-.396-.353-.476-.647L1523.129 429.747zM1531.096 459.371c-.079-.294-.052-.561.087-.798.136-.238.353-.396.648-.476l26.127-7.026c.294-.079.56-.051.799.087.238.136.396.353.476.647l1.221 4.542c.079.294.051.562-.087.798-.138.239-.353.398-.647.477l-26.127 7.027c-.294.079-.562.049-.799-.088-.238-.136-.396-.353-.475-.647L1531.096 459.371zM1534.457 471.869c-.08-.294-.052-.561.087-.798.136-.238.353-.396.647-.476l26.127-7.026c.294-.079.56-.051.799.087.238.136.396.353.476.647l2.864 10.652c.901 3.349.84 6.195-.181 8.539-1.022 2.344-2.98 3.906-5.873 4.684-1.956.526-3.718.496-5.283-.089-1.564-.585-2.88-1.581-3.95-2.989l-8.524 8.371c-.139.123-.275.202-.41.238-.214.058-.43.03-.647-.084-.219-.115-.359-.291-.424-.533l-1.2-4.462c-.129-.482-.099-.878.09-1.187.19-.31.377-.549.564-.713l7.884-7.378-1.308-4.864-9.285 2.497c-.295.079-.562.051-.799-.087-.239-.137-.396-.353-.476-.647L1534.457 471.869zM1551.3 473.115l1.384 5.145c.396 1.474 1.023 2.477 1.885 3.006.86.53 1.894.632 3.099.308 1.207-.325 2.063-.929 2.573-1.813.51-.884.562-2.077.159-3.577l-1.384-5.145L1551.3 473.115zM1541.828 499.282c-.079-.294-.051-.561.087-.799.136-.238.353-.396.647-.475l26.127-7.027c.294-.079.56-.05.799.087.238.136.396.353.475.647l1.222 4.542c.079.294.051.561-.087.799-.137.239-.353.398-.647.478l-26.127 7.026c-.295.079-.562.049-.799-.088-.238-.136-.396-.353-.475-.647L1541.828 499.282zM1545.19 511.782c-.079-.294-.051-.561.087-.798.136-.238.353-.397.648-.476l26.127-7.026c.294-.079.56-.051.798.087.239.136.397.352.476.647l.983 3.657c.108.402.094.722-.044.96-.137.239-.252.398-.344.48l-13.875 15.24 16.479-4.432c.294-.079.56-.05.799.087.238.138.393.34.465.608l1.103 4.1c.079.294.05.56-.087.799-.138.237-.353.396-.647.475l-26.127 7.027c-.268.072-.528.04-.779-.092-.252-.135-.416-.348-.495-.642l-.995-3.698c-.108-.402-.086-.717.069-.946.154-.227.261-.393.319-.494l13.364-15.058-15.957 4.291c-.294.079-.562.049-.799-.087-.239-.137-.397-.354-.476-.649L1545.19 511.782zM1555.261 550.837c-.677-2.519-.834-4.783-.468-6.791.364-2.01 1.226-3.72 2.584-5.134 1.358-1.416 3.178-2.471 5.463-3.172 1.144-.337 2.374-.682 3.687-1.035 1.312-.353 2.562-.675 3.748-.964 2.274-.525 4.331-.512 6.176.042 1.843.553 3.432 1.62 4.762 3.202 1.33 1.582 2.326 3.605 2.989 6.069.533 1.984.747 3.794.641 5.431-.105 1.638-.43 3.076-.972 4.315-.544 1.237-1.227 2.253-2.047 3.05-.821.794-1.67 1.324-2.547 1.59-.24.064-.469.04-.686-.073-.219-.115-.363-.306-.435-.574l-1.34-4.984c-.072-.268-.075-.49-.007-.666.067-.176.194-.347.38-.511.432-.318.839-.752 1.224-1.299.383-.551.656-1.218.817-2.009.161-.792.091-1.748-.211-2.875-.454-1.688-1.256-2.902-2.402-3.642-1.148-.74-2.737-.879-4.769-.421-2.326.54-4.67 1.17-7.033 1.891-2.068.644-3.424 1.589-4.064 2.84-.641 1.249-.733 2.718-.279 4.407.295 1.097.753 2.03 1.376 2.797.622.766 1.417 1.292 2.385 1.579.967.285 2.094.256 3.382-.09l1.004-.27-1.178-4.381c-.072-.268-.034-.524.117-.765.151-.242.359-.399.627-.47l2.573-.692c.294-.079.561-.051.8.087.236.136.393.34.465.608l2.649 9.847c.079.294.049.56-.087.799-.138.238-.354.397-.648.476l-4.382 1.178c-2.304.62-4.408.647-6.312.083-1.906-.566-3.544-1.661-4.915-3.29C1556.953 555.389 1555.932 553.329 1555.261 550.837z"></path>
            </g>
            <g>
              <path fill="#B3C6E7" d="M1658.15,470.271l-9.511,12.796c-4.438-0.336-8.945,1.508-11.797,5.345l-25.146,33.829
							c-4.423,5.95-3.186,14.36,2.765,18.783c5.951,4.423,14.361,3.185,18.784-2.765l25.146-33.829
							c2.852-3.836,3.319-8.683,1.719-12.837l9.508-12.791c23.393,13.031,53.387,7.077,69.793-14.994
							c17.877-24.049,12.878-58.007-11.135-75.857c-24.05-17.877-58.008-12.878-75.885,11.171
							C1635.991,421.183,1638.925,451.602,1658.15,470.271z M1669.756,466.673c-19.444-14.454-23.521-41.94-9.068-61.383
							c14.453-19.444,41.948-23.461,61.392-9.007c19.443,14.453,23.485,41.913,9.032,61.357
							C1716.66,477.083,1689.199,481.125,1669.756,466.673z"></path>
              <path fill="#85A3D6" d="M1702.229,436.646c2.851,2.153,6.624,3.023,10.341,2.024c6.396-1.72,10.186-8.299,8.466-14.696
							c-1.72-6.396-8.299-10.187-14.695-8.467c-3.673,0.987-6.48,3.582-7.884,6.82c-5.717-9.255-17.009-14.101-28.073-11.126
							c-0.292,0.079-0.616,0.166-0.898,0.277c-10.622,14.873-7.392,35.539,7.325,46.481c1.344,0.994,2.726,1.871,4.147,2.636
							l0.032-0.009c0.836-0.121,1.687-0.314,2.53-0.541C1694.483,457.096,1701.804,447.412,1702.229,436.646z"></path>
            </g>
          </g>
        </g>
      </g>
    </g>
    <path fill="#F5B297" d="M1598.579,600.974c0,0,5.421-17.415,21.37-15.781l18.894-21.204c0,0,7.631-4.531,8.507,0.836
		c0.877,5.366-18.053,42.576-21.496,49.391c-3.443,6.814-21.18,10.452-22.36,13.612
		C1602.315,630.987,1591.197,613.517,1598.579,600.974z"></path>
  </g>
  <g>
    <path fill="#E2E9F7" d="M570.329,1272.246c0,0-44.473,290.028-38.12,312.925c6.353,22.897,60.991,54.953,69.885,30.529
		c8.895-24.424,57.179-328.189,58.449-334.296C661.815,1275.299,570.329,1272.246,570.329,1272.246z"></path>
    <path fill="#85A3D6" d="M713.983,1467.633c0,0-221.595-15.264-237.586-7.632c-15.991,7.632-41.12,149.593-22.845,177.069
		c18.276,27.476,249.009,51.9,249.009,51.9L713.983,1467.633z"></path>
    <path fill="#B3C6E7" d="M524.322,1506.558c-6.37,22.897-18.58,75.559-13.802,93.877c4.778,18.318,37.161,31.293,39.815,26.713
		c2.654-4.579,22.827-106.089,14.864-116.011C557.237,1501.215,524.322,1506.558,524.322,1506.558z"></path>
    <path fill="#E2E9F7" d="M547.019,1667.344c1.44-5.551,10.281-15.215,12.747-12.748c2.468,2.467,2.262,11.719,2.262,11.719
		s9.047-14.392,12.336-9.457c3.29,4.934,2.262,12.131,2.262,12.131s8.429-10.486,12.542-8.019
		c4.112,2.468,2.262,10.486,2.262,10.486s7.813-12.336,10.28-6.785c2.468,5.551,3.29,25.495-3.29,30.224
		c-6.579,4.729-27.962,4.523-33.719,0.411c-5.757-4.112-23.027-4.112-25.289-8.841c-2.262-4.729-16.859-21.794-13.775-23.85
		C528.721,1660.559,547.019,1667.344,547.019,1667.344z"></path>
    <g>
      <g>
        <g>
          <polygon fill="#E2E9F7" points="733.172 2522.274 730.909 2593.395 697.159 2588.263 688.342 2525.23"></polygon>
          <path fill="#B3C6E7" d="M737.756,2575.806c-3.521-3.773-20.795-1.448-39.326,2.299c-3.68-4.965-10.749-14.338-11.414-13.199
					c-0.87,1.489-9.088,5.665-1.791,16.038c-6.075,1.373-11.979,2.778-17.238,4.053c-24.991,6.057-30.352,17.065-34.29,21.478
					c-3.94,4.413-1.126,13.893-1.126,13.893l112.404-7.069C744.976,2613.298,743.273,2581.717,737.756,2575.806z"></path>
          <path fill="#85A3D6" d="M626.212,2612.989c0,0-3.817,11.194,2.29,13.992c6.106,2.799,117.538-6.869,118.301-10.685
					c0.763-3.816,0.509-6.106-0.255-6.36c-0.763-0.255-98.457,7.632-99.22,7.632S634.862,2600.777,626.212,2612.989z"></path>
        </g>
        <g>
          <path fill="#B3C6E7" d="M595.598,1571.743c-6.403,62.483-20.775,239.74-1.489,428.417
					c14.827,145.06,84.726,549.341,84.726,549.341l59.063,0.905l41.272-559.594c0,0,80.179-325.41,81.467-419.068H595.598z"></path>
        </g>
        <g opacity=".5">
          <path fill="#85A3D6" d="M860.321,1580.49c-5.563,103.596-81.14,410.313-81.14,410.313l-41.249,559.567l-14.179-0.204
					c0.882-117.977-0.61-508.074-0.61-508.074l-32.565-455.903C690.578,1586.189,771.379,1584.899,860.321,1580.49z"></path>
        </g>
      </g>
      <g>
        <g>
          <polygon fill="#E2E9F7" points="951.295 2517.84 958.777 2588.602 924.642 2588.132 911.389 2547.174"></polygon>
          <path fill="#B3C6E7" d="M965.199,2575.806c-3.521-3.773-20.795-1.448-39.326,2.299c-3.68-4.965-10.749-14.338-11.414-13.199
					c-0.87,1.489-9.088,5.665-1.791,16.038c-6.075,1.373-11.979,2.778-17.238,4.053c-24.991,6.057-30.352,17.065-34.29,21.478
					c-3.94,4.413-1.126,13.893-1.126,13.893l112.404-7.069C972.419,2613.298,970.716,2581.717,965.199,2575.806z"></path>
          <path fill="#85A3D6" d="M854.037,2610.699c0,0-3.816,11.194,2.29,13.992c6.106,2.799,117.538-6.869,118.301-10.685
					c0.763-3.816,0.509-6.106-0.255-6.36c-0.763-0.254-98.457,7.632-99.22,7.632
					C874.389,2615.278,862.687,2598.487,854.037,2610.699z"></path>
        </g>
        <path fill="#B3C6E7" d="M911.054,1571.743H679.915c48.96,338.212,167.278,867.351,226.658,987.82
				c14.139-3.755,37.392-8.833,51.645-12.212l-45.835-468.078L911.054,1571.743z"></path>
        <path fill="#85A3D6" d="M597.209,1559.984c0,0-6.106,32.055-3.053,41.214c3.053,9.159,148.067,8.396,153.41,9.922
				c5.342,1.527,34.345,113.722,56.479,119.827c22.134,6.106,106.089-12.975,106.089-12.975v-157.988H597.209z" opacity=".5"></path>
      </g>
    </g>
    <path fill="#B3C6E7" d="M652.925,1057.015c-5.088,5.088-12.212-1.018-25.441,13.229c-13.229,14.247-80.394,206.582-73.27,229.987
		c7.123,23.405,62.076,38.67,92.606,37.652c30.529-1.017,65.129-201.493,60.04-224.898
		C701.772,1089.579,652.925,1057.015,652.925,1057.015z"></path>
    <path fill="#B3C6E7" d="M583.386,1574.519c0,0,38.759-525.216,80.443-523.277c41.683,1.938,100.918-9.694,125.051,3.877
		c24.133,13.572,162.347,507.957,160.153,521.528C946.839,1590.218,612.638,1597.594,583.386,1574.519z"></path>
    <path fill="#85A3D6" d="M622.396,1205.59c0,0-9.922,165.621-16.028,166.639C600.262,1373.247,608.149,1230.014,622.396,1205.59z"></path>
    <g>
      <path fill="#85A3D6" d="M684.471,1043.513c0,0,42.211,297.055,95.15,393.591c52.939,96.536,168.562-13.861,168.562-13.861
			s89.27,190.995,91.346,228.365c2.076,37.369-198.262,66.433-227.326,62.281c-29.064-4.152-167.227-659.465-162.037-662.579
			C659.522,1041.174,684.471,1043.513,684.471,1043.513z"></path>
      <path fill="#B3C6E7" d="M838.737,1501.565c0,0,22.216,124.464,47.092,141.292c24.877,16.828,157.307-2.195,151.454-24.877
			c-5.853-22.681-55.606-153.648-62.923-156.575C967.043,1458.479,936.513,1508.8,838.737,1501.565z"></path>
      <path fill="#85A3D6" d="M897.291,1594.324c12.682-1.463,112.188-7.804,126.821-17.072l2.439,6.341
			c0,0-59.996,15.609-97.555,18.048C891.438,1604.079,892.232,1594.907,897.291,1594.324z"></path>
    </g>
    <g>
      <g>
        <g>
          <path fill="#E2E9F7" d="M616.135,879.79c0,0,0.172,23.295,2.102,50.553c0.527,7.454-8.621,19.036-7.798,26.689
					c0.332,3.085,10.498,2.323,10.885,5.35c3.538,27.663,9.478,51.815,19.441,52.67c23.644,2.03,46.267-10.237,46.267-10.237
					l19.535,63.192c0,0,18.355,4.513,47.355-32.049l-13.758-62.414l11.8-77.342C751.964,896.201,657.437,821.386,616.135,879.79z"></path>
          <path fill="#B3C6E7" d="M634.226,1010.457c0,0,54.571-4.579,72.507-20.607l-8.777,49.992l-12.975-29.766
					C684.98,1010.076,642.621,1026.103,634.226,1010.457z"></path>
          <path fill="#85A3D6" d="M684.247,891.411c0,0,2.466,42.863,11.36,36.623c8.895-6.24,18.663-26.366,18.663-26.366l23.25,70.22
					c0,0,10.93,33.739,14.073,8.706c3.142-25.032,27.816-57.206,27.846-96.51c0.03-39.304-47.162-92.195-92.536-73.634
					c-45.373,18.561-115.417,3.468-119.419,22.732C563.481,852.448,592.742,916.856,684.247,891.411z"></path>
        </g>
      </g>
    </g>
    <path fill="#85A3D6" d="M692.613,1047.856c0,0,67.164-16.282,69.199-13.229c2.036,3.052,10.177,14.247,10.177,18.318
		c0,4.071-42.741,36.635-54.953,37.652C704.825,1091.615,692.613,1047.856,692.613,1047.856z"></path>
    <path fill="#E2E9F7" d="M939.9,1253.928c3.816,3.816,75.294,131.506,61.058,212.179c-9.159,51.9-58.006,42.741-102.273,29.003
		c-51.109-15.861-159.515-125.17-204.546-176.307c6.106-10.685,39.688-29.766,39.688-29.766l156.717,93.114l-45.794-103.29
		L939.9,1253.928z"></path>
    <path fill="#B3C6E7" d="M788.88,1055.118c0,0,38.062,9.529,48.748,17.161c10.685,7.632,132.802,169.438,134.329,199.967
		c1.527,30.529-85.984,77.416-99.22,71.744C812.186,1318.04,788.88,1055.118,788.88,1055.118z"></path>
    <path fill="#85A3D6" d="M803.536,1203.555c0,0,31.547,119.064,45.794,129.24c14.247,10.177,29.512,11.195,29.512,11.195
		s-12.652,15.077-34.6,1.017C811.677,1324.146,803.536,1203.555,803.536,1203.555z"></path>
    <g>
      <path fill="#E2E9F7" d="M663.011,1303.102c-0.993-2.776,1.084-7.085,2.797-7.847c1.644-0.732,3.479-0.823,3.479-0.823
			s-2.671-2.256-2.937-4.318c-0.209-1.624,3.948-8.044,5.095-8.527c1.988-0.836,5.274,0.34,5.274,0.34s-3.14-2.927-3.332-4.879
			c-0.161-1.635,5.086-9.143,6.516-9.758c2.712-1.167,6.96,1.194,6.96,1.194s-4.18-5.197-4.35-6.734
			c-0.247-2.222,9.432-7.192,9.432-7.192s13.012,6.283,16.6,9.24c6.599,0.464,20.339,1.877,23.469,5.719
			c8.666,10.637,10.518,20.659,8.985,26.361c7.53,4.935,18.483,12.994,18.483,12.994l-25.54,35.733l-17.526-10.234l-36.807-16.947
			C679.61,1317.425,664.827,1308.181,663.011,1303.102z"></path>
    </g>
    <path fill="#85A3D6" d="M635.116 929.555c0 5.62-2.733 10.177-6.106 10.177-3.372 0-6.106-4.557-6.106-10.177 0-5.62 2.733-10.177 6.106-10.177C632.383 919.378 635.116 923.935 635.116 929.555zM614 905.64c16.695 0 23.406 4.834 22.388 6.869-1.017 2.035-18.571 2.544-21.116 0C612.728 909.965 609.93 905.64 614 905.64zM626.975 980.691c16.695 0 23.406-3.562 22.388-1.526-1.017 2.035-18.572 10.939-21.116 8.396C625.703 985.016 622.905 980.691 626.975 980.691z"></path>
    <path fill="#B3C6E7" d="M461.099,1631.473c-2.456-6.141,23.914-153.155,30.021-151.12c6.106,2.035,93.623-0.509,90.061,2.544
		c-3.562,3.053-85.991,4.58-85.991,4.58S464.152,1639.105,461.099,1631.473z"></path>
  </g>
  <g>
    <g>
      <path fill="#E2E9F7" d="M1280.189,619.28c-8.551,32.984-18.343,66.282-29.406,99.845c-0.629,1.896-2.586,2.946-4.353,2.324
			c-48.432-16.922-96.97-28.961-145.128-36.727c-1.747-0.286-3.131-1.866-3.061-3.545c1.227-29.499,1.344-58.422,0.382-86.719
			c-0.061-1.599,1.609-2.855,3.695-2.776c57.333,2.088,115.838,9.615,174.834,23.291
			C1279.311,615.48,1280.67,617.411,1280.189,619.28z"></path>
      <path fill="#B3C6E7" d="M1279.35 616.843c-.06-.104-41.073 6.998-72.591 20.035C1206.925 636.894 1235.739 631.217 1279.35 616.843zM1152.544 662.274c.068-.069-26.906 4.9-51.431 19.778C1101.356 682.042 1117.24 678.234 1152.544 662.274zM1203.242 675.202c-.155.015 24.708 14.539 43.172 42.853C1246.106 718.292 1232.482 705.011 1203.242 675.202zM1101.01 593.528c-.135.036 29.099 9.133 54.522 31.701C1155.277 625.527 1138.048 615.223 1101.01 593.528z"></path>
      <g>
        <path fill="#B3C6E7" d="M1181.171,657.419c-1.809,2.368-4.283,3.262-7.295,2.541c-4.787-1.063-6.369-4.947-4.864-10.989
				c0.537-2.096,1.076-4.19,1.609-6.285c1.492-6.096,4.941-8.979,9.967-7.952c3.029,0.57,4.774,2.315,5.334,4.988
				c0.327-1.216,0.656-2.427,0.982-3.644c2.311,0.407,4.622,0.821,6.935,1.245c-1.704,6.078-3.432,12.167-5.18,18.259
				c-0.328,1.067,0.002,1.674,1.118,1.906c3.888,0.818,7.027-6.901,8.16-13.519c1.419-8.108-2.113-14.494-12.318-16.167
				c-13.103-2.075-20.755,5.923-22.431,20.298c-1.205,10.178,2.93,17.445,13.697,19.697c5.031,1.045,9.441,1.077,14.888-1.383
				c-0.563,2.043-1.137,4.091-1.708,6.137c-5.013,1.849-9.499,1.647-14.477,0.581c-15.045-3.251-20.305-13.42-18.94-26.427
				c1.617-15.449,11.607-27.058,29.996-24.277c15.661,2.474,19.214,12.045,17.258,22.595c-2.989,16.056-12.11,19.026-17.355,17.903
				C1183.042,662.19,1180.969,660.503,1181.171,657.419z M1175.854,649.868c-0.766,2.883,0.234,4.314,2.382,4.792
				c2.077,0.457,3.726-0.404,4.533-3.3c0.552-1.992,1.099-3.984,1.644-5.975c0.659-2.455-0.598-3.801-2.529-4.145
				c-2.212-0.45-3.854,0.375-4.626,3.31C1176.791,646.322,1176.322,648.097,1175.854,649.868z"></path>
      </g>
    </g>
    <g>
      <g>
        <path fill="#E2E9F7" d="M2085.011,1044.763c4.99,24.641,9.26,49.892,12.771,75.729c0.196,1.461-0.763,2.79-2.136,2.948
				c-37.593,4.431-73.678,12.137-108.129,22.552c-1.251,0.375-2.68-0.226-3.176-1.361c-8.722-19.962-17.994-39.183-27.778-57.641
				c-0.557-1.041,0.144-2.414,1.553-3.036c38.702-17.147,79.939-31.067,123.49-41.066
				C2083.201,1042.527,2084.727,1043.369,2085.011,1044.763z"></path>
        <path fill="#B3C6E7" d="M2083.668 1043.417c-.074-.049-24.98 17.918-41.672 36.754C2042.112 1080.128 2059.388 1067.049 2083.668 1043.417zM2014.247 1114.541c.022-.068-16.261 11.947-27.719 29.742C1986.686 1144.198 1995.99 1136.537 2014.247 1114.541zM2052.052 1106.727c-.098.06 21.088 1.656 42.487 14.467C2094.411 1121.452 2081.081 1117.047 2052.052 1106.727zM1957.845 1085.601c-.078.067 22.252-3.349 46.41 3.402C2004.182 1089.284 1989.424 1088.019 1957.845 1085.601z"></path>
        <g>
          <path fill="#B3C6E7" d="M2031.665,1102.066c-0.435,2.156-1.787,3.548-4.017,4.044c-3.519,0.842-5.823-1.223-6.779-5.716
					c-0.321-1.564-0.641-3.127-0.964-4.688c-0.981-4.526,0.375-7.553,4.04-8.496c2.193-0.601,3.915-0.008,5.15,1.583
					c-0.176-0.912-0.35-1.823-0.527-2.734c1.664-0.477,3.332-0.949,5.002-1.416c0.835,4.582,1.657,9.179,2.467,13.785
					c0.127,0.813,0.542,1.11,1.358,0.903c2.844-0.714,2.43-6.849,1.042-11.604c-1.68-5.836-6.086-8.93-13.396-6.741
					c-9.362,2.86-11.852,10.637-8.317,20.714c2.491,7.14,7.583,10.623,15.452,8.636c3.674-0.933,6.61-2.337,9.428-5.73
					c0.287,1.538,0.569,3.081,0.851,4.623c-2.727,2.847-5.767,4.163-9.415,5.065c-11.029,2.706-17.805-2.338-21.105-11.406
					c-3.921-10.769-1.048-21.698,12.048-25.798c11.187-3.421,16.638,1.778,18.75,9.408c3.207,11.616-1.883,16.534-5.724,17.484
					C2034.448,1104.626,2032.527,1104.177,2031.665,1102.066z M2025.697,1098.777c0.424,2.16,1.55,2.787,3.129,2.409
					c1.526-0.368,2.341-1.472,1.94-3.654c-0.278-1.5-0.559-2.998-0.841-4.495c-0.357-1.841-1.625-2.328-3.018-1.932
					c-1.612,0.416-2.435,1.495-1.998,3.691C2025.172,1096.122,2025.436,1097.451,2025.697,1098.777z"></path>
        </g>
      </g>
      <g>
        <g>
          <polygon fill="#E2E9F7" points="2449.534 405.044 2335.74 478.282 2395.421 484.898 2395.549 484.711 2423.372 537.48 2449.92 404.481"></polygon>
          <polygon fill="#B3C6E7" points="2372.893 481.966 2386.676 509.785 2449.534 405.044"></polygon>
        </g>
        <g>
          <path fill="#E2E9F7" d="M2374.176 523.549c-10.257 23.441-34.843 36.848-57.312 47.309-72.264 30.702-150.638 42.615-226.907 60.662-48.155 12.787-182.533 35.115-178.255 99.981.915 13.842 4.954 27.71 12.211 39.556-15.669 14.776-28.982 32.322-40.655 49.916-52.974 80.374-6.205 169.554 66.623 225.938.365-.871 4.513-5.503 4.884-6.372-46.806-37.485-82.719-87.39-87.283-143.731-1.515-25.79 6.681-51.069 21.576-72.032 11.43-17.091 24.466-33.234 39.461-47.085 3.653 4.704 7.866 8.989 12.733 12.634 21.436 16.757 60.583 22.026 76.908-4.375 6.799-13.697 5.302-30.904-5.892-41.822-11.779-10.312-28.394-8.113-41.656-3.462-14.646 5.623-27.705 13.953-39.491 23.923-6.708-11.391-10.373-24.761-9.952-38.09.8-15.277 11.856-26.721 24.521-35.574 43.742-27.972 96.447-38.036 146.295-50.603 51.001-11.884 102.53-22.16 153.327-36.187 37.89-10.932 77.032-22.747 109.343-46.529 10.65-8.156 20.499-18.452 25.756-31.532L2374.176 523.549zM1940.574 767.358c18.321-15.238 66.566-40.305 72.651-2.15 3.271 19.327-14.248 31.202-32.664 30.101-18.617-.336-34.287-9.984-44.875-23.925C1937.305 770.03 1938.911 768.658 1940.574 767.358zM2360.373 572.549c7.052-13.986 31.46-43.57 33.974-34.503C2396.86 547.114 2356.408 580.413 2360.373 572.549z"></path>
          <path fill="#E2E9F7" d="M2300.394,553.434c20.109,13.136,72.65-38.393,60.876-32.961
					C2339.91,530.327,2291,547.297,2300.394,553.434z"></path>
        </g>
      </g>
    </g>
  </g>
</svg>
